<svg xmlns="http://www.w3.org/2000/svg" height="800" width="1200"><defs><linearGradient id="b" spreadMethod="pad" gradientTransform="scale(1312.82 -1312.82) rotate(45.501 6.071 .612)" gradientUnits="userSpaceOnUse" y2="0" x2="1" y1="0" x1="0"><stop offset="0" stop-color="#3a4faa"/><stop offset=".006" stop-color="#3a4faa"/><stop offset="1" stop-color="#4354ae"/></linearGradient><linearGradient id="d" spreadMethod="pad" gradientTransform="matrix(4845.88 0 0 -4845.88 2622.62 3567.29)" gradientUnits="userSpaceOnUse" y2="0" x2="1" y1="0" x1="0"><stop offset="0" stop-color="#364ba7"/><stop offset=".461" stop-color="#4c5fb5"/><stop offset=".994" stop-color="#3a4faa"/><stop offset="1" stop-color="#3a4faa"/></linearGradient><linearGradient id="f" spreadMethod="pad" gradientTransform="matrix(4845.88 0 0 -4845.88 2622.62 3567.29)" gradientUnits="userSpaceOnUse" y2="0" x2="1" y1="0" x1="0"><stop offset="0" stop-color="#2c3c9b"/><stop offset=".461" stop-color="#424eaa"/><stop offset=".994" stop-color="#2c3f9d"/><stop offset="1" stop-color="#2c3f9d"/></linearGradient><linearGradient id="h" spreadMethod="pad" gradientTransform="matrix(4845.88 0 0 -4845.88 2622.62 3567.29)" gradientUnits="userSpaceOnUse" y2="0" x2="1" y1="0" x1="0"><stop offset="0" stop-color="#2c3c9b"/><stop offset=".461" stop-color="#424eaa"/><stop offset=".994" stop-color="#2c3f9d"/><stop offset="1" stop-color="#2c3f9d"/></linearGradient><linearGradient id="j" spreadMethod="pad" gradientTransform="matrix(4845.88 0 0 -4845.88 2622.62 3567.29)" gradientUnits="userSpaceOnUse" y2="0" x2="1" y1="0" x1="0"><stop offset="0" stop-color="#2a3480"/><stop offset=".461" stop-color="#303c9b"/><stop offset=".994" stop-color="#2b3481"/><stop offset="1" stop-color="#2b3481"/></linearGradient><clipPath id="a" clipPathUnits="userSpaceOnUse"><path d="M2622.62 4141.57l1312.82 443.52v1506.45l-1312.81-757.96z"/></clipPath><clipPath id="c" clipPathUnits="userSpaceOnUse"><path d="M6257.22 1957.76c.11.45 70.44 298.38-142.85 435.78-4.32 2.78-8.75 5.49-13.31 8.14l-3478.44 2021.2 1312.82 753.94 3417.92-2055.95c7.97-5.39 15.79-11.83 23.36-19.19 19.39-18.85 37.15-43.79 51.78-72.91 20.97-41.74 35.5-92.08 39.12-145.37 7.91-116.39-36.18-246.94-178.84-333.23-6.1-3.68-12.4-7.3-18.86-10.82-.02-.01-.04-.03-.06-.03l-744.35-427.48-268.29-154.08m-1225.7 1357.93l-155.58-89.82 888.86-513.18 888.84 513.17-237.2 136.95v295.09l-333.98-102.27-317.68 183.41-346.34-199.96-386.92 118.82v-342.21M4263.16 4609.6l-888.83-513.17 888.86-513.19 888.83 513.18-888.86 513.18"/></clipPath><clipPath id="e" clipPathUnits="userSpaceOnUse"><path d="M5764.8 2712.69l-888.86 513.18 155.58 89.82v-45.43l688.13-397.29a4.99 4.99 0 010-5 5 5 0 016.83-1.83l692.46 399.79a5.002 5.002 0 011.83 6.83 4.98 4.98 0 01-4.33 2.5v87.55l237.2-136.95-888.84-513.17m-41.79 732.86l-304.57 93.53 346.34 199.96 317.68-183.41-359.45-110.08"/></clipPath><clipPath id="g" clipPathUnits="userSpaceOnUse"><path d="M4263.19 3583.24l-888.86 513.19 888.83 513.17 888.86-513.18-888.83-513.18"/></clipPath><clipPath id="i" clipPathUnits="userSpaceOnUse"><path d="M5723.98 2865.47a5 5 0 00-4.33 2.5 4.99 4.99 0 000 5l4.33-2.5 692.46 399.79v5c1.73 0 3.4-.89 4.33-2.5 1.38-2.39.56-5.45-1.83-6.83l-692.46-399.79a4.94 4.94 0 00-2.5-.67"/></clipPath></defs><path d="M818.023 601.99L502.62 417.012 328.209 517.708l90.172 53.229c-13.99-2.614-30.58-1.186-42.48 4.356-16.562 7.714-17.766 20.475-2.688 28.503 15.077 8.029 46.063 16.484 62.625 8.77 10.838-5.046 15.329-21.075 12.755-27.704L553.5 650.697c-10.29-.073-20.742 1.79-28.959 5.616-16.563 7.713-17.767 20.475-2.69 28.504 15.078 8.028 41.77 21.484 63.612 7.424 6.626-4.264 5.1-14.446 6.456-18.866l66.16 39.055 156.467-93.166c5.253-3.017 8.724-14.244 3.478-17.273" fill="#ecf1fa"/><path d="M959.094 664.472l-9.663-5.554-20.987 50.88 8.402 4.838 22.248-50.164" fill="#38409f"/><path d="M921.694 694.356c0 13.47 7.738 19.923 17.284 14.411 9.545-5.51 17.284-20.898 17.284-34.368 0-13.47-7.739-19.923-17.284-14.411-9.546 5.51-17.284 20.898-17.284 34.368" fill="#38409f"/><path d="M930.938 699.685c0 13.47 7.738 19.923 17.285 14.41 9.545-5.51 17.283-20.898 17.283-34.369 0-13.47-7.738-19.922-17.283-14.41-9.547 5.511-17.285 20.899-17.285 34.369" fill="#4a5db4"/><path d="M295.732 536.058l230.113-132.855V139.15L295.732 272.005v264.053" fill="#aebae4"/><path d="M354.304 392.2l.001-85.615 123.419-71.257v103.166l10.915-7.627-2.578-111.32-143.008 83.788 1.562 94.431 9.69-5.565" fill="#2b378a"/><path d="M328.251 457.327v59.957l49.073-28.332s-4.43-36.13-8.734-36.139c-4.302-.01-40.339 4.514-40.339 4.514" fill="#6972c1"/><path d="M687.258 493.896l6.917-21.49c1.338-2.094 5.392-4.793 8.513-5.923 1.4-.507 2.963.076 3.745 1.342l1.689 2.736c2.57 3.86 2.51 4.643.745 7.408l-10.483 16.42c-1.765 2.765-5.532 4.924-8.37 4.799l-.805-.036c-2.839-.125-3.717-2.491-1.951-5.256M615.535 486.205l19.117-12c2.371-.743 7.207-.199 10.32.943 1.398.514 2.218 1.966 2.001 3.44l-.469 3.18c-.518 4.61-1.068 5.172-4.196 6.153l-18.583 5.823c-3.128.982-7.4.21-9.488-1.713l-.592-.546c-2.09-1.923-1.24-4.299 1.89-5.28M669.373 335.54l4.141 80.662s-20.802 23.76-54.946-8.359l4.105-70.425 46.7-1.879" fill="#2a3c90"/><path d="M818.022 626.635c5.82 0 10.582-4.761 10.582-10.581v-99.17c0-5.82-4.761-10.581-10.582-10.581-5.819 0-10.58 4.76-10.58 10.58v99.17c0 5.82 4.761 10.582 10.58 10.582" fill="#afbfe7"/><g clip-path="url(#a)" transform="matrix(.09401 0 0 -.09401 107.75 808)"><path d="M2622.62 4141.57l1312.82 443.52v1506.45l-1312.81-757.96-.01-1192.01" fill="url(#b)"/></g><path d="M295.732 536.058L107.75 427.528V163.498l187.982 108.506v264.053" fill="#6f85cb"/><path d="M295.732 272.031l230.113-132.855L297.168 7.149 107.75 116.51v46.99L295.732 272.03" fill="#d1d8f0"/><path d="M656.317 646.736l-328.066-189.41 172.287-98.942 328.066 189.41-172.287 98.942" fill="#6f85cb"/><path d="M656.317 646.736l-5.875-45.704 167.58-94.73 10.582 41.491-172.287 98.943" fill="#afbfe7"/><path d="M477.724 321.322l-74.472-42.997 74.472-42.997z" fill="#8f97d4"/><path d="M790.612 540.923l37.992-43.295-500.353-90.465v50.164l462.36 83.596" fill="#6f85cb"/><path d="M657.314 597.147L328.25 407.163l172.287-98.943 331.869 190.705-175.093 98.222" fill="#afbfe7"/><g clip-path="url(#c)" transform="matrix(.09401 0 0 -.09401 107.75 808)"><path d="M6257.22 1957.76c.11.45 70.44 298.38-142.85 435.78-4.32 2.78-8.75 5.49-13.31 8.14l-3478.44 2021.2 1312.82 753.94 3417.92-2055.95c7.97-5.39 15.79-11.83 23.36-19.19 19.39-18.85 37.15-43.79 51.78-72.91 20.97-41.74 35.5-92.08 39.12-145.37 7.91-116.39-36.18-246.94-178.84-333.23-6.1-3.68-12.4-7.3-18.86-10.82-.02-.01-.04-.03-.06-.03l-744.35-427.48-268.29-154.08m-1225.7 1357.93l-155.58-89.82 888.86-513.18 888.84 513.17-237.2 136.95v295.09l-333.98-102.27-317.68 183.41-346.34-199.96-386.92 118.82v-342.21M4263.16 4609.6l-888.83-513.17 888.86-513.19 888.83 513.18-888.86 513.18" fill="url(#d)"/></g><path d="M654.17 720.67c5.82 0 10.58-4.762 10.58-10.581v-99.171c0-5.82-4.76-10.581-10.58-10.581s-10.582 4.762-10.582 10.58v99.172c0 5.819 4.762 10.58 10.582 10.58" fill="#afbfe7"/><g clip-path="url(#e)" transform="matrix(.09401 0 0 -.09401 107.75 808)"><path d="M5764.8 2712.69l-888.86 513.18 155.58 89.82v-45.43l688.13-397.29a4.99 4.99 0 010-5 5 5 0 016.83-1.83l692.46 399.79a5.002 5.002 0 011.83 6.83 4.98 4.98 0 01-4.33 2.5v87.55l237.2-136.95-888.84-513.17m-41.79 732.86l-304.57 93.53 346.34 199.96 317.68-183.41-359.45-110.08" fill="url(#f)"/></g><g clip-path="url(#g)" transform="matrix(.09401 0 0 -.09401 107.75 808)"><path d="M4263.19 3583.24l-888.86 513.19 888.83 513.17 888.86-513.18-888.83-513.18" fill="url(#h)"/></g><path d="M565.003 362.118l23.434-18.978-64.075-38.668-24.642 19.954 65.283 37.692" fill="#bb7989"/><path d="M434.51 362.118l-23.433-18.978 64.075-38.668 24.642 19.954-65.283 37.692" fill="#bb7989"/><path d="M500.002 435.672l-65.098-37.584v-36.443l65.098-1.14v75.167" fill="#8f5d69"/><path d="M565.101 398.088l-65.099 37.584v-75.167l65.1 1.141v36.442" fill="#6e4951"/><path d="M499.82 399.336l-65.284-37.69 65.281-37.692 65.284 37.692-65.282 37.69" fill="#8f5d69"/><path d="M499.82 399.336l1.391-20.61-1.394-54.772 65.284 37.692-65.282 37.69" fill="#714b53"/><path d="M500.002 399.336l-32.641-18.845L500 361.645l32.643 18.846-32.642 18.845" fill="#5a353d"/><path d="M492.89 405.134l-43.262-23.864c-1.775-.982-2.5-2.375-2.256-3.84l-.015-.013.706-8.512s5.448.208 11.241-.744l37.29-21.352c4.73-2.71 11.549-3.29 15.26-1.242l35.14 19.39c6.75-.174 11.263-.955 11.263-.955l-.524 9.26-.011.008c-.143 1.563-1.624 3.294-4.402 4.884L508.2 403.99c-4.73 2.71-11.6 3.192-15.31 1.144" fill="#ab931e"/><path d="M555.938 360.586L512.65 336.67c-3.71-2.05-10.553-1.515-15.284 1.194L452.244 363.7c-4.73 2.71-5.559 6.567-1.848 8.617l43.288 23.915c3.71 2.05 10.553 1.514 15.283-1.195l45.122-25.835c4.731-2.71 5.559-6.567 1.849-8.616" fill="#e7cd2f"/><path d="M500.002 453.372l-65.098-37.585v-36.442l65.098 19.991v54.036" fill="#8f5d69"/><path d="M565.101 415.787l-65.099 37.585-.183-54.036 65.282-19.99v36.441" fill="#6e4951"/><path d="M434.536 361.645l-23.433 18.977 64.074 38.669 24.642-19.955-65.283-37.69" fill="#bb7989"/><path d="M565.03 361.645l23.433 18.977-64.075 38.669-24.642-19.955 65.284-37.69M710.868 446.89l23.433-18.978-64.075-38.669-24.642 19.955 65.284 37.692" fill="#bb7989"/><path d="M580.374 446.89l-23.433-18.978 64.074-38.669 24.642 19.955-65.283 37.692" fill="#bb7989"/><path d="M645.866 520.445l-65.099-37.586v-36.441l65.099-1.14v75.167" fill="#8f5d69"/><path d="M710.965 482.859l-65.1 37.586v-75.168l65.1 1.14v36.442" fill="#6e4951"/><path d="M645.683 484.108L580.4 446.417l65.282-37.691 65.283 37.692-65.282 37.69" fill="#8f5d69"/><path d="M645.683 484.108l1.325-28.506-1.326-46.876 65.283 37.692-65.282 37.69" fill="#714b53"/><path d="M645.866 484.108l-32.642-18.846 32.64-18.845 32.643 18.846-32.641 18.845" fill="#5a353d"/><path d="M638.753 489.905l-43.262-23.864c-1.775-.98-2.5-2.375-2.255-3.838l-.015-.014.706-8.513s5.448.209 11.24-.743l37.29-21.352c4.732-2.71 11.55-3.29 15.26-1.241l35.141 19.389c6.75-.173 11.263-.956 11.263-.956l-.524 9.262-.012.007c-.142 1.563-1.623 3.293-4.401 4.884l-45.121 25.836c-4.732 2.71-11.6 3.193-15.31 1.143" fill="#ad35a1"/><path d="M701.801 445.357l-43.288-23.915c-3.71-2.049-10.553-1.515-15.283 1.195l-45.122 25.835c-4.731 2.71-5.559 6.567-1.849 8.616l43.288 23.915c3.71 2.05 10.553 1.516 15.285-1.194l45.12-25.836c4.732-2.708 5.56-6.565 1.85-8.616" fill="#7ed5e9"/><path d="M645.866 538.144l-65.099-37.585v-36.442l65.099 19.99v54.037" fill="#8f5d69"/><path d="M710.965 500.56l-65.1 37.584-.182-54.037 65.282-19.99v36.442" fill="#6e4951"/><path d="M580.4 446.417l-23.434 18.977 64.075 38.67 24.642-19.956-65.283-37.691" fill="#bb7989"/><path d="M710.893 446.417l23.433 18.977-64.075 38.67-24.642-19.956 65.284-37.691" fill="#bb7989"/><path d="M244.777 295.31l.025.014.115-18.915c.034-5.643-3.508-12.233-7.913-14.719l-79.074-44.618a8.538 8.538 0 00-.689-.344l-14.292-8.065c-1.108-.625-2.163-.929-3.125-.947-2.876-.07-4.911 2.43-4.937 6.667l-.983 161.99a14.54 14.54 0 00.117 1.843l-.117 19.25c-.034 5.643 3.509 12.233 7.912 14.718l79.076 44.619c.234.132.465.243.694.347l14.286 8.06c4.405 2.487 8.003-.075 8.036-5.718l.869-143.091.025.014.115-18.914c.004-.678-.046-1.37-.141-2.067v-.124" fill="#455eb4"/><path d="M655.775 433.963l-21.76.788-1.1 13.338 4.634-.201.726-8.788 17.093-.62.407-4.517M675.425 445.81l-4.635.2-.715 8.662-17.32.627-.406 4.518 21.985-.796 1.09-13.212M670.764 443.966l-.792-4.27-30.969 10.416.792 4.27 30.969-10.416M524.406 357.098l2.447 1.352c3.418 1.888 3.522 3.577-1.082 6.214-3.027 1.733-4.993 2.422-7.679 3.96-1.493.854-2.255 2.208.186 3.653l-3.667 2.098c-2.611-1.346-5.004-.893-6.496-.038-2.686 1.538-3.876 2.655-6.904 4.389-4.604 2.637-7.608 2.608-11.027.72l-2.447-1.353 3.326-1.904.738.408c1.632.901 2.699.771 5.044-.572 2.302-1.318 4.193-2.576 6.794-4.065 3.241-1.856 5.41-2.049 7.864-1.268l.17-.098c-1.431-1.366-1.126-2.59 2.113-4.445 2.602-1.489 4.804-2.575 7.107-3.894 2.344-1.341 2.557-1.944.925-2.845l-.738-.409 3.326-1.903M508.94 352.296l-.736-.408c-1.632-.9-2.7-.771-5.044.571-2.302 1.32-4.194 2.577-6.794 4.066-3.24 1.855-5.41 2.048-7.864 1.269l-.17.097c1.43 1.366 1.126 2.59-2.114 4.444-2.6 1.49-4.803 2.576-7.106 3.894-2.344 1.344-2.557 1.945-.925 2.846l.738.408-3.326 1.904-2.447-1.351c-3.42-1.89-3.523-3.578 1.082-6.215 3.027-1.732 4.993-2.422 7.679-3.96 1.492-.855 2.254-2.208-.185-3.653l3.666-2.099c2.61 1.346 5.003.894 6.496.039 2.686-1.537 3.875-2.656 6.903-4.39 4.605-2.635 7.608-2.606 11.027-.718l2.447 1.351-3.326 1.905" fill="#fff"/><path d="M976.809 788.548c-2.574 0-5.031-.516-6.857-1.57l-74.397-42.953c-4.032-2.328-3.522-6.431 1.134-9.121l37.628-21.724 2.527 1.455c1.425.937 3.057 1.43 4.837 1.43 2.018 0 4.226-.633 6.542-1.97 4.14-2.39 7.942-6.64 10.919-11.787 2.252.104 4.365.616 5.983 1.55l74.398 42.954c4.032 2.328 3.522 6.432-1.134 9.12l-52.64 30.391c-2.548 1.471-5.83 2.225-8.94 2.225" fill="#e2e7f6"/><path d="M936.844 714.635l-2.527-1.455.528-.306a9.803 9.803 0 001.999 1.761" fill="#363d9d"/><path d="M941.681 716.065c-1.78 0-3.412-.493-4.837-1.43a9.803 9.803 0 01-2-1.76l14.484-8.362c2.548-1.471 5.83-2.225 8.94-2.225.294 0 .584.007.874.02-2.977 5.147-6.778 9.397-10.92 11.788-2.315 1.336-4.523 1.969-6.54 1.969" fill="#4658b0"/><path d="M1083.996 571.352l-28.532 13.715c-2.53 1.218-5.603.143-6.816-2.391-1.219-2.533-.141-5.602 2.388-6.82l28.532-13.715c2.529-1.216 5.594-.14 6.816 2.392 1.222 2.533.14 5.601-2.388 6.82M1015.876 534.965l-28.525 13.716c-2.534 1.217-5.602.142-6.82-2.392-1.218-2.533-.143-5.602 2.391-6.82l28.526-13.715c2.532-1.217 5.602-.14 6.818 2.392 1.219 2.534.143 5.602-2.39 6.82" fill="#fac308"/><path d="M1039.523 726.319l-74.398-42.953c-4.032-2.328-11.14-2.033-15.797.655l-41.045 23.697-15.444 2.292-.004 9.813.016.008c.098 1.39.983 2.71 2.704 3.702l74.397 42.953c4.032 2.328 11.14 2.034 15.798-.654l52.64-30.393c4.655-2.688 5.165-6.791 1.133-9.12" fill="#6672c0"/><path d="M1039.523 726.319l-59.654-34.442-2.252 76.162c2.863-.118 5.804-.864 8.133-2.207l52.64-30.393c4.655-2.688 5.165-6.791 1.133-9.12" fill="#606cbd"/><path d="M963.129 702.288c3.417 0 6.58-2.778 7.064-6.205l21.35-151.195c.483-3.427-1.894-6.205-5.312-6.205-3.417 0-6.58 2.778-7.064 6.205l-21.35 151.195c-.484 3.427 1.894 6.205 5.312 6.205" fill="#9ba1d8"/><path d="M969.952 757.125l-74.397-42.954c-4.032-2.328-3.522-6.431 1.134-9.12l52.64-30.392c4.656-2.688 11.764-2.983 15.796-.654l74.398 42.953c4.032 2.328 3.522 6.432-1.134 9.12l-52.64 30.392c-4.656 2.688-11.765 2.982-15.797.655" fill="#9ba1d8"/><path d="M929.058 717.654l41.823-24.147c2.008-1.16 1.754-3.203-.564-4.541-2.32-1.34-5.86-1.486-7.868-.327l-41.823 24.147c-2.008 1.16-1.754 3.203.565 4.542 2.318 1.34 5.859 1.486 7.867.326M947.682 728.168l41.825-24.147c2.007-1.16 1.753-3.203-.565-4.542-2.32-1.338-5.86-1.486-7.867-.325l-41.824 24.145c-2.009 1.16-1.755 3.204.564 4.543 2.32 1.338 5.86 1.485 7.867.326M967.54 739.432l41.825-24.145c2.008-1.16 1.754-3.203-.566-4.543-2.318-1.339-5.857-1.485-7.866-.326l-41.823 24.147c-2.009 1.16-1.755 3.203.564 4.542 2.32 1.339 5.86 1.485 7.867.325M1044.264 619.582l-63.228-29.472c-3.162-1.473-4.19-3.32-3.299-5.58 0 0 1.715-4.272 4.879-2.798l62.695 29.223c3.168 1.475 5.518 4.621 5.226 6.994-.29 2.372-3.11 3.107-6.273 1.633" fill="#6672c0"/><path d="M576.296 477.06s14.649-2.492 21.599-11.798l1.619 4.611s-5.255 9.068-21.086 10.865l-2.132-3.679" fill="#a7b1e0"/><path d="M880.665 686.756c-9.596 0-19.08-1.869-26.054-5.581-13.589-7.238-12.503-18.74 2.425-25.692 7.268-3.386 16.478-5.067 25.584-5.067 9.598 0 19.08 1.868 26.054 5.58 13.59 7.239 12.505 18.741-2.423 25.693-7.27 3.385-16.479 5.067-25.586 5.067" fill="#e2e7f6"/><path d="M886.473 649.324c.011-.141.008-.282 0-.424v-5.396l-3.407.821-.23-.144c-4.415-2.549-11.154-2.828-14.978-.62l-13.18 7.61-11.039 2.66v5.614l.008-.001c-.198 1.813 1.027 3.774 3.623 5.272 4.413 2.549 11.153 2.828 14.976.62l21.665-12.508c1.615-.932 2.453-2.166 2.56-3.47l.003-.001v-.032" fill="#808fd0"/><path d="M862.246 659.695l21.665-12.509c3.823-2.206 3.339-6.097-1.075-8.646-4.415-2.549-11.154-2.828-14.978-.62l-21.664 12.509c-3.823 2.206-3.339 6.097 1.075 8.646 4.414 2.548 11.154 2.828 14.977.62" fill="#cdd3ef"/><path d="M918.182 667.342c.01-.142.007-.283 0-.425v-5.395l-3.407.822-.232-.146c-4.414-2.549-11.153-2.828-14.976-.62l-13.182 7.61-11.037 2.662v5.613h.008c-.198 1.81 1.027 3.772 3.622 5.27 4.414 2.549 11.154 2.83 14.976.62l21.666-12.507c1.614-.933 2.452-2.165 2.558-3.471l.006-.001v-.031" fill="#808fd0"/><path d="M893.954 677.713l21.666-12.509c3.822-2.206 3.339-6.098-1.077-8.647-4.414-2.548-11.153-2.828-14.976-.62l-21.664 12.509c-3.824 2.206-3.34 6.097 1.074 8.646 4.415 2.549 11.154 2.829 14.977.621" fill="#cdd3ef"/><path d="M863.275 526.002c-.287.389-3.375 4.629-6.406 12.482-3.031 7.848-5.994 19.325-5.992 34.034 0 4.024.221 8.288.72 12.783 1.01 9.08 2.368 16.593 3.869 22.935 2.246 9.505 4.836 16.403 6.873 21.77 1.018 2.682 1.888 4.97 2.524 6.989.64 2.023 1.051 3.76 1.244 5.467a6.581 6.581 0 0013.078-1.481c-.425-3.745-1.437-7.125-2.624-10.486-1.794-5.055-4.005-10.197-6.165-17.378-2.158-7.172-4.284-16.385-5.717-29.27a102.53 102.53 0 01-.64-11.329c.001-12.94 2.59-22.76 5.108-29.296 1.261-3.265 2.505-5.705 3.4-7.28.446-.788.806-1.36 1.037-1.71.114-.176.197-.295.241-.359l.039-.054-.68-.49.676.495.004-.005-.68-.49.676.495-3.736-2.735 3.718 2.76.018-.024-3.736-2.736 3.718 2.76a6.58 6.58 0 00-10.566-7.847" fill="#3d51ab"/><path d="M919.645 526.425c0 17.733-14.376 32.109-32.108 32.109-17.734 0-32.109-14.376-32.109-32.11 0-17.733 14.375-32.108 32.109-32.108 17.732 0 32.108 14.375 32.108 32.109" fill="#828dcf"/><path d="M910.206 515.042c-3.562-1.366-19.084-20.726-23.126-20.726-17.733 0-32.11 14.376-32.11 32.109 0 17.733 14.377 32.109 32.11 32.109 4.042 0 7.9-.77 11.462-2.136-17.016 3.43-19.007-27.461 11.664-41.356" fill="#9ba1d8"/><path d="M859.747 375.43l13.611 7.858c.693.4 1.26 1.486 1.26 2.409 0 .924-.567 1.353-1.26.953l-13.61-7.858c-.694-.4-1.262-1.484-1.262-2.408 0-.925.568-1.354 1.261-.953" fill="#4a5db4"/><path d="M857.06 377.452a3.588 3.588 0 117.176 0 3.588 3.588 0 01-7.176 0" fill="#4a5db4"/><path d="M856.973 415.78l-9.107 24.955c2.516 10.05 7.963 15.165 14.844 17.864l5.848-39.074-4.677-5.113c-2.087-2.281-5.849-1.536-6.908 1.367" fill="#3d51ab"/><path d="M845.476 439.678c.016.041 1.3 3.313 4.676 7.3 3.374 3.986 8.847 8.687 17.21 11.546a.549.549 0 00.353-1.038c-8.15-2.788-13.452-7.351-16.726-11.216a32.245 32.245 0 01-3.48-4.96 22.396 22.396 0 01-.778-1.5 14.576 14.576 0 01-.18-.4l-.042-.102-.012-.03a.547.547 0 10-1.02.4" fill="#fff"/><path d="M854.207 506.067l.024-60.938c0-29.739 11.236-40.745 29.971-33.91l7.741 2.056c22.613 12.182 34.098 11.572 30.053 35.502l-3.799 58.96c0 27.005-65.431 30.078-63.99-1.67" fill="#aebae4"/><path d="M891.672 413.505l-7.74-2.055c-7.764-2.832-14.235-2.59-19.156.766l4.854 1.29c22.613 12.181 34.097 11.57 30.053 35.502l-3.799 58.96c0 10.514-2.232 20.46-2.232 20.46 13.05-2.197 24.275-9.275 24.275-20.46l3.799-58.96c4.044-23.932-7.44-23.32-30.054-35.503" fill="#9ba1d8"/><path d="M894.834 402.14a3.804 3.804 0 11-7.608 0 3.804 3.804 0 017.608 0" fill="#cdd3ef"/><path d="M848.631 488.82l-49.442-28.546 49.134-28.367 49.928 28.486-49.62 28.426" fill="#bb7989"/><path d="M835.891 481.4l-49.441-28.545 49.133-28.366 49.929 28.486L835.89 481.4" fill="#bb7989"/><path d="M848.631 488.82l.073-.042-.939 56.908-48.503-28.668v-56.702l49.37 28.503" fill="#8f5d69"/><path d="M835.82 481.36l.071-.043v56.786l-49.441-28.545v-56.703l49.37 28.505" fill="#8f5d69"/><path d="M848.631 488.82l49.62-28.427v55.028l-50.486 30.265.866-56.867" fill="#6e4951"/><path d="M897.334 418.171c-4.849 2.798-12.731 2.785-17.61-.032-4.877-2.816-4.902-7.368-.054-10.166 4.847-2.798 12.73-2.785 17.608.032 4.878 2.816 4.903 7.367.056 10.166" fill="#4a5db4"/><path d="M897.334 422.17c-4.849 2.798-12.731 2.784-17.61-.032-4.877-2.816-4.902-7.367-.054-10.167 4.847-2.798 12.73-2.784 17.608.033 4.878 2.815 4.903 7.367.056 10.166" fill="#4a5db4"/><path d="M888.678 400.785l-22.418-12.98v15.81c0 1.77.945 3.406 2.478 4.291l16.971 9.798a6 6 0 006 0l17.379-10.033a4.141 4.141 0 002.07-3.586v-16.28l-22.48 12.98" fill="#9ba1d8"/><path d="M888.71 407.297l-22.45-4.39-.158-27.242 22.607 12.997v18.635" fill="#aebae4"/><path d="M911.158 394.335l-22.449 12.962-.063-18.635 22.512-12.997v18.67" fill="#9ba1d8"/><path d="M886.462 388.322l-19.639-11.339a1.444 1.444 0 010-2.5l20.082-11.594a3.47 3.47 0 013.464 0l20.082 11.595a1.443 1.443 0 010 2.499l-19.638 11.339a4.354 4.354 0 01-4.35 0" fill="#cdd3ef"/><path d="M888.71 418.508c-.99.03-2.087-.25-3.35-1.005l-16.622-9.597a4.955 4.955 0 01-2.478-4.29v-15.811l22.45 12.998v17.705" fill="#aebae4"/><path d="M883.84 401.707l-12.71-7.337c-2.002-1.156-3.64-4.286-3.64-6.956 0-2.668 1.638-3.907 3.64-2.751L883.84 392c2 1.157 3.638 4.286 3.638 6.955 0 2.67-1.637 3.908-3.639 2.752M885.842 450.224l-18.21-10.514c-2.868-1.656-4.437-5.837-3.486-9.292.952-3.454 4.077-4.925 6.945-3.269l18.21 10.512c2.869 1.657 4.438 5.839 3.486 9.292-.952 3.455-4.077 4.927-6.945 3.271M893.2 402.411c0 5.059 3.574 7.097 7.982 4.552 4.41-2.546 7.984-8.71 7.984-13.769 0-5.06-3.574-7.097-7.984-4.552-4.408 2.546-7.982 8.71-7.982 13.77" fill="#4a5db4"/><path d="M896.357 401.617c-.001 3.617 2.553 5.074 5.706 3.252 3.153-1.82 5.71-6.23 5.71-9.849.001-3.619-2.555-5.075-5.707-3.254-3.153 1.822-5.71 6.231-5.71 9.85M901.72 450.639c1.148 6.047 6.313 8.503 11.533 5.485 5.222-3.018 8.523-10.365 7.373-16.413-1.15-6.048-6.314-8.504-11.534-5.487-5.222 3.018-8.523 10.367-7.373 16.415M892.018 545.962c1.28 6.72 7.02 9.45 12.821 6.098 5.803-3.353 9.47-11.518 8.192-18.239-1.279-6.72-7.02-9.45-12.822-6.098-5.802 3.352-9.468 11.518-8.19 18.239" fill="#556abc"/><path d="M900.654 399.638c.001 1.451 1.028 2.036 2.292 1.307 1.265-.73 2.29-2.496 2.288-3.947 0-1.452-1.027-2.036-2.292-1.307-1.264.729-2.289 2.496-2.288 3.947" fill="#4a5db4"/><path d="M893.86 378.613c-2.36 1.313-6.2 1.306-8.576-.014-2.375-1.32-2.388-3.454-.027-4.765 2.362-1.314 6.201-1.307 8.576.013 2.375 1.32 2.388 3.454.027 4.766" fill="#4948a6"/><path d="M895.623 376.325h-12.128v-2.152h12.128v2.152" fill="#4948a6"/><path d="M893.86 376.564c-2.36 1.312-6.2 1.306-8.576-.014-2.375-1.32-2.388-3.454-.027-4.767 2.362-1.312 6.201-1.306 8.576.014 2.375 1.32 2.388 3.454.027 4.767" fill="#9ba1d8"/><path d="M900.461 361.77c0-5.327-4.88-9.645-10.902-9.645-6.021 0-10.903 4.318-10.903 9.644 0 2.916 1.463 5.53 3.777 7.297 1.265 1.34 1.843 2.988 2.107 4.18.256 1.154 1.118 2.089 2.278 2.473 1.878.621 3.69.697 5.42.07a3.325 3.325 0 002.134-2.422c.237-1.114.793-2.72 2.095-4.098l.101-.115c2.38-1.77 3.893-4.42 3.893-7.385" fill="#fac308"/><path d="M892.126 374.56c-1.468.816-3.854.813-5.33-.009-1.478-.82-1.484-2.146-.018-2.962 1.468-.815 3.854-.812 5.33.01 1.477.82 1.485 2.145.018 2.961" fill="#eaa111"/><path d="M886.847 361.342c-.18 0-.381.047-.606.139-.518.213-.576.674-.535 1.023.103.859.956 2.086 2.396 2.833v-1.84c-.012-.438-.178-1.646-.798-2.03a.857.857 0 00-.457-.125m3.568 4.633c1.584.081 2.527-.68 2.743-1.46.188-.678-.161-1.292-.908-1.604-.313-.131-.571-.132-.788-.005-.38.223-.855.943-1.047 3.069m-.317 7.889a.278.278 0 01-.283-.273l-.001-7.13-.098-.016a6.38 6.38 0 01-1.048-.273v6.796c0 .15-.127.273-.283.273a.278.278 0 01-.283-.273v-7.025a6.147 6.147 0 01-1.58-1.044c-.785-.718-1.287-1.568-1.378-2.333-.09-.744.23-1.322.874-1.587.617-.254 1.152-.244 1.593.03 1 .62 1.055 2.401 1.057 2.477v2.106a5.88 5.88 0 001.147.316l.038.006c.174-1.918.606-3.056 1.313-3.472.38-.226.821-.236 1.31-.032 1.007.42 1.49 1.302 1.229 2.244-.26.945-1.318 1.871-3.061 1.871-.086 0-.174 0-.264-.006v7.072c0 .15-.126.273-.283.273" fill="#eaa111"/><path d="M883.524 363.896c-1.303 0-2.264-1.06-2.264-2.66 0-1.896 1.353-3.832 3.023-4.322.262-.077.517-.114.76-.114 1.302 0 2.263 1.06 2.263 2.66 0 .455-.079.914-.22 1.354a1.506 1.506 0 00-.236-.017c-.257 0-.534.06-.832.183-.643.265-.963.843-.874 1.586.026.227.09.461.185.696-.326.233-.678.411-1.046.52a2.722 2.722 0 01-.759.114m2.268-1.016a1.98 1.98 0 01-.086-.376c-.04-.35.017-.81.535-1.023.225-.092.426-.139.606-.139h.034a4.981 4.981 0 01-1.089 1.538" fill="#fbe465"/><path d="M885.33 363.262a2.662 2.662 0 01-.186-.696c-.09-.743.23-1.321.874-1.586.298-.123.575-.183.832-.183.081 0 .16.006.235.017-.058.18-.126.356-.204.528h-.034c-.18 0-.381.047-.606.139-.518.213-.576.674-.535 1.023a2 2 0 00.086.377c-.147.139-.302.266-.463.381" fill="#f5d17a"/><path d="M873.366 390.943c0 1.138-.692 1.662-1.545 1.17-.853-.493-1.545-1.815-1.545-2.953s.692-1.662 1.545-1.17c.853.493 1.545 1.815 1.545 2.953M883.495 396.448c0 1.138-.692 1.662-1.545 1.17-.853-.493-1.544-1.815-1.544-2.953 0-1.139.691-1.662 1.544-1.169.853.492 1.545 1.814 1.545 2.952" fill="#fff"/><path d="M914.696 407.041l-12.63-7.292c-.694-.4.929-2.824 1.623-2.424l11.007 6.355c.692.4 1.26 1.485 1.26 2.408 0 .925-.568 1.354-1.26.953" fill="#4a5db4"/><path d="M917.382 405.02a3.588 3.588 0 11-7.176 0 3.588 3.588 0 017.176 0" fill="#4a5db4"/><path d="M883.482 518.793c.157-.087 7.226-3.767 14.927-10.05 3.85-3.147 7.868-6.947 11.254-11.362 3.376-4.414 6.158-9.474 7.286-15.162 1.356-6.883 1.777-13.838 1.779-19.974-.003-11.14-1.401-19.587-1.424-19.735a4.231 4.231 0 00-8.347 1.38l.001.01c.058.347 1.31 8.24 1.309 18.346 0 5.74-.406 12.195-1.62 18.336-.776 3.972-2.856 7.947-5.7 11.653-4.25 5.562-10.15 10.42-14.965 13.796a93.628 93.628 0 01-6.055 3.923 70.606 70.606 0 01-2.227 1.267l-.108.058-.022.013a4.23 4.23 0 103.912 7.502" fill="#3d51ab"/><path d="M874.637 527.537l4.43-2.743c3.402-2.105 4.926-7.308 3.39-11.558-1.54-4.251-5.583-6.006-8.986-3.899l-4.43 2.743c-3.402 2.106-4.927 7.308-3.389 11.558 1.538 4.251 5.581 6.006 8.985 3.899" fill="#aebae4"/><path d="M898.97 536.535c-.181.307-3.265 5.553-6.33 14.555-3.06 9-6.107 21.776-6.11 37.088 0 4.064.216 8.305.704 12.698 1.009 9.082 2.367 16.593 3.869 22.935 2.246 9.506 4.836 16.403 6.873 21.771 1.018 2.682 1.887 4.97 2.525 6.99.64 2.022 1.05 3.76 1.244 5.466a6.58 6.58 0 1013.077-1.482c-.425-3.743-1.437-7.124-2.624-10.485-1.794-5.055-4.004-10.197-6.166-17.379-2.157-7.17-4.283-16.385-5.716-29.269a101.76 101.76 0 01-.624-11.245c0-13.553 2.71-24.922 5.409-32.848 1.348-3.961 2.69-7.06 3.673-9.128.491-1.034.894-1.811 1.16-2.31.135-.25.235-.43.296-.538l.062-.108.008-.013-2.91-1.706 2.9 1.72.01-.014-2.91-1.706 2.9 1.72a6.58 6.58 0 10-11.32-6.713" fill="#3d51ab"/><path d="M853.432 597.156c-3.361 0-6.111-2.751-6.111-6.113v-23.819c0-3.361 2.75-6.112 6.111-6.112 3.363 0 6.113 2.75 6.113 6.112v23.819c0 3.362-2.75 6.113-6.113 6.113M887.537 612.25c-3.362 0-6.113-2.75-6.113-6.113V582.32c0-3.362 2.75-6.114 6.113-6.114 3.362 0 6.112 2.752 6.112 6.114v23.818c0 3.362-2.75 6.113-6.112 6.113M917.98 485.943a6.822 6.822 0 11-13.644 0 6.822 6.822 0 0113.644 0" fill="#aebae4"/><path d="M244.898 195.576c-15.96 0-32.209-3.716-46.749-12.11-30.935-17.86-25.332-41.933 1.955-57.687 13.892-8.02 30.866-11.207 44.587-11.686l.564 15.22c-.72.05-1.364.072-1.944.072-2.274 0-3.555-.338-4.46-.674-.905-.337-1.433-.673-2.205-.673-.928 0-2.205.487-4.91 2.047-14.718 8.499-14.353 29.737-9.332 38.55 5.005 8.779 13.89 11.966 23.582 11.966 11.563 0 24.275-4.536 32.911-9.522 8.335-4.813 11.522-10.693 12.18-16.304l-19.362 5.047-36.166-15.927 35.261-35.555-18.533-10.7 30.204-17.438 31.457-7.31 73.673 77.579-41.954 1.082-13.132-7.581-38.198 9.956 22.912.14c.093 10.366-7.089 19.97-21.145 28.085-14.639 8.45-32.725 13.423-51.196 13.423" fill="#b4c3e8"/><path d="M235.375 184.215c-30.935-17.861-25.332-41.934 1.954-57.688 13.892-8.02 30.867-11.205 44.589-11.686l.563 15.22c-9.755.671-18.693 2.194-26.466 6.681-14.718 8.498-15.145 21.81 3.617 32.642 19.191 11.08 40.615 11.609 56.49 2.443 8.766-5.06 11.845-11.303 12.267-17.17l26.076.16c.092 10.365-7.088 19.968-21.145 28.084-27.287 15.755-66.58 19.422-97.945 1.314" fill="#4257af"/><path d="M282.481 104.564v25.498l-51.766 9.225-16.287 17.263v-26.465l35.396-28.149 32.657 2.628M354.465 154.818v-25.499l-31.388 22.983-53.274 13.043-32.139-13.043 9.265 21.439 33.007 13.898s35.351-11.871 37.219-12.74c1.869-.868 37.31-20.081 37.31-20.081" fill="#4257af"/><path d="M294.232 96.557V71.06l117.69 39.877v25.498l-24.31 14.035-93.38-53.913" fill="#4257af"/><path d="M235.375 158.717c-30.935-17.861-25.332-41.933 1.954-57.688 13.892-8.02 30.867-11.205 44.589-11.685l.563 15.22c-9.755.67-18.693 2.193-26.466 6.68-14.718 8.498-15.145 21.81 3.617 32.642 19.191 11.08 40.615 11.61 56.49 2.443 8.766-5.06 11.845-11.303 12.267-17.169l26.076.159c.092 10.366-7.088 19.969-21.145 28.085-27.287 15.754-66.58 19.421-97.945 1.313M294.232 71.06l24.31-14.035 93.38 53.912-24.31 14.036-93.38-53.913" fill="#556abc"/><path d="M227.935 449.837l-79.074-44.62c-4.405-2.485-7.947-9.075-7.913-14.719l.983-161.991c.034-5.644 3.632-8.204 8.037-5.72l79.074 44.62c4.405 2.485 7.947 9.075 7.913 14.72l-.983 161.99c-.035 5.644-3.633 8.204-8.037 5.72" fill="#29409e"/><path d="M236.865 301.04l.115-18.914c.035-5.644-3.509-12.234-7.913-14.72l-79.074-44.619c-4.404-2.484-8.003.076-8.037 5.72l-.115 18.915 95.024 53.618" fill="#2a3983"/><path d="M176.574 278.47l-10.18-5.744-.142-.062-8.908-5.027c-2.065-1.165-3.752.036-3.768 2.682-.016 2.647 1.644 5.737 3.71 6.902l10.18 5.745.142.06 8.908 5.027c2.065 1.165 3.753-.035 3.769-2.682.016-2.646-1.645-5.735-3.71-6.901M174.552 395.403l-10.18-5.744-.142-.062-8.909-5.026c-2.065-1.166-3.752.035-3.768 2.68-.016 2.648 1.645 5.738 3.71 6.903l10.18 5.743.142.063 8.909 5.027c2.065 1.165 3.752-.037 3.768-2.682.016-2.647-1.645-5.738-3.71-6.902" fill="#66cdda"/><path d="M181.285 313.343l-15.348-8.66c-1.634-.921-2.948-3.366-2.936-5.46.014-2.095 1.348-3.044 2.982-2.122l15.348 8.66c1.634.922 2.949 3.367 2.936 5.46-.014 2.094-1.348 3.045-2.982 2.122M206.84 328.268l-15.348-8.66c-1.634-.923-2.948-3.367-2.936-5.462.014-2.093 1.348-3.044 2.982-2.122l15.348 8.66c1.634.923 2.948 3.367 2.936 5.462-.013 2.093-1.348 3.044-2.982 2.122M195.486 389.499l-15.348-8.66c-1.635-.922-2.949-3.367-2.936-5.46.013-2.094 1.347-3.045 2.981-2.123l15.348 8.66c1.634.923 2.949 3.367 2.937 5.46-.014 2.095-1.348 3.045-2.982 2.123" fill="#fff"/><path d="M193.233 364.078l-15.348-8.66c-1.634-.922-2.948-3.367-2.936-5.461.014-2.094 1.348-3.043 2.982-2.121l15.348 8.66c1.634.922 2.949 3.366 2.936 5.46-.013 2.094-1.347 3.043-2.982 2.122M206.46 350.244l-28.21-15.917c-1.634-.922-2.948-3.367-2.936-5.46.014-2.094 1.348-3.045 2.982-2.122l28.21 15.918c1.634.92 2.948 3.366 2.935 5.46-.013 2.093-1.347 3.043-2.98 2.121" fill="#9ba1d8"/><path d="M180.504 381.026l-15.348-8.66c-1.634-.923-2.948-3.368-2.935-5.46.013-2.095 1.348-3.046 2.981-2.124l15.349 8.66c1.634.923 2.947 3.368 2.935 5.46-.013 2.095-1.348 3.046-2.982 2.124" fill="#fff"/><path d="M225.254 355.507c-.476-1.88-1.13-2.768-2.477-3.528l-7.344-4.143c-1.634-.922-2.968.027-2.982 2.12-.013 2.095 1.302 4.54 2.936 5.462l7.61 4.293c3.115 2.23 2.72-2.558 2.257-4.204" fill="#9ba1d8"/><path d="M159.303 241.766c-.051 2.92-2.205 4.094-4.812 2.623-2.605-1.472-4.677-5.032-4.625-7.952.05-2.92 2.205-4.094 4.811-2.623 2.606 1.472 4.677 5.032 4.626 7.952M185.537 257.222c-.052 2.92-2.206 4.094-4.812 2.623-2.606-1.473-4.677-5.033-4.625-7.953.051-2.92 2.205-4.094 4.811-2.623 2.606 1.473 4.677 5.033 4.626 7.953M172.183 249.603c-.051 2.92-2.205 4.094-4.811 2.623-2.606-1.472-4.677-5.032-4.626-7.952.051-2.92 2.206-4.095 4.812-2.623 2.606 1.472 4.677 5.032 4.625 7.952" fill="#e7cd2f"/><path d="M298.8 71.638l88.576 51.015a.47.47 0 00.47-.815l-88.577-51.014a.47.47 0 10-.47.814M217.63 126.157c-.014.037-.606 1.78-.606 4.602-.003 3.747 1.055 9.408 5.892 15.44 4.836 6.034 13.425 12.43 28.45 17.744 10.141 3.586 20.156 4.94 29.495 4.94 28.827-.006 51.216-12.873 51.256-12.892a.47.47 0 00-.468-.815l-.251.14c-2.52 1.39-23.776 12.63-50.537 12.626-9.249 0-19.155-1.34-29.18-4.885-14.912-5.273-23.336-11.585-28.031-17.445-4.695-5.862-5.684-11.278-5.686-14.853 0-1.345.141-2.428.282-3.17a11.49 11.49 0 01.252-1.063l.017-.05.004-.014a.47.47 0 00-.89-.306" fill="#fff"/><path d="M295.732 536.058V272.03" fill="#838ccf"/><path d="M816.188 436.235l59.809 37.165a.47.47 0 10.496-.8l-59.808-37.164a.47.47 0 00-.497.8" fill="#6e4951"/><path d="M833.505 460.828c-4.968-2.869-4.943-7.534.056-10.42 5-2.886 13.08-2.9 18.047-.032 4.968 2.869 4.944 7.533-.056 10.42-5 2.886-13.08 2.9-18.047.032zm-9.99 5.173l1.03.595c2.002 1.155 5.259 1.149 7.272-.014 1.78-1.028 4.81-.307 4.802 1.141-.01 1.64 2.285 2.964 5.126 2.959l1.462-.002c2.839-.005 5.148-1.337 5.157-2.978.008-1.448 3.045-2.179 4.814-1.158 2.001 1.156 5.257 1.15 7.27-.013l1.037-.598c2.015-1.164 2.025-3.043.023-4.199-1.768-1.02-.502-2.774 2.006-2.779h.001c2.84-.005 5.15-1.338 5.158-2.978l.005-.844c.01-1.64-2.285-2.964-5.126-2.96-2.509.006-3.755-1.744-1.976-2.771 2.014-1.163 2.024-3.043.023-4.199l-1.03-.595c-2.003-1.155-5.258-1.15-7.272.014-1.78 1.027-4.809.308-4.8-1.14.009-1.64-2.287-2.966-5.127-2.961l-1.46.002c-2.842.006-5.15 1.34-5.16 2.979-.007 1.448-3.044 2.18-4.813 1.159-2.002-1.156-5.257-1.15-7.272.013l-1.037.599c-2.014 1.163-2.024 3.042-.023 4.199 1.77 1.02.503 2.774-2.006 2.778-2.839.006-5.148 1.34-5.157 2.979l-.006.843c-.009 1.64 2.287 2.965 5.126 2.96 2.509-.005 3.756 1.744 1.977 2.772-2.015 1.162-2.026 3.042-.024 4.198" fill="#fff"/><path d="M848.161 488.813l-.851 55.976a.47.47 0 10.94.014l.851-55.976a.47.47 0 00-.94-.014" fill="#5c3d44"/><path d="M787.792 456.895l55.744 32.331a.471.471 0 00.472-.813l-55.744-32.331a.47.47 0 00-.472.813" fill="#bb7989"/><path d="M850.974 491.578l45.043-25.909a.471.471 0 00-.47-.815l-45.042 25.909a.47.47 0 00.47.815" fill="#8f5d69"/><path d="M909.548 445.75l-.009-.03a8.118 8.118 0 01-.224-1.882c0-1.001.205-2.176.922-3.072.715-.893 1.95-1.596 4.26-1.61a.47.47 0 00-.003-.94c-2.495.001-4.085.814-4.993 1.964-.908 1.147-1.125 2.54-1.126 3.658.001 1.22.26 2.14.267 2.167a.47.47 0 10.906-.255M898.43 538.317l.023-.043c.122-.228.738-1.325 1.71-2.34.972-1.02 2.276-1.925 3.753-1.92.232 0 .471.022.718.07a.47.47 0 00.176-.924 4.656 4.656 0 00-.894-.086c-.994 0-1.895.318-2.67.778-2.317 1.387-3.628 4.005-3.653 4.037a.47.47 0 10.838.428M864.647 434.783l-.01-.04a11.393 11.393 0 01-.24-2.324c-.001-1.072.167-2.319.724-3.33.561-1.012 1.463-1.817 3.106-2.12l.073-.02-.085-.24.075.244.01-.004-.085-.24.076.244s.116-.037.364-.038c.443.001 1.303.122 2.583.861l5.317 3.07 3.673 2.12a.47.47 0 00.47-.814l-8.99-5.19c-1.399-.808-2.431-.987-3.053-.987-.395 0-.622.071-.668.088l.157.443-.084-.462c-1.894.333-3.101 1.367-3.763 2.593-.667 1.225-.837 2.617-.84 3.781.002 1.452.272 2.564.277 2.587a.47.47 0 00.914-.222M887.45 424.7c.01 0 .277.016.737.016 1.075 0 3.195-.086 5.496-.674 2.299-.588 4.795-1.678 6.573-3.732a.47.47 0 10-.71-.615c-1.592 1.845-3.905 2.878-6.096 3.436-2.188.56-4.24.645-5.263.645-.22 0-.39-.004-.507-.008-.117-.004-.172-.008-.173-.008a.47.47 0 00-.057.938M901.574 400.75l-.075.05.076-.049h-.001l-.075.049.076-.049a2.672 2.672 0 01-.346-1.349c.006-.844.344-2.016 2.005-3.342a.47.47 0 00-.584-.737c-1.837 1.446-2.369 2.95-2.361 4.08 0 1.114.475 1.825.504 1.87a.47.47 0 10.78-.523M903.139 439.983c-.01.032-2.038 4.263-2.044 8.763 0 1.502.228 3.04.855 4.457.626 1.418 1.658 2.71 3.22 3.685a.47.47 0 00.498-.798c-1.403-.879-2.298-2.004-2.858-3.267s-.776-2.67-.775-4.077c0-2.108.486-4.21.978-5.775a24.818 24.818 0 01.894-2.407l.08-.176a.47.47 0 10-.848-.405M886.432 679.643c.015.002.556.068 1.392.068 1.483-.002 3.902-.2 5.985-1.386 3.072-1.76 22.975-13.353 22.976-13.353a.47.47 0 00-.472-.812c-.004.001-1.245.724-3.16 1.839-5.74 3.343-17.515 10.195-19.811 11.51-1.839 1.057-4.122 1.265-5.518 1.262a13.95 13.95 0 01-1.194-.052l-.082-.009a.471.471 0 00-.115.934M855.077 661.587c.015.001.554.068 1.391.068 1.484-.003 3.902-.2 5.986-1.387 3.072-1.76 22.974-13.352 22.975-13.352a.47.47 0 10-.473-.813l-3.158 1.84c-5.74 3.342-17.516 10.195-19.812 11.509-1.838 1.057-4.121 1.265-5.518 1.262a13.973 13.973 0 01-1.194-.051l-.083-.01a.47.47 0 00-.114.934" fill="#4843a2"/><path d="M670.808 505.135l39.76-23.995a.47.47 0 00-.486-.804l-39.76 23.994a.47.47 0 10.486.805M524.441 420.331l39.76-23.994a.472.472 0 00-.486-.806l-39.759 23.996a.47.47 0 10.485.804" fill="#5c3d44"/><path d="M296.757 279.87l228.999-131.393a.94.94 0 10-.936-1.63L295.822 278.24a.94.94 0 00.935 1.63" fill="#cfd6f0"/><path d="M336.3 298.686l1.269 95.93a.47.47 0 00.94-.012l-1.27-95.931a.47.47 0 00-.94.013" fill="#302f8e"/><path d="M288.168 277.846V522.13a.47.47 0 10.94 0V277.846a.47.47 0 00-.94 0" fill="#707ac5"/><path d="M614.744 605.06h-.47c0 2.089-.523 3.688-1.374 4.746-.854 1.056-2.023 1.61-3.478 1.615-1.2 0-2.595-.394-4.1-1.263-2.571-1.483-4.943-4.06-6.655-7.016-1.714-2.954-2.767-6.283-2.765-9.232 0-2.089.524-3.687 1.374-4.745.854-1.056 2.024-1.61 3.479-1.615 1.2-.001 2.594.393 4.098 1.262 2.573 1.484 4.945 4.061 6.656 7.016 1.714 2.954 2.767 6.283 2.765 9.232h.94c-.002-3.17-1.11-6.629-2.891-9.703-1.784-3.073-4.24-5.763-7-7.36-1.613-.93-3.162-1.388-4.568-1.388-1.703-.005-3.194.691-4.212 1.968-1.022 1.275-1.58 3.092-1.581 5.333.002 3.17 1.111 6.63 2.892 9.704 1.783 3.072 4.24 5.763 6.999 7.358 1.613.931 3.162 1.389 4.569 1.389 1.702.005 3.193-.69 4.211-1.967 1.021-1.275 1.58-3.092 1.58-5.334h-.47" fill="#4446a4"/><path d="M610.25 602.466h-.47c0 1.081-.271 1.885-.686 2.4-.418.514-.969.777-1.689.782-.593 0-1.304-.197-2.082-.646-1.331-.767-2.58-2.12-3.479-3.671-.9-1.552-1.45-3.301-1.448-4.827 0-1.081.271-1.884.686-2.4.418-.513.97-.777 1.688-.781.595-.001 1.304.196 2.083.646 1.332.767 2.58 2.119 3.479 3.67.9 1.552 1.45 3.301 1.449 4.827h.94c-.003-1.747-.608-3.626-1.576-5.297-.97-1.67-2.303-3.135-3.822-4.015-.888-.512-1.752-.77-2.553-.771-.967-.006-1.839.4-2.421 1.133-.586.732-.893 1.755-.893 2.988 0 1.747.608 3.626 1.575 5.298.97 1.67 2.303 3.134 3.822 4.014.888.512 1.752.77 2.552.772.967.005 1.84-.4 2.423-1.134.585-.732.892-1.754.893-2.988h-.47M477.052 523.287h-.47c0 1.083-.272 1.886-.687 2.401-.417.514-.968.777-1.688.782-.594 0-1.304-.196-2.083-.646-1.332-.766-2.58-2.118-3.479-3.671-.9-1.551-1.45-3.301-1.449-4.826 0-1.082.272-1.885.687-2.4.418-.514.969-.777 1.689-.783.594 0 1.304.196 2.082.647 1.332.766 2.58 2.118 3.479 3.67.901 1.552 1.45 3.302 1.448 4.826h.94c0-1.745-.608-3.625-1.575-5.296-.97-1.67-2.302-3.135-3.822-4.014-.888-.513-1.752-.772-2.552-.772-.967-.006-1.839.4-2.422 1.134-.586.731-.894 1.754-.894 2.988.002 1.746.608 3.626 1.576 5.298.97 1.67 2.303 3.134 3.822 4.013.888.512 1.753.772 2.553.772.967.005 1.839-.4 2.421-1.134.586-.731.894-1.754.894-2.989h-.47" fill="#4446a4"/><path d="M481.544 526.02h-.47c.001 2.088-.522 3.687-1.373 4.744-.854 1.057-2.023 1.611-3.478 1.616-1.2 0-2.595-.395-4.099-1.263-2.573-1.483-4.945-4.06-6.656-7.015-1.714-2.954-2.766-6.283-2.764-9.233 0-2.09.523-3.687 1.373-4.745.854-1.057 2.023-1.611 3.478-1.616 1.2 0 2.595.395 4.1 1.264 2.572 1.483 4.943 4.06 6.655 7.016 1.714 2.952 2.767 6.281 2.764 9.231h.94c0-3.17-1.11-6.63-2.89-9.703-1.784-3.073-4.24-5.763-7-7.359-1.613-.931-3.162-1.388-4.57-1.39-1.701-.004-3.192.692-4.21 1.969-1.021 1.274-1.58 3.092-1.58 5.333 0 3.17 1.11 6.63 2.89 9.704 1.784 3.073 4.24 5.762 7 7.358 1.614.931 3.163 1.388 4.57 1.39 1.7.005 3.192-.692 4.21-1.968 1.022-1.275 1.58-3.092 1.58-5.334h-.47" fill="#4446a4"/><path d="M330.647 418.471l314.797 186.571.24-.404.178-.435a.79.79 0 00-.291-.053c-.225-.004-.545.099-.822.376-.42.418-.801 1.167-1.108 2.656-.305 1.492-.523 3.739-.523 7.17v23.64a.47.47 0 00.94 0v-23.64c-.001-4.52.39-6.917.804-8.124.204-.605.413-.903.544-1.03l.136-.099.029-.009v-.18l-.067.162.067.018v-.18l-.067.162a.47.47 0 00.418-.84l-314.795-186.57a.47.47 0 00-.48.809" fill="#4446a4"/><path d="M373.039 572.384l10.243-1.286c6.856-3.107 10.06-5.44 13.114-3.678l.865.5c3.053 1.762 2.667 4.87-.859 6.905l-15.061 11.967c-3.525 2.036-8.275 1.394-11.089-1.076 0 0-1.685-1.52-.48-7.922.687-3.65.446-3.782 3.267-5.41M417.788 593.596l9.404 4.358c7.593 1.084 11.65.87 13.213 3.92l.443.865c1.563 3.05-.559 5.384-4.716 5.185l-19.648 1.816c-4.157-.2-7.417-1.935-7.318-5.628 0 0-1.418-6.22 2.733-7.824 3.554-1.374 2.564-2.852 5.889-2.692" fill="#2a3c90"/><path d="M421.148 597.905c0 4.754-11.564 4.754-11.564 0v-15.453h11.564v15.453M381.78 575.055c-.263 4.304-11.828 4.304-11.564 0l.856-13.994h11.565l-.856 13.994" fill="#ccd2ee"/><path d="M384.048 568.839c-4.62 4.753-13.708 2.724-15.458-.71l6.831-139.285 28.36 4.2-19.733 135.795" fill="#2b378a"/><path d="M449.618 361.358c.377 3.187 3.293 5.486 6.48 5.108l8.42-.998c3.187-.377 5.485-3.294 5.108-6.48-.378-3.187-3.295-5.484-6.48-5.107l-8.421.998c-3.186.378-5.485 3.294-5.107 6.48" fill="#fab6a9"/><path d="M457.82 366.206s-42.785 25.387-62.972-9.067c-9.513-16.237-2.522-19.684-2.522-19.684l12.042 14.352s1.938-10.27 10.935 2.423c9.399 13.258 38.05 1.196 38.05 1.196l4.467 10.78M482.979 397.504c2.215 2.32 5.926 2.41 8.248.195l6.136-5.852c2.323-2.216 2.41-5.927.195-8.248v-.001c-2.215-2.322-5.927-2.41-8.25-.195l-6.135 5.851c-2.322 2.215-2.409 5.927-.194 8.25" fill="#fab6a9"/><path d="M491.227 397.7s-43.073 46.037-57.117 8.657c-14.045-37.38-18.043-48.474-18.043-48.474l24.79 5.632s2.77 28.866 13.708 39.932c5.263 5.324 27.594-12.896 27.594-12.896l9.068 7.148" fill="#fab6a9"/><path d="M422.606 588.14c-3.799 5.39-12.074 5.424-14.415 1.531l-11.358-125.876c-10.34-3.395-23.392-6.47-21.83-26.44l54.838-8.474-7.235 159.259" fill="#38409f"/><path d="M354.775 389.243v-82.386l48.712-28.125a.47.47 0 00-.47-.814l-48.947 28.26a.469.469 0 00-.235.407v82.658a.47.47 0 10.94 0" fill="#aebae4"/><g clip-path="url(#i)" transform="matrix(.09401 0 0 -.09401 107.75 808)"><path d="M5723.98 2865.47a5 5 0 00-4.33 2.5 4.99 4.99 0 000 5l4.33-2.5 692.46 399.79v5c1.73 0 3.4-.89 4.33-2.5 1.38-2.39.56-5.45-1.83-6.83l-692.46-399.79a4.94 4.94 0 00-2.5-.67" fill="url(#j)"/></g><path d="M645.866 538.144l-.407-.235a.464.464 0 01.172-.172l.233-.135.001.542" fill="#5d3c56"/><path d="M645.866 538.144l-.001-.542 64.865-37.45a.463.463 0 01.234-.063h.001v.47l-65.099 37.585" fill="#483042"/><path d="M500.237 453.779l27.741-16.017a.47.47 0 10-.47-.814l-27.74 16.017a.47.47 0 00.47.814" fill="#31308c"/><path d="M521.017 655.134l10.173-1.278c6.81-3.085 9.991-5.402 13.024-3.652l.86.497c3.032 1.75 2.647 4.836-.854 6.858l-14.958 11.884c-3.502 2.022-8.22 1.383-11.014-1.07 0 0-1.673-1.51-.477-7.867.683-3.625.445-3.756 3.246-5.372" fill="#2a3c90"/><path d="M530.42 656.074c-.265 4.306-11.829 4.306-11.566 0l.857-13.993h11.565l-.856 13.993" fill="#ccd2ee"/><path d="M532.687 649.858c-4.62 4.754-13.709 2.724-15.458-.71l6.126-139.388 29.065 4.305-19.733 135.793" fill="#38409f"/><path d="M562.338 677.537l10.228 1.926c7.536-.866 11.33-2.117 13.717.516l.676.747c2.386 2.633 1.056 5.496-2.954 6.362l-18.144 6.836c-4.01.866-6.937-.597-8.876-3.835 0 0-1-5.687.55-8.369 1.872-3.241 1.596-3.491 4.803-4.183" fill="#2a3c90"/><path d="M569.787 678.924c0 4.755-11.566 4.755-11.566 0v-15.451h11.566v15.451" fill="#ccd2ee"/><path d="M571.244 669.16c-3.8 5.39-12.073 5.425-14.415 1.53l-12.724-123.044c-13.251-3.39-20.824-8.211-21.353-24.171L536.74 509.9h41.74l-7.236 159.26" fill="#414faa"/><path d="M598.256 442.379c.378 3.187 3.294 5.484 6.48 5.107l8.42-.998c3.188-.377 5.485-3.293 5.108-6.48-.378-3.186-3.294-5.485-6.48-5.107l-8.42.998c-3.187.379-5.485 3.294-5.108 6.48" fill="#fab6a9"/><path d="M606.457 447.225s-42.784 25.389-62.97-9.065c-9.514-16.239-2.522-19.685-2.522-19.685l12.042 14.352s1.938-10.27 10.935 2.422c9.397 13.258 38.05 1.197 38.05 1.197l4.465 10.78M572.67 408.425c-5.044 9.997-13.472 11.48-18.823 3.31-5.352-8.17-5.602-22.898-.558-32.896 5.044-9.998 13.525-7.451 18.823-3.31 7.696 6.015 5.603 22.898.559 32.896" fill="#fab6a9"/><path d="M584.453 407.186c-2.96 10.8-17.107 11.669-22.459 3.499s-5.601-22.897-.557-32.895c5.043-9.998 30.372-3.812 29.128 5.875-1.232 9.58-3.027 12.27-6.112 23.52" fill="#fab6a9"/><path d="M553.007 432.827l-1.086-.469c-3.666-1.581-5.371-5.874-3.79-9.54l8.92-20.671c1.58-3.666 5.874-5.372 9.54-3.79l1.086.469c3.666 1.58 5.37 5.874 3.789 9.54l-5.65 21.123c-1.582 3.666-9.144 4.919-12.81 3.338" fill="#fab6a9"/><path d="M548.029 400.704s-3.015 10.95 10.842 11.614c9.94.477 10.115-15.81 20.093-15.55 10.979.288 15.407-12.5 12.172-18.344-3.236-5.845-14.461-10.714-23.666-8.583-9.205 2.13-19.956-1.826-19.441 30.863" fill="#3c50ab"/><path d="M579.45 401.768a4.93 4.93 0 11-8.803-4.443 4.93 4.93 0 018.803 4.443" fill="#fab6a9"/><path d="M569.5 415.715l-.643-2.87s1.655 2.434 5.64 2.674c0 0-2.544.878-4.996.196" fill="#f18976"/><path d="M520.786 520.445c1.043-18.69 1.316-44.851 3.413-64.843 3.232-35.989 5.491-41.904 25.18-38.786l5.233 1.907a37.127 37.127 0 017.185 3.541c23.923 15.177 25.243 18.439 22.796 33.33-2.105 24.703-2.643 44.854-6.113 67.964-6.703 16.611-53.054 9.62-57.694-3.113" fill="#cdd3ef"/><path d="M631.618 478.522v.001c2.214 2.322 5.926 2.41 8.248.195l6.135-5.851c2.322-2.215 2.41-5.927.196-8.249-2.215-2.323-5.928-2.41-8.25-.195l-6.135 5.852c-2.322 2.214-2.41 5.925-.194 8.247" fill="#fab6a9"/><path d="M639.866 478.718s-43.073 46.04-57.117 8.658c-14.045-37.381-18.044-48.473-18.044-48.473l24.79 5.632s2.77 28.867 13.709 39.932c5.262 5.324 27.593-12.896 27.593-12.896l9.07 7.147" fill="#fab6a9"/><path d="M584.453 407.186s-3.702-.21-6.006-4.025c-1.077-1.782-3.636-1.832-4.707-.046-2.012 3.36-4.362 7.572-4.883 9.73-1.04 4.314-.762 9.291 3.407 9.877 4.168.586 10.914.535 12.19-15.536" fill="#4e63b8"/><path d="M572.593 429.417c19.762 5.335 17.17 14.33 27.79 42.826a5.986 5.986 0 01-1.819 6.734c-7.64 6.25-26.86 18.932-38.595-.03-14.902-24.083-1.093-46.416-1.093-46.416l13.717-3.114" fill="#cdd3ef"/><path d="M567.45 425.912s-7.357-9.791-20.043-9.386c3.82 2.933 14.587 7.242 20.043 9.386" fill="#9aa7dc"/><path d="M647.159 408.14l64.61 37.543a.469.469 0 10.471-.812l-64.61-37.545a.47.47 0 00-.472.813M501.967 323.736l64.61 37.545a.47.47 0 10.473-.813l-64.61-37.544a.47.47 0 00-.473.812" fill="#df8fa4"/><path d="M571.668 462.856l10.723 25.37-3.718 35.375c-1.653 4.188-5.706 6.788-11.484 8.246l4.479-68.99" fill="#a7b1e0"/><path d="M554.992 662.338l1.41 9.125s3.567 4.894 9.54 3.15c5.972-1.74 6.304-5.141 6.304-5.141v-8.13s-7.63 6.471-17.254.996M515.761 639.662l.182 9.252s3.144 5.418 9.875 4.661c6.73-.756 7.592-4.066 7.592-4.066l1.2-8.04s-9.227 5.164-18.849-1.807" fill="#495db4"/><path d="M520.808 514.05c.04.02 15.547 11.717 34.285 11.729 7.933.001 16.45-2.115 24.548-8.118a.469.469 0 10-.56-.755c-7.93 5.875-16.22 7.93-23.988 7.933-9.171 0-17.611-2.883-23.754-5.773a69.896 69.896 0 01-7.293-3.972 52.604 52.604 0 01-1.987-1.305c-.226-.158-.4-.281-.515-.364l-.171-.126a.47.47 0 00-.565.75" fill="#fff"/><path d="M672.005 244.87c3.457 4 6.581 9.069 9.79 13.806 2.42 3.573 3.437 8.232 5.081 12.422.906 2.31 2.154 4.6 3.724 6.265 2.67 2.83 3.847 7.267 3.22 11.54-.673 4.597-2.03 11.685-3.276 17.892-1.65 8.22-10.004 11.455-14.928 5.56a7.66 7.66 0 01-.92-1.358c-2.058-3.97-3.204-2.864-5.29-6.683-3.69-6.76-12.305-12.112-18.941-12.14-5.824-.025-11.055-3.087-15.918-6.904-3.66-2.872-7.239-9.528-7.847-14.817-.675-5.863-2.854-12.17-1.773-17.932 1.053-5.603 7.418-11.716 8.845-17.193.68-2.611 11.643-8.79 15.043-8.563 1.087.072-9.995 4.756-9.02 5.347l1.794 1.087c5.114 3.099 8.407-9.893 13.83-7.955 9.569 3.42 9.306 11.206 16.586 19.626" fill="#4e63b8"/><path d="M633.98 251.197l-1.433 17.044 45.42 46.128s11.993-10.603 0-34.023c-11.991-23.419-23.349-28.433-23.878-27.716-.53.716-20.109-1.433-20.109-1.433" fill="#2a3c90"/><path d="M598.266 296.4s16.797-23.916 27.421-32.458c0 0 7.894-6.325 12.4-2.685 4.504 3.64-11.892 24.77-11.892 24.77s-5.686 16.564-15.896 22.871c-9.813 6.062-12.033-12.497-12.033-12.497" fill="#50b9cd"/><path d="M622.508 341.834c-.794-10.079 3-17.199 2.756-28.978-.128-6.235-8.981-12.123-9.497-18.706-1.266-10.258 13.113-26.458 23.844-34.53l4.687 1.452a32.53 32.53 0 016.432 2.785c21.735 12.342 26.206 14.99 24.692 28.206-.247 6.84-3.876-.562-5.05 3.884-2.251 8.53-3.121 30.057-.028 45.597.625 3.136-.57 6.387-3.192 8.216-11.363 7.932-40.657 1.55-44.644-7.926" fill="#76d2e4"/><path d="M622.508 341.834c-.794-10.079 3-17.199 2.756-28.978 0 3.637 45.473 6.902 44.3 7.795-7.022 5.34-2.313 5.353.78 20.893.625 3.136-.57 6.387-3.192 8.216-11.363 7.932-40.657 1.55-44.644-7.926" fill="#50b9cd"/><path d="M643.502 260.244s1.923 3.528 3.235 4.3c1.313.773 20.66-6.362 19.82-21.987-.532-9.897-19.317-8.642-19.317-8.642l-3.738 26.33" fill="#2a3c90"/><path d="M649.272 273.816l-.781.1a4.85 4.85 0 01-5.412-4.181l-1.906-14.874a4.85 4.85 0 014.181-5.411l.78-.1a4.85 4.85 0 015.412 4.18l3.934 14.023c.338 2.638-3.57 5.924-6.208 6.263" fill="#fab6a9"/><path d="M642.1 263.533s6.342.395 10.725-5.516c0 0-4.372 9.116-10.192 9.675l-.532-4.16" fill="#f18976"/><path d="M651.538 347.37l-1.322-.513a4.749 4.749 0 00-6.126 2.702l-1.934 4.98a4.75 4.75 0 002.703 6.13l1.32.513a4.75 4.75 0 006.128-2.702l1.933-4.98a4.75 4.75 0 00-2.702-6.13" fill="#fab6a9"/><path d="M645.932 273.956l3.688 7.075s17.379-6.878 10.698-15.423l-6.4-3.623s3.895 6.921-7.986 11.97M642.1 263.533s.507 7.455 3.832 10.423l-6.45 2.967s-7.38-9.142-.612-19.28l3.23 5.89" fill="#fff"/><path d="M654.05 231.625c-2.429-4.29-6.138-5.313-9.576-3.243-3.373-1.713-7.445.06-10.449 5.164-4.182 7.107-4.698 17.941-1.155 24.198 2.476 4.373 2.59 6.979 10.626 6.173 5.705-1.378 8.998-2.821 12.08-8.06 4.182-7.106 2.019-17.974-1.526-24.232" fill="#fab6a9"/><path d="M649.758 236.048s-3.168 16.37 13.623 23.002c0 0 8.26-8.598.731-24.62-6.636-14.123-22.099-6.667-22.099-6.667l7.745 8.285" fill="#4e63b8"/><path d="M653.47 239.229c-2.166-4.158-6.424 5.461-22.455 2.76-4.383-.428-3.06-4.202.05-8.028 3.88-4.77 9.461-7.847 15.513-8.928l4.182-.747c7.505-.762 14.636 10.189 15.125 15.279l-4.864-.42c.49 5.09-2.462-.406-7.551.084" fill="#4e63b8"/><path d="M657.67 256.44a3.63 3.63 0 11-6.258-3.683 3.63 3.63 0 016.258 3.683" fill="#fab6a9"/><path d="M661.757 292.823c-.186 3.345-.372 6.514-.879 9.974-1.182 8.076-8.276 13.878-16.422 13.376-13.174-.812-20.785-8.736-21.926-10.007 4.28 4.815 2.754 12.845 2.754 12.845s6.234-1.41 11.46-1.097c4.632.28 16.433 4.34 19.048 5.256-2.345 11.934-1.902 24.081-1.902 24.081l19.263-20.754-11.396-33.674" fill="#50b9cd"/><path d="M622.53 306.166l-.149-.171s.05.06.15.17" fill="#46a4ba"/><path d="M651.613 353.346s30.894-19.447 26.193-28.326l-7.35-7.286s-.029 8.257-23.725 28.892l4.882 6.72" fill="#fab6a9"/><path d="M661.757 287.229l2.547 40.483c6.8-1.474 10.463.788 12.163 5.39 0 0 4.592.874 2.714-16.505-2.388-22.119-3.677-31.476-3.677-31.476l-13.747 2.108" fill="#76d2e4"/><path d="M601.825 320.365l4.77 3.323c2.33 1.624 5.162 1.625 6.295.001l.794-1.136c1.134-1.625.154-4.283-2.177-5.908l-4.77-3.323c-2.329-1.623-5.162-1.624-6.295-.001l-.794 1.136c-1.134 1.625-.155 4.284 2.177 5.908" fill="#fab6a9"/><path d="M643.117 316.872l.04-1.192-1.557.53-.298-.77-37.465-23.727c-.45-.285-1.267-.285-1.813 0l-16.912 8.862.012-.266-3.106 1.102-.052 1.265h.022c.033.126.124.243.277.34l38.986 24.691c.451.287 1.268.286 1.814 0l19.587-10.263c.297-.156.455-.367.465-.572" fill="#adc5e9"/><path d="M621.28 326.448l-38.987-24.691c-.451-.286-.373-.754.173-1.041l19.587-10.262c.546-.287 1.363-.287 1.814-.001l38.986 24.69c.451.286.373.755-.173 1.04l-19.587 10.264c-.547.285-1.363.286-1.814 0" fill="#e4edf6"/><path d="M624.617 311.71l-9.436-5.975c-.11-.07-.09-.183.042-.252l4.74-2.484c.133-.07.33-.07.439 0l9.436 5.976c.109.068.09.182-.042.252l-4.74 2.483c-.133.069-.33.069-.44 0" fill="#adc5e9"/><path d="M621.324 300.461c-.118-1.058-.89-2.336-1.725-2.857l-38.72-24.154c-.345-.215-.645-.265-.871-.177h-.002l-.006.003-.211.15-1.37 1.325 1.198-.057 2.77 24.516c.119 1.058.892 2.336 1.725 2.856l36.613 22.84 1.155 1.411.136.341c.752.195 2.62-1.02 2.62-1.02l-3.311-25.177" fill="#fff"/><path d="M621.365 327.635l-38.72-24.156c-.833-.52-1.606-1.799-1.726-2.856l-2.8-24.787c-.119-1.058.46-1.494 1.293-.974l38.72 24.155c.835.52 1.606 1.8 1.726 2.857l2.8 24.787c.12 1.058-.46 1.493-1.293.974" fill="#4e63b8"/><path d="M601.276 302.924c.148 1.316-1.05 1.56-2.678.545-1.628-1.015-3.068-2.905-3.217-4.223-.148-1.316 1.05-1.56 2.678-.545 1.628 1.015 3.068 2.906 3.217 4.223" fill="#fff"/><path d="M743.86 276.683l60.157 31.183c1.963 1.018 3.535 4.13 3.492 6.916l-.66 42.606 2.79 16.74-15.95-16.799-50.672-26.266c-1.965-1.019-3.536-4.13-3.493-6.916l.686-44.25c.044-2.786 1.686-4.232 3.65-3.214" fill="#9baee0"/><path d="M786.07 270.464l-65.956-34.593c-2.154-1.13-3.95.225-3.993 3.01l-.643 42.607-5.86 22.192 20.074-7.975 55.557 29.139c2.154 1.13 3.95-.225 3.992-3.01l.668-44.251c.043-2.786-1.685-5.99-3.84-7.119" fill="#deecf9"/><path d="M740.336 272.613c-.048 3.181-2.404 4.546-5.262 3.047-2.86-1.5-5.138-5.295-5.09-8.477.048-3.181 2.405-4.545 5.264-3.046 2.859 1.499 5.136 5.294 5.088 8.476M756.279 281.127c-.049 3.182-2.405 4.546-5.264 3.047-2.858-1.5-5.137-5.295-5.089-8.476.048-3.183 2.405-4.547 5.263-3.047 2.859 1.5 5.138 5.293 5.09 8.476M772.22 289.641c-.048 3.182-2.405 4.546-5.262 3.046-2.86-1.498-5.138-5.293-5.09-8.476.049-3.182 2.405-4.546 5.263-3.046 2.86 1.499 5.138 5.294 5.09 8.476M389.147 126.932v18.415a.47.47 0 00.94 0v-18.415a.47.47 0 00-.94 0M435.088 322.597c-6.212-3.474-5.597-10.092-5.597-10.092l.191-2.211c7.312.938 11.867 6.913 11.867 6.913s-.248 8.864-6.461 5.39zm8.081-6.076s-5.674-7.535-15.215-8.885l-.424 2.856.067.041s-.83 8.91 7.52 13.58c8.35 4.667 8.052-7.592 8.052-7.592" fill="#fff"/><path d="M424.032 327.405c-5.044 9.998-13.472 11.48-18.824 3.31-5.352-8.17-5.602-22.898-.557-32.896 5.044-9.998 13.472-11.48 18.824-3.31 5.352 8.17 5.6 22.898.557 32.896" fill="#fab6a9"/><path d="M435.815 326.166c-5.044 9.998-17.108 11.67-22.46 3.499-5.352-8.17-5.6-22.898-.557-32.896 5.045-9.998 13.472-11.48 18.824-3.309 5.352 8.17 9.237 22.708 4.193 32.706" fill="#fab6a9"/><path d="M404.368 351.807l-1.086-.468c-3.665-1.582-5.37-5.876-3.789-9.541l8.918-20.671c1.583-3.667 5.875-5.372 9.542-3.79l1.085.468c3.666 1.582 5.371 5.876 3.79 9.541l-5.65 21.123c-1.582 3.666-9.144 4.92-12.81 3.338" fill="#fab6a9"/><path d="M399.507 317.98s.635 12.724 8.4 13.845c11.049 1.593 12.297-17.275 21.72-17.028 10.366.271 13.644-12.335 10.587-17.856-3.055-5.52-9.661-12.195-22.478-9.333-8.708 1.944-18.714-.496-18.23 30.373" fill="#8f545c"/><path d="M420.862 334.694l-.644-2.87s1.657 2.435 5.64 2.675c0 0-2.544.879-4.996.195" fill="#f18976"/><path d="M423.954 348.396c20.621 5.568 16.902 15.12 29.253 46.657 0 0-26.974 26.956-41.877 2.874-14.901-24.082-1.093-46.414-1.093-46.414l13.717-3.117" fill="#70d0e1"/><path d="M374.308 438.02c1.043-18.69 2.374-42.66 4.47-62.651 3.232-35.99 2.273-42.691 21.962-39.572l5.235 1.905a37.177 37.177 0 017.183 3.543c23.923 15.175 25.244 18.437 22.797 33.33-.973 11.427-1.978 20.58-2.728 30.802-.87 11.876-3.386 37.163-3.386 37.163-6.703 16.61-50.894 8.213-55.533-4.52" fill="#70d0e1"/><path d="M422.835 381.795l10.723 25.368-3.717 35.377c-1.654 4.188-5.705 6.788-11.483 8.245l4.477-68.99" fill="#46a4ba"/><path d="M428.941 397.929c.01-.003 4.601-1.351 9.565-3.43 2.482-1.04 5.058-2.26 7.209-3.597 2.15-1.342 3.888-2.778 4.683-4.368a.47.47 0 10-.844-.416c-.629 1.295-2.248 2.695-4.335 3.985-3.127 1.944-7.273 3.684-10.628 4.927a108.516 108.516 0 01-5.465 1.86c-.292.09-.449.136-.45.136a.471.471 0 00.265.903" fill="#fff"/><path d="M418.81 344.893s-7.356-9.792-20.041-9.388c3.82 2.934 14.586 7.242 20.042 9.388" fill="#414faa"/><path d="M442.47 317.689l-16.276-.12a.883.883 0 01-.873-.888.883.883 0 01.888-.874l16.275.12a.882.882 0 01-.014 1.762" fill="#fff"/><path d="M429.552 320.748a4.93 4.93 0 11-8.803-4.44 4.93 4.93 0 018.803 4.44" fill="#fab6a9"/><path d="M919.874 714.066l42.813-25.02a.47.47 0 00-.475-.813L919.4 713.255a.47.47 0 10.475.811M938.624 724.286l42.814-25.022a.47.47 0 10-.475-.81l-42.814 25.02a.47.47 0 00.475.812M958.698 735.498l42.814-25.02a.47.47 0 00-.474-.813l-42.814 25.022a.469.469 0 10.474.811" fill="#4843a2"/><path d="M1030.602 739.611h.001c3.417 0 6.58-2.778 7.063-6.206l21.351-151.194c.48-3.426-1.899-6.204-5.311-6.204-3.422 0-6.581 2.778-7.065 6.204l-21.35 151.194c-.484 3.428 1.894 6.206 5.311 6.206" fill="#9ba1d8"/><path d="M1048.206 715.187l-9.665-5.554-20.987 50.879 8.402 4.84 22.25-50.165" fill="#38409f"/><path d="M1010.804 745.071c0 13.47 7.738 19.923 17.284 14.412 9.546-5.512 17.284-20.9 17.284-34.37 0-13.47-7.738-19.921-17.284-14.41-9.546 5.51-17.284 20.898-17.284 34.368" fill="#38409f"/><path d="M1020.048 750.4c0 13.47 7.738 19.923 17.285 14.412 9.545-5.512 17.285-20.9 17.285-34.37 0-13.47-7.74-19.922-17.285-14.41-9.547 5.51-17.285 20.898-17.285 34.368" fill="#4a5db4"/><path d="M1029.14 744.702c0 7.326 4.209 10.834 9.4 7.838 5.192-2.998 9.403-11.367 9.403-18.693 0-7.326-4.211-10.835-9.402-7.838-5.192 2.998-9.401 11.367-9.401 18.693" fill="#fff"/><path d="M643.166 692.447c.017.035.796 1.628 2.559 3.232 1.76 1.604 4.53 3.215 8.445 3.212 3.897.002 6.657-1.396 8.42-2.797 1.766-1.402 2.55-2.8 2.572-2.835a.47.47 0 00-.821-.459l-.005.01c-.07.122-.85 1.417-2.487 2.67-1.64 1.253-4.125 2.471-7.68 2.472-3.651-.001-6.173-1.48-7.812-2.968a12.055 12.055 0 01-1.794-2.044 9.767 9.767 0 01-.424-.667l-.1-.182-.024-.044-.005-.012a.47.47 0 10-.844.412M806.735 596.6c.018.036.797 1.628 2.56 3.233 1.76 1.604 4.53 3.215 8.445 3.212 3.897.002 6.656-1.396 8.42-2.797 1.765-1.402 2.55-2.8 2.571-2.835a.47.47 0 10-.82-.459l-.006.01c-.07.122-.849 1.416-2.486 2.67-1.64 1.253-4.125 2.47-7.68 2.472-3.65-.001-6.172-1.48-7.812-2.968a12.053 12.053 0 01-1.793-2.044 9.405 9.405 0 01-.424-.667l-.101-.182-.024-.044-.005-.012a.47.47 0 00-.845.412" fill="#4446a4"/><path d="M1032.818 708.427c-.06.008-3.283.443-7.402 3.54-4.12 3.097-9.121 8.854-12.75 19.443a.47.47 0 00.889.305c3.581-10.438 8.464-16.014 12.426-18.997 1.982-1.49 3.736-2.331 4.988-2.8a12.715 12.715 0 011.466-.456c.17-.041.3-.067.386-.083l.094-.016.025-.004a.47.47 0 00-.122-.933" fill="#4843a2"/><path d="M1042.092 713.815c-.06.008-3.282.441-7.401 3.54-4.12 3.096-9.12 8.853-12.75 19.442a.47.47 0 00.889.305c3.58-10.438 8.463-16.015 12.426-18.997 1.982-1.49 3.735-2.331 4.987-2.8a12.796 12.796 0 011.467-.457c.17-.04.3-.066.385-.082l.094-.016.025-.004a.47.47 0 00-.121-.932M952.476 662.772c-.055.007-2.654.357-6.164 2.667-3.51 2.31-7.922 6.58-11.598 14.381a.47.47 0 10.851.4c3.611-7.657 7.897-11.779 11.263-13.996 1.685-1.108 3.14-1.739 4.168-2.093.514-.177.921-.285 1.197-.347.137-.032.241-.052.31-.064l.075-.013.019-.003a.469.469 0 10-.121-.932" fill="#fff"/><path d="M943.707 657.342c-.059.008-3.282.443-7.401 3.54-4.12 3.097-9.121 8.855-12.75 19.442a.47.47 0 00.888.306c3.582-10.438 8.465-16.015 12.427-18.996 1.982-1.49 3.736-2.332 4.987-2.8a12.717 12.717 0 011.467-.457c.17-.04.3-.066.385-.082l.095-.016.025-.004a.47.47 0 10-.123-.933" fill="#4843a2"/><path d="M898.159 714.067l70.924 41.043.235-.406-.24.403c.04.02 3.79 2.265 8.922 2.268 2.287 0 4.85-.45 7.455-1.754 8.262-4.132 22.064-13.337 22.073-13.342a.47.47 0 00-.522-.782c-.002.001-.86.574-2.282 1.5-4.26 2.777-13.571 8.726-19.69 11.784a15.588 15.588 0 01-7.034 1.654c-2.427 0-4.547-.536-6.056-1.073a17.375 17.375 0 01-1.766-.737c-.205-.1-.362-.183-.467-.24l-.118-.065-.035-.02-.005-.003-70.923-41.042a.47.47 0 10-.47.813" fill="#c9d0ed"/><path d="M301.007 69.65l16.756-9.457a.47.47 0 00-.462-.82l-16.756 9.458a.47.47 0 00.462.818M281.213 97.904l-.216-6.405a.47.47 0 00-.476-.454c-.025.004-15.504.24-27.742 4.502a.471.471 0 00.31.888c6.01-2.097 12.882-3.213 18.242-3.8 2.681-.294 4.985-.457 6.617-.546a96.237 96.237 0 012.588-.104l-.008-.47-.47.016.215 6.404a.47.47 0 10.94-.03" fill="#fff"/><path d="M556.716 690.075c0 .004-.009.148-.009.399.001.838.084 2.856.843 4.701.381.922.936 1.806 1.748 2.462.812.657 1.884 1.076 3.244 1.075.177 0 .357-.008.544-.021 2.622-.203 7.084-1.687 11.6-3.423 4.51-1.735 9.05-3.724 11.746-4.935a4.815 4.815 0 002.518-6.125 16.92 16.92 0 00-.605-1.37.27.27 0 00-.484.24c.235.477.429.918.586 1.324a4.273 4.273 0 01-2.237 5.439c-2.69 1.209-7.223 3.194-11.718 4.923-4.49 1.731-8.962 3.203-11.447 3.388-.173.014-.34.02-.503.02-1.252-.001-2.183-.374-2.905-.955-1.08-.87-1.689-2.244-2.015-3.567a13.784 13.784 0 01-.375-3.176c0-.24.008-.37.008-.37a.27.27 0 00-.255-.284.268.268 0 00-.284.255M516.969 665.048c-.001.008-.05.424-.05 1.081.002 1.138.14 3 .931 4.73.785 1.73 2.259 3.333 4.85 3.841a8.636 8.636 0 001.692.165c3.86-.007 7.746-2.434 11.593-5.545 3.847-3.115 7.658-6.938 11.3-9.804.76-.6 1.003-1.503 1.001-2.383-.005-1.614-.77-3.27-.931-3.604a.269.269 0 10-.483.238c.145.29.88 1.923.875 3.366-.001.795-.21 1.498-.795 1.959-3.68 2.896-7.49 6.72-11.306 9.809-3.814 3.094-7.631 5.431-11.254 5.424a8.13 8.13 0 01-1.587-.154c-2.411-.482-3.718-1.918-4.464-3.536-.74-1.617-.882-3.413-.882-4.505 0-.316.014-.573.024-.75.012-.177.021-.27.021-.27a.269.269 0 00-.236-.299.269.269 0 00-.3.237M409.017 604.588a13.97 13.97 0 00-.595 3.9c0 1.227.203 2.561.874 3.693.67 1.134 1.827 2.043 3.634 2.382.949.178 2.173.252 3.585.252 6.303 0 16.36-1.493 21.13-2.26a4.814 4.814 0 004.024-5.261c-.048-.45-.123-.942-.229-1.48a.27.27 0 10-.529.105c.103.523.175.999.22 1.432a4.271 4.271 0 01-3.571 4.671c-4.755.767-14.817 2.255-21.045 2.254-1.392 0-2.592-.074-3.484-.244-1.68-.321-2.668-1.118-3.27-2.126-.602-1.009-.8-2.249-.8-3.417 0-.994.142-1.931.285-2.618.072-.343.143-.624.196-.818.053-.193.087-.297.087-.297a.27.27 0 00-.512-.168M369.117 583.037c-.001.01-.05.425-.05 1.082.002 1.138.141 3 .93 4.73.786 1.73 2.26 3.331 4.85 3.841.562.11 1.126.164 1.692.164 3.861-.006 7.746-2.433 11.594-5.545 3.846-3.116 7.657-6.938 11.3-9.805.76-.598 1.003-1.502 1-2.382-.005-1.613-.77-3.27-.93-3.605a.27.27 0 00-.484.239c.146.29.88 1.923.875 3.366-.001.796-.21 1.498-.794 1.958-3.68 2.897-7.49 6.72-11.307 9.81-3.814 3.094-7.63 5.43-11.254 5.424a8.12 8.12 0 01-1.587-.153c-2.411-.482-3.718-1.918-4.464-3.536-.74-1.617-.881-3.413-.88-4.506 0-.316.012-.572.022-.75.012-.177.023-.27.023-.27a.27.27 0 00-.536-.062" fill="#3a46a3"/><path d="M424.117 596.797l.055-.077-.056.077h.001l.055-.077-.056.077c.015.011.332.247.632.66.3.414.582.991.582 1.72-.001.777-.313 1.773-1.404 3.002a.47.47 0 10.703.625c1.2-1.346 1.643-2.581 1.641-3.627 0-1.011-.405-1.8-.799-2.324-.396-.527-.783-.803-.81-.822a.47.47 0 10-.544.767M428.086 597.99l.053-.075-.054.073.001.001.053-.074-.054.073c.015.011.332.247.63.66.303.415.584.991.584 1.72-.002.778-.314 1.774-1.404 3.003a.47.47 0 10.702.624c1.2-1.345 1.644-2.58 1.642-3.626 0-1.01-.406-1.8-.8-2.325-.395-.526-.783-.802-.81-.822a.47.47 0 00-.543.767M572.697 679.624l.016.002c.116.021.763.17 1.344.627.579.463 1.118 1.185 1.126 2.543 0 .488-.074 1.06-.255 1.727a.47.47 0 10.907.247c.2-.735.288-1.39.288-1.974.01-1.742-.822-2.83-1.64-3.398-.817-.575-1.6-.695-1.642-.703a.471.471 0 00-.144.929M576.78 678.919l.016.002c.116.021.763.17 1.344.626.58.464 1.118 1.186 1.127 2.544 0 .488-.075 1.06-.256 1.727a.471.471 0 00.908.247c.2-.735.288-1.39.288-1.974.01-1.742-.823-2.83-1.64-3.398-.818-.575-1.602-.695-1.643-.703a.47.47 0 00-.144.929M532.261 653.936l-.024-.068.023.068h.001l-.024-.068.023.068a3.22 3.22 0 01.948-.134c.53 0 1.179.121 1.782.583.604.463 1.197 1.29 1.552 2.816a.47.47 0 00.916-.211c-.386-1.678-1.088-2.734-1.895-3.35a3.824 3.824 0 00-2.355-.778c-.723 0-1.226.176-1.26.188a.47.47 0 00.313.886M534.981 652.055l-.025-.068.024.068-.024-.068.024.068c.02-.008.416-.135.947-.134.53 0 1.18.121 1.783.582.602.464 1.197 1.29 1.552 2.816a.47.47 0 10.916-.211c-.387-1.678-1.088-2.733-1.897-3.35a3.828 3.828 0 00-2.354-.777c-.723 0-1.225.176-1.258.188a.469.469 0 10.312.886M384.485 571.3l-.025-.069.024.07-.024-.07.024.07c.02-.008.416-.136.947-.136.531.002 1.18.122 1.784.584.602.464 1.196 1.29 1.552 2.817a.47.47 0 10.916-.213c-.387-1.677-1.09-2.733-1.897-3.35a3.817 3.817 0 00-2.355-.777c-.723 0-1.226.177-1.258.187a.47.47 0 00.312.888M387.204 569.42l-.024-.068.023.068h.001l-.024-.068.023.068a3.23 3.23 0 01.948-.136c.531.001 1.179.121 1.782.584.604.463 1.197 1.289 1.552 2.816a.47.47 0 00.916-.213c-.386-1.677-1.088-2.732-1.895-3.35a3.818 3.818 0 00-2.355-.776c-.723 0-1.226.177-1.259.187a.47.47 0 10.312.888" fill="#fff"/><path d="M653.125 253.628s1.264.371 1.085 1.343c-.18.972-.667 1.09-.667 1.09s.693.945 1.545.112c.853-.833 1.423-2.26.274-3.777-.934-1.231-2.237 1.232-2.237 1.232M427.217 318.497s-1.54.256-1.47 1.424c.072 1.169.629 1.378.629 1.378s-.95 1.012-1.833-.09-1.347-2.862.22-4.48c1.275-1.314 2.454 1.768 2.454 1.768M576.3 399.422s-1.556-.123-1.768 1.028c-.213 1.152.278 1.488.278 1.488s-1.165.754-1.757-.528c-.594-1.281-.62-3.102 1.29-4.295 1.553-.97 1.957 2.307 1.957 2.307" fill="#f18976"/><path d="M407.382 584.354c.041.026 3.1 2.526 7.308 2.536 2.61.005 5.647-1 8.52-4.12a.47.47 0 10-.691-.637c-2.729 2.945-5.457 3.81-7.829 3.816-1.91.001-3.598-.58-4.805-1.167a12.393 12.393 0 01-1.416-.805c-.165-.109-.29-.2-.374-.261l-.093-.07-.028-.022a.47.47 0 10-.592.73M368.623 560.67c.044.05 3.032 3.337 8.694 3.34 2.26.001 4.932-.527 7.984-1.979a.47.47 0 10-.404-.849c-2.94 1.398-5.467 1.888-7.58 1.889-2.641-.001-4.644-.768-5.991-1.531a10.256 10.256 0 01-1.516-1.046 6.993 6.993 0 01-.376-.338l-.089-.09-.02-.021-.005-.004a.47.47 0 10-.697.63M664.913 328.746l.063-.025a10.58 10.58 0 013.6-.648c1.238.001 2.628.243 3.94 1.006 1.31.764 2.56 2.05 3.522 4.213a.47.47 0 10.859-.381c-1.025-2.316-2.42-3.78-3.91-4.644-1.488-.867-3.053-1.134-4.412-1.134-2.271.003-3.994.734-4.028.747a.47.47 0 00.366.866M582.933 487.857s7.836-2.284 16.008-9.19l1.1 1.807s-6.138 7.09-16.33 9.235l-.778-1.852" fill="#fff"/><path d="M496.675 397.162c-.623-.117-2.934-1.375-2.933-1.597 0-.08.975-1.052 2.166-2.158 2.525-2.344 3.288-3.666 3.302-5.72.012-1.722-.421-2.835-1.593-4.087-1.223-1.308-2.59-1.88-4.437-1.855-1.986.026-2.981.659-6.886 4.378l-3.44 3.277-16.56-9.562-16.56-9.561.959-.437c.527-.24 2.373-1.12 4.101-1.956l3.143-1.52 3.775-.46c4.93-.603 6.23-1.24 7.487-3.67.947-1.83.545-4.731-.881-6.355-.372-.424-.637-.808-.59-.855.456-.452 30.781-17.617 31.962-18.092 3.735-1.5 8.88-1.781 11.673-.638 1.544.632 44.31 24.207 45.37 25.01 1.414 1.073 1.857 3.398.833 4.381-.225.216-12.414 7.32-27.087 15.785-22.329 12.883-26.881 15.43-27.932 15.624-1.234.228-4.801.27-5.872.068zm.33-16.562c1.878-.476 4.463-1.796 7.736-3.95 3.958-2.605 4.709-2.95 6.415-2.95.776 0 1.898.173 2.493.385l1.081.384 1.846-1.05 1.846-1.051-.78-.736c-.914-.862-1.005-1.627-.274-2.31.278-.26 2.32-1.396 4.538-2.523 5.89-2.993 7.528-4.254 7.528-5.798 0-.767-1.533-2.176-3.502-3.218l-1.55-.82-1.755 1.018-1.755 1.018.914.544c1.084.647 1.17 1.205.281 1.837-.347.247-2.342 1.38-4.433 2.515-4.494 2.441-5.99 3.398-6.475 4.137-.401.612-.457 1.301-.152 1.871.186.35.011.383-1.964.378-2.083-.005-2.246.032-4.078.913-1.05.505-3.263 1.75-4.92 2.766s-3.525 2.11-4.153 2.431c-1.43.733-2.888.779-3.993.127l-.791-.467-1.496.834c-.822.46-1.603.942-1.735 1.074-.17.17.31.539 1.643 1.266 3.044 1.659 4.97 2.013 7.485 1.375zm-19.736-10.032c.911-.518 1.656-.998 1.654-1.066-.002-.068-.361-.356-.8-.64-1.549-1.004-1.184-1.32 6.152-5.332 4.425-2.42 5.531-3.584 4.765-5.016-.196-.366-.082-.389 1.515-.298 2.723.154 3.845-.309 10.37-4.283 1.42-.865 2.985-1.757 3.48-1.982 1.175-.535 2.612-.526 3.691.024l.869.443 1.7-.948c.934-.521 1.7-1.013 1.703-1.092.003-.08-1.03-.664-2.296-1.3-4.872-2.447-7.547-1.963-14.588 2.64-1.93 1.262-3.894 2.461-4.365 2.665-1.144.495-3.722.49-4.874-.008l-.875-.378-1.88 1.055-1.879 1.054.79.81c.435.444.79.967.79 1.161 0 .81-1.083 1.585-4.992 3.567-6.149 3.119-7.579 4.22-7.579 5.836 0 .913.822 1.708 3.143 3.041.926.532 1.72.972 1.766.978.046.006.829-.413 1.74-.931zM1059.764 581.014c0-.75-1.196-2.481-2.657-3.846l-2.656-2.481 13.552-6.431c8.542-4.054 14.172-6.235 15.228-5.9 2.459.78 3.84 3.827 2.78 6.136-1.174 2.564-26.247 14.525-26.247 12.522zM991.763 544.584c.117-3.13-.44-4.312-2.548-5.417-2.243-1.175-1.945-1.379 10.55-7.233 7.072-3.313 13.503-6.015 14.29-6.003 1.764.026 4.405 2.824 4.405 4.667 0 2.232-2.552 3.905-14.716 9.646-6.365 3.004-11.674 5.462-11.797 5.462-.124 0-.207-.505-.184-1.122zM153.316 242.738c-2.845-2.845-3.775-6.56-2.07-8.266 1.139-1.138 1.615-1.057 3.776.643 3.143 2.472 4.444 5.74 3.205 8.053-1.223 2.285-2.29 2.191-4.911-.43zM165.502 249.716c-2.045-2.6-2.277-7.53-.383-8.15.563-.185 2.109.598 3.436 1.74 3.2 2.751 3.71 8.193.807 8.607-1.236.176-2.607-.604-3.86-2.197zM180.398 259.153c-2.056-1.195-4.349-6.48-3.627-8.361.857-2.234 3.586-1.623 6.1 1.365 2.528 3.004 2.932 5.251 1.247 6.935-1.294 1.295-1.59 1.3-3.72.06z" fill="#ee1997"/></svg>