<svg xmlns="http://www.w3.org/2000/svg" width="1200" height="800"><defs><clipPath clipPathUnits="userSpaceOnUse" id="a"><path d="M8118.58 5766.22l-.7 23.21 29.96-19.37s-8.42-21.06-9.34-20.33c-.91.73-19.92 16.49-19.92 16.49z"/></clipPath><clipPath clipPathUnits="userSpaceOnUse" id="c"><path d="M8358.96 5614.64l-231.71 133.77c-13.88 8.02-12.14 22.02 3.89 31.27l419.47 242.18c16.03 9.26 40.27 10.26 54.15 2.25l231.71-133.78c13.88-8.01 12.14-22.01-3.89-31.26l-419.47-242.18c-16.03-9.26-40.27-10.26-54.15-2.25z"/></clipPath><clipPath clipPathUnits="userSpaceOnUse" id="e"><path d="M9739.66 5016.66c-20.12 0-40.3 4.44-55.74 13.36l-394.18 227.58c-2.98 1.72-5.68 3.55-8.08 5.45-23.09 18.31-19.53 44.15 10.12 59.87l306.06 162.32 25.87 13.72-27.9-14.8 481.39-280.59-280.7-172.72c-15.34-9.44-36.06-14.19-56.84-14.19"/></clipPath><clipPath clipPathUnits="userSpaceOnUse" id="g"><path d="M10077.2 5203.57l-481.39 280.59 27.9 14.8 62.03 32.89 478.86-274.51-87.4-53.77"/></clipPath><clipPath clipPathUnits="userSpaceOnUse" id="i"><path d="M10907.5 4834.96c-3.9 0-8.3 1.25-12.9 3.9l-685.1 392.75-43.2 24.76-1.7.97-478.86 274.51-580.94 333.04-133.63 76.6c-15.87 9.1-28.86 31.34-28.86 49.42l.03 213.82c4.79-11.18 12.99-21.5 22.25-26.84l1931.31-1115.03c4.2-2.42 8.1-3.56 11.7-3.56 8.8 0 14.8 7.09 14.8 19.27l-3.1 1408.48c0 10.54-4.6 22.54-11.5 32.16 9.4-10.83 15.9-25.7 15.9-38.49l-.2-1464.84v-64.31l-.1-96.38c0-12.81-6.5-20.23-15.9-20.23"/></clipPath><clipPath clipPathUnits="userSpaceOnUse" id="k"><path d="M10242 3443.35c-27.3 103.05-187.6 156.29-390.5 243.08-45.7 19.55-93.56 40.79-142.56 64.7-8.53 4.92-7.45 13.6 2.4 19.29l81.88 47.27c.28-.24.57-.48.88-.71 237.6-151.25 472.2-226.4 447.9-373.63m0 0l758.2 442.38c.2 1.46.3 2.91.4 4.38.2-2.91.2-5.82.1-8.74l-740-427.22-18.7-10.8"/></clipPath><clipPath clipPathUnits="userSpaceOnUse" id="m"><path d="M10242 3443.35c24.3 147.23-210.3 222.38-447.9 373.63-.31.23-.6.47-.88.71-6.53 5.7-4.66 14.46 4.48 19.91l662.9 395.49 36.3 21.66c4.8 2.85 10.7 4.27 16.3 4.27 5.6 0 11-1.41 14.7-4.23 262.7-104.91 436.8-220.47 467.9-325.46 3.9-13.25 5.5-26.35 4.8-39.22-.1-1.47-.2-2.92-.4-4.38l-758.2-442.38m-257.71 365.69c-2.35 0-4.78-.5-6.74-1.52-3.97-2.06-4.55-5.42-1.29-7.51l256.34-163.94c1.6-1.05 3.9-1.58 6.3-1.58s4.8.51 6.8 1.53c3.9 2.06 4.5 5.42 1.2 7.5l-256.26 163.94c-1.65 1.06-3.95 1.58-6.35 1.58m84.11 54.34c-2.4 0-4.8-.51-6.8-1.53-3.9-2.06-4.5-5.42-1.3-7.51l256.3-163.94c1.7-1.05 4-1.58 6.4-1.58 2.3 0 4.8.51 6.7 1.53 4 2.06 4.6 5.42 1.3 7.5l-256.3 163.95c-1.6 1.05-3.9 1.58-6.3 1.58m84.1 54.33c-2.4 0-4.8-.51-6.8-1.53-4-2.06-4.5-5.42-1.3-7.51l256.3-163.94c1.7-1.05 4-1.58 6.4-1.58 2.3 0 4.7.51 6.7 1.53 4 2.06 4.6 5.42 1.3 7.5l-256.3 163.95c-1.6 1.05-4 1.58-6.3 1.58m86 75.07c-2.3 0-4.8-.51-6.7-1.53-4-2.06-4.6-5.41-1.3-7.5l256.3-163.95c1.6-1.05 3.9-1.57 6.3-1.57s4.8.5 6.8 1.52c3.9 2.06 4.5 5.42 1.2 7.51l-256.2 163.94c-1.7 1.05-4 1.58-6.4 1.58m84.1 54.33c-2.4 0-4.8-.51-6.8-1.53-3.9-2.06-4.5-5.41-1.2-7.5l256.3-163.94c1.6-1.06 3.9-1.58 6.3-1.58s4.8.5 6.7 1.52c4 2.06 4.6 5.42 1.3 7.51l-256.3 163.94c-1.6 1.05-3.9 1.58-6.3 1.58m84.1 54.33c-2.4 0-4.8-.51-6.8-1.53-4-2.06-4.5-5.41-1.3-7.5l256.3-163.94c1.7-1.06 4-1.58 6.4-1.58 2.3 0 4.8.5 6.7 1.52 4 2.06 4.6 5.42 1.3 7.51l-256.3 163.94c-1.6 1.05-3.9 1.58-6.3 1.58m84 54.33c-2.3 0-4.7-.51-6.7-1.53-4-2.05-4.5-5.41-1.3-7.5l256.3-163.94c1.7-1.06 4-1.58 6.4-1.58 2.3 0 4.7.51 6.7 1.52 4 2.06 4.6 5.42 1.3 7.51l-256.3 163.94c-1.7 1.05-4 1.58-6.4 1.58m84.1 54.33c-2.3 0-4.8-.51-6.7-1.53-4-2.05-4.6-5.41-1.3-7.5l256.3-163.94c1.6-1.06 3.9-1.58 6.3-1.58s4.8.51 6.8 1.53c4 2.05 4.5 5.41 1.3 7.5l-256.3 163.94c-1.7 1.05-4 1.58-6.4 1.58"/></clipPath><clipPath clipPathUnits="userSpaceOnUse" id="o"><path d="M10829.4 4035.55c-2.4 0-4.7.52-6.3 1.58l-256.3 163.94c-3.3 2.09-2.7 5.45 1.3 7.5 1.9 1.02 4.4 1.53 6.7 1.53 2.4 0 4.7-.53 6.4-1.58l256.3-163.94c3.2-2.09 2.7-5.45-1.3-7.5-2-1.02-4.4-1.53-6.8-1.53"/></clipPath><clipPath clipPathUnits="userSpaceOnUse" id="p"><path d="M10563.5 4035.55h277.199v174.551H10563.5z"/></clipPath><clipPath clipPathUnits="userSpaceOnUse" id="r"><path d="M10745.4 3981.22c-2.4 0-4.7.52-6.4 1.58l-256.3 163.94c-3.2 2.09-2.7 5.45 1.3 7.5 2 1.02 4.4 1.53 6.7 1.53 2.4 0 4.7-.53 6.4-1.58l256.3-163.94c3.3-2.09 2.7-5.45-1.3-7.51-2-1.01-4.4-1.52-6.7-1.52"/></clipPath><clipPath clipPathUnits="userSpaceOnUse" id="t"><path d="M10661.3 3926.89c-2.4 0-4.7.52-6.4 1.58l-256.3 163.94c-3.2 2.09-2.7 5.44 1.3 7.5 2 1.02 4.4 1.53 6.8 1.53 2.4 0 4.7-.53 6.3-1.58l256.3-163.94c3.3-2.09 2.7-5.45-1.3-7.51-1.9-1.02-4.4-1.52-6.7-1.52"/></clipPath><clipPath clipPathUnits="userSpaceOnUse" id="v"><path d="M10577.2 3872.56c-2.4 0-4.7.52-6.3 1.58l-256.3 163.94c-3.3 2.09-2.7 5.44 1.2 7.5 2 1.02 4.4 1.53 6.8 1.53 2.4 0 4.7-.53 6.3-1.58l256.3-163.94c3.3-2.09 2.7-5.45-1.3-7.51-1.9-1.02-4.3-1.52-6.7-1.52"/></clipPath><clipPath clipPathUnits="userSpaceOnUse" id="x"><path d="M10493.1 3818.23c-2.4 0-4.7.52-6.3 1.57l-256.3 163.95c-3.3 2.09-2.7 5.44 1.3 7.5 1.9 1.02 4.4 1.53 6.7 1.53 2.4 0 4.7-.53 6.4-1.58l256.2-163.94c3.3-2.09 2.7-5.45-1.2-7.51-2-1.02-4.4-1.52-6.8-1.52"/></clipPath><clipPath clipPathUnits="userSpaceOnUse" id="z"><path d="M10407.1 3743.15c-2.4 0-4.7.53-6.4 1.58l-256.3 163.94c-3.2 2.09-2.7 5.45 1.3 7.51 2 1.02 4.4 1.53 6.8 1.53 2.3 0 4.7-.53 6.3-1.58l256.3-163.95c3.3-2.08 2.7-5.44-1.3-7.5-2-1.02-4.4-1.53-6.7-1.53"/></clipPath><clipPath clipPathUnits="userSpaceOnUse" id="B"><path d="M10323 3688.82c-2.4 0-4.7.53-6.4 1.58l-256.3 163.94c-3.2 2.09-2.6 5.45 1.3 7.51 2 1.02 4.4 1.53 6.8 1.53 2.4 0 4.7-.53 6.3-1.58l256.3-163.95c3.3-2.08 2.7-5.44-1.3-7.5-1.9-1.02-4.4-1.53-6.7-1.53"/></clipPath><clipPath clipPathUnits="userSpaceOnUse" id="D"><path d="M10238.9 3634.49c-2.4 0-4.7.53-6.3 1.58l-256.34 163.94c-3.26 2.09-2.68 5.45 1.29 7.51 1.96 1.02 4.39 1.52 6.74 1.52 2.4 0 4.7-.52 6.35-1.58l256.26-163.94c3.3-2.08 2.7-5.44-1.2-7.5-2-1.02-4.4-1.53-6.8-1.53"/></clipPath><linearGradient x1="0" y1="0" x2="1" y2="0" gradientUnits="userSpaceOnUse" gradientTransform="matrix(29.9578 0 0 -29.9578 8117.88 5769.57)" spreadMethod="pad" id="b"><stop offset="0" stop-color="#fff"/><stop offset=".039" stop-color="#fff"/><stop offset="1" stop-color="#acc5e9"/></linearGradient><linearGradient x1="0" y1="0" x2="1" y2="0" gradientUnits="userSpaceOnUse" gradientTransform="matrix(727.957 0 0 -727.957 8117.88 5819.37)" spreadMethod="pad" id="d"><stop offset="0" stop-color="#fff"/><stop offset=".039" stop-color="#fff"/><stop offset="1" stop-color="#acc5e9"/></linearGradient><linearGradient x1="0" y1="0" x2="1" y2="0" gradientUnits="userSpaceOnUse" gradientTransform="scale(977.27 -977.27) rotate(-30 -4.906 -20.514)" spreadMethod="pad" id="f"><stop offset="0" stop-color="#fff"/><stop offset=".039" stop-color="#fff"/><stop offset="1" stop-color="#acc5e9"/></linearGradient><linearGradient x1="0" y1="0" x2="1" y2="0" gradientUnits="userSpaceOnUse" gradientTransform="scale(977.27 -977.27) rotate(-30 -4.906 -20.514)" spreadMethod="pad" id="h"><stop offset="0" stop-color="#cac7d4"/><stop offset=".039" stop-color="#cac7d4"/><stop offset="1" stop-color="#8396c3"/></linearGradient><linearGradient x1="0" y1="0" x2="1" y2="0" gradientUnits="userSpaceOnUse" gradientTransform="matrix(1981.36 0 0 -1981.36 8942.31 6235.81)" spreadMethod="pad" id="j"><stop offset="0" stop-color="#fff"/><stop offset=".039" stop-color="#fff"/><stop offset="1" stop-color="#acc5e9"/></linearGradient><linearGradient x1="0" y1="0" x2="1" y2="0" gradientUnits="userSpaceOnUse" gradientTransform="scale(-548.598 548.598) rotate(60 -15.228 -13.294)" spreadMethod="pad" id="l"><stop offset="0" stop-color="#9fafbf"/><stop offset="0" stop-color="#9fafbf"/><stop offset="1" stop-color="#e5edf6"/></linearGradient><linearGradient x1="0" y1="0" x2="1" y2="0" gradientUnits="userSpaceOnUse" gradientTransform="matrix(-225.447 534.822 470.504 280.71 10511.9 3594.41)" spreadMethod="pad" id="n"><stop offset="0" stop-color="#9fafbf"/><stop offset="0" stop-color="#9fafbf"/><stop offset="1" stop-color="#fff"/><stop offset="1" stop-color="#fff"/></linearGradient><linearGradient x1="0" y1="0" x2="1" y2="0" gradientUnits="userSpaceOnUse" gradientTransform="matrix(-225.447 534.822 470.504 280.71 10511.9 3594.41)" spreadMethod="pad" id="q"><stop offset="0" stop-color="#8f99b7"/><stop offset="0" stop-color="#8f99b7"/><stop offset="1" stop-color="#d5d2e5"/><stop offset="1" stop-color="#d5d2e5"/></linearGradient><linearGradient x1="0" y1="0" x2="1" y2="0" gradientUnits="userSpaceOnUse" gradientTransform="matrix(-225.447 534.822 470.504 280.71 10511.9 3594.41)" spreadMethod="pad" id="s"><stop offset="0" stop-color="#8f99b7"/><stop offset="0" stop-color="#8f99b7"/><stop offset="1" stop-color="#d5d2e5"/><stop offset="1" stop-color="#d5d2e5"/></linearGradient><linearGradient x1="0" y1="0" x2="1" y2="0" gradientUnits="userSpaceOnUse" gradientTransform="matrix(-225.447 534.822 470.504 280.71 10511.9 3594.41)" spreadMethod="pad" id="u"><stop offset="0" stop-color="#8f99b7"/><stop offset="0" stop-color="#8f99b7"/><stop offset="1" stop-color="#d5d2e5"/><stop offset="1" stop-color="#d5d2e5"/></linearGradient><linearGradient x1="0" y1="0" x2="1" y2="0" gradientUnits="userSpaceOnUse" gradientTransform="matrix(-225.447 534.822 470.504 280.71 10511.9 3594.41)" spreadMethod="pad" id="w"><stop offset="0" stop-color="#8f99b7"/><stop offset="0" stop-color="#8f99b7"/><stop offset="1" stop-color="#d5d2e5"/><stop offset="1" stop-color="#d5d2e5"/></linearGradient><linearGradient x1="0" y1="0" x2="1" y2="0" gradientUnits="userSpaceOnUse" gradientTransform="matrix(-225.447 534.822 470.504 280.71 10511.9 3594.41)" spreadMethod="pad" id="y"><stop offset="0" stop-color="#8f99b7"/><stop offset="0" stop-color="#8f99b7"/><stop offset="1" stop-color="#d5d2e5"/><stop offset="1" stop-color="#d5d2e5"/></linearGradient><linearGradient x1="0" y1="0" x2="1" y2="0" gradientUnits="userSpaceOnUse" gradientTransform="matrix(-225.447 534.822 470.504 280.71 10511.9 3594.41)" spreadMethod="pad" id="A"><stop offset="0" stop-color="#8f99b7"/><stop offset="0" stop-color="#8f99b7"/><stop offset="1" stop-color="#d5d2e5"/><stop offset="1" stop-color="#d5d2e5"/></linearGradient><linearGradient x1="0" y1="0" x2="1" y2="0" gradientUnits="userSpaceOnUse" gradientTransform="matrix(-225.447 534.822 470.504 280.71 10511.9 3594.41)" spreadMethod="pad" id="C"><stop offset="0" stop-color="#8f99b7"/><stop offset="0" stop-color="#8f99b7"/><stop offset="1" stop-color="#d5d2e5"/><stop offset="1" stop-color="#d5d2e5"/></linearGradient><linearGradient x1="0" y1="0" x2="1" y2="0" gradientUnits="userSpaceOnUse" gradientTransform="matrix(-225.447 534.822 470.504 280.71 10511.9 3594.41)" spreadMethod="pad" id="E"><stop offset="0" stop-color="#8f99b7"/><stop offset="0" stop-color="#8f99b7"/><stop offset="1" stop-color="#d5d2e5"/><stop offset="1" stop-color="#d5d2e5"/></linearGradient></defs><path d="M670.716 774.072L282.738 545.969c-20.695-11.948-20.774-26.574-.21-38.747l219.607-129.991L926.862 622.45 670.716 774.072" fill="#e1f2fc"/><path d="M928.212 633.443l1.137-.168a6.215 6.215 0 005.234-7.058l-28.098-189.505c-.511-3.394-3.663-5.737-7.056-5.235l-1.138.169a6.215 6.215 0 00-5.234 7.057l28.099 189.504c.51 3.395 3.663 5.739 7.056 5.236M665.665 791.96c-3.692-.317-6.43-3.574-6.112-7.271l26.403-306.544a6.715 6.715 0 017.268-6.12 6.72 6.72 0 016.12 7.274l-26.402 306.543a6.722 6.722 0 01-7.277 6.119" fill="#8c7893"/><path d="M687.122 621.222l-12.792-8.749 3.663-36.821 13.611 2.127-4.482 43.443M904.075 512.824l12.145-9.628-6.246-36.472-13.437 3.083 7.538 43.017" fill="#64546a"/><path d="M257.307 673.678l231.127-121.323 126.47 73.019-231.126 121.322-126.47-73.018" fill="#e1f2fc"/><path d="M413.815 596.486l-130.381-75.275c-12.083-6.976-7.194-22.278 10.866-34.004l46.867-30.43c18.059-11.727 91.083-19.841 103.166-12.865l81.632 50.185c12.082 6.976 7.58 51.597-10.48 63.323l-46.866 30.43c-18.06 11.726-42.722 15.612-54.804 8.636" fill="#bc2a73"/><path d="M502.256 604.88c-.79.615-12.309 5.629-13.047 6.205-1.133.882-4.495 3.298-6.516 4.595-4.253 2.73-13.523 13.482-27.204 4.804-20.02-12.697 31.072-42.919 31.072-42.919l22.427-10.174c2.73-1.239 5.933-1.063 8.625.471 4.971 2.834 6.666 9.27 3.63 13.918-5.21 7.974-5.741 12.762-18.987 23.1" fill="#1a2437"/><path d="M500.267 598.577c-.79.616-12.309 5.63-13.047 6.205-1.133.883-4.495 3.299-6.515 4.595-4.254 2.73-13.523 13.483-27.204 4.805-20.02-12.698 31.071-42.919 31.071-42.919L507 561.089c2.73-1.239 5.933-1.064 8.625.471 4.971 2.833 6.666 9.27 3.63 13.917-5.21 7.974-5.742 12.763-18.987 23.1" fill="#844047"/><path d="M514.745 583.64c1.237-2.123 3.18-6.163 4.797-8.639 3.036-4.647 1.053-10.608-3.918-13.44-2.692-1.536-5.894-1.711-8.625-.472l-10.945 4.965c6.17 2.588 13.175 8.508 18.691 17.586" fill="#8d4549"/><path d="M412.758 526.35c16.308-11.081 32.945-22.47 50.947-30.675.681-.31 1.401-.574 2.067-.92-5.362 2.78-2.958 1.199-1.474.656 1.193-.437 2.375-.895 3.584-1.288 1.362-.444 5.286-2.187 6.737-1.652-1.199-.441-6.124.664-2.05.438 2.621-.147 2.988 1.762-2.447-.5.446.186 1.483.47 1.933.476 1.474.02-3.62-1.549-3.546-1.518.439.183.873.443 1.264.713 1.12.772-4.781-4.053-2.252-1.622 2.174 2.088-2.966-4.94-1.651-2.145.236.5.602 1.277.932 1.715-3.09-4.116-1.752-4.615-.901-1.81.468 1.54.702 3.113 1.022 4.684.456 2.23-.695-6.485-.283-1.929.104 1.144.205 2.287.28 3.435.298 4.576.344 9.168.422 13.752.04 2.443.082 4.886.146 7.329.03 1.098-.123 2.392.087 3.467-.925-4.724 1.114-5.333.311-2.998-.226.657-.394 1.34-.616 1.998-.524 1.555-3.113 7.257-.401 1.316-.944 2.069-1.815 4.178-2.726 6.263-2.65 6.054-5.285 12.123-7.668 18.289-4.778 12.363-8.037 25.133-8.73 38.421-.526 10.055 9.213 19.664 19.216 19.217 10.86-.487 18.655-8.446 19.217-19.217.067-1.265-.123-3.242.333-4.43-1.654 4.31-.062.537.19-.824.46-2.48 1.03-4.94 1.676-7.38 1.52-5.752 3.502-11.377 5.684-16.91.506-1.282.944-2.7 1.588-3.92-2.14 4.054-.588 1.38-.097.238.904-2.098 1.824-4.19 2.74-6.284 2.101-4.802 4.365-9.59 6.039-14.56 2.12-6.293 1.567-12.795 1.456-19.303-.085-5.017-.118-10.046-.472-15.054-.805-11.412-2.8-22.957-11.398-31.275-10.53-10.186-26.32-9.287-39.092-4.479-22.11 8.323-42.047 21.904-61.465 35.1-8.3 5.638-12.782 17.16-6.895 26.291 5.327 8.263 17.4 12.937 26.293 6.894" fill="#cba57f"/><path d="M482.893 578.467c-8.526 6.657-25.335 4.75-31.176-4.597-.374 4.954-.664 9.909-.816 14.864-.618 20.193 30.772 21.988 31.392 1.718.123-3.995.333-7.99.6-11.985" fill="#e4edf6"/><path d="M443.654 570.272l-.414 13.92a2.869 2.869 0 00.465 1.675c1.934 2.95 9.656 12.91 24.83 11.083 13.305-1.602 20.608-5.363 23.438-7.152a2.888 2.888 0 001.338-2.566l-.521-14.224c-.078-2.124-2.326-3.481-4.214-2.504-6.936 3.597-22.165 8.67-40.442-2.592-1.924-1.185-4.412.102-4.48 2.36" fill="#e4bc9a"/><path d="M381.566 504.982c1.755 3.77-5.277-14.114-2.49-11.028 5.806 6.43 37.492 45.515 45.743 48.152 9.967 3.186-15.987-19.94-15.987-19.94s83.007-48.459 81.26-50.854c-13.661-18.734-26.617-24.594-52.81-14.404-29.817 11.6-64.113 30.031-55.716 48.074" fill="#b89473"/><path d="M552.862 633.374c-.81.59-12.487 5.22-13.244 5.772-1.16.846-4.601 3.15-6.663 4.378-4.342 2.59-13.959 13.03-27.348 3.907-19.59-13.35 32.467-41.873 32.467-41.873l22.75-9.43c2.77-1.148 5.965-.869 8.605.755 4.875 2.994 6.356 9.483 3.17 14.028-5.47 7.799-6.158 12.566-19.737 22.463" fill="#1a2437"/><path d="M551.082 627.01c-.81.59-12.487 5.221-13.245 5.771-1.16.846-4.6 3.15-6.662 4.379-4.342 2.589-13.96 13.03-27.348 3.907-19.591-13.35 32.467-41.873 32.467-41.873l22.75-9.431c2.77-1.148 5.965-.868 8.605.755 4.875 2.995 6.357 9.484 3.17 14.029-5.471 7.798-6.158 12.567-19.737 22.462" fill="#844047"/><path d="M566.044 612.557c1.305-2.081 3.38-6.055 5.078-8.477 3.188-4.545 1.402-10.567-3.473-13.562-2.641-1.623-5.836-1.903-8.605-.755l-11.103 4.603c6.082 2.79 12.888 8.936 18.103 18.191" fill="#8d4549"/><path d="M449.138 551.447c15.737-11.35 31.444-23.073 48.245-32.834 2.54-1.476 5.115-2.895 7.759-4.18.607-.295 1.23-.562 1.832-.865 2.468-1.244-2.622 1.067-2.504 1.033 1.289-.371 2.521-.99 3.814-1.377.845-.254 1.711-.412 2.558-.65 3.21-.9-5.856.446-2.316.335 2.338-.072 4.117 1.029-2.469-.5 3.859.896-4.726-2.622-2.017-.97 1.961 1.197-4.646-4.143-2.232-1.668 2.003 2.053-3.376-4.82-1.646-2.049 2.102 3.372-1.17-3.986-.782-1.993.188.97.538 1.962.777 2.925 1.07 4.29-.357-4.457-.158-1.668.085 1.197.216 2.388.274 3.588.136 2.827.106 5.662.01 8.49-.383 11.369-.24 22.711-.165 34.09.123 18.795.328 37.676-1.004 56.436-.713 10.05 9.35 19.66 19.217 19.217 11.022-.493 18.454-8.452 19.217-19.217 2.16-30.43.365-60.993 1.198-91.455.35-12.757-.795-27.264-10.78-36.451-12.618-11.611-29.402-6.828-42.98-.064-19.67 9.797-37.5 23.84-55.246 36.64-8.132 5.866-12.891 16.992-6.895 26.293 5.198 8.063 17.573 13.183 26.293 6.894" fill="#cba57f"/><path d="M534.379 606.338c-8.741 6.374-25.477 3.914-31.007-5.62-.537 4.94-.991 9.881-1.305 14.83-1.282 20.16 30.031 22.987 31.318 2.75.253-3.99.596-7.976.994-11.96" fill="#e4edf6"/><path d="M495.43 596.857l-.871 13.898a2.87 2.87 0 00.41 1.69c1.836 3.013 9.225 13.22 24.451 11.894 13.35-1.163 20.774-4.683 23.661-6.377a2.889 2.889 0 001.422-2.52l-.053-14.234c-.008-2.125-2.21-3.556-4.129-2.64-7.05 3.366-22.44 7.935-40.335-3.922-1.883-1.248-4.413-.044-4.555 2.211" fill="#e4bc9a"/><path d="M519.071 672.395l.42-.061a5.184 5.184 0 004.367-5.89l-20.18-136.033a5.184 5.184 0 00-5.888-4.367l-.419.063a5.184 5.184 0 00-4.367 5.888l20.18 136.033a5.183 5.183 0 005.887 4.367" fill="#492e50"/><path d="M267.604 497.976l-1.62-.24a4.75 4.75 0 01-4.002-5.395l29.367-198.013a4.75 4.75 0 015.395-4.002l1.62.241a4.75 4.75 0 014.001 5.395L273 493.975a4.75 4.75 0 01-5.395 4.001" fill="#64546a"/><path d="M285.676 328.834h-35.64v-20.698h35.64v20.698M933.668 461.177H898.03v-20.699h35.637v20.699" fill="#adc5e9"/><path d="M694.756 589.973L254.582 335.836c-6.9-3.984-6.035-10.942 1.933-15.542L461.91 201.709c7.968-4.601 20.021-5.1 26.922-1.117l440.18 254.137c6.902 3.984 6.034 10.943-1.938 15.543L721.68 588.857c-7.962 4.6-20.02 5.1-26.923 1.116" fill="#adc5e9"/><path d="M694.756 570.12L254.582 315.983c-6.9-3.984-6.035-10.942 1.933-15.542L461.91 181.855c7.968-4.6 20.021-5.1 26.922-1.116l440.18 254.137c6.902 3.984 6.034 10.942-1.938 15.542L721.68 569.004c-7.962 4.6-20.02 5.1-26.923 1.116" fill="#eef8fd"/><path d="M381.956 455.49l-91.118 70.392c-14.882 9.111-26.055.067-26.04-15.59l-1.735-25.49c.014-15.657 12.201-35.922 27.083-45.032l91.878-56.255c14.881-9.11 27.044-3.754 27.03 11.902l-.015 15.041c-.014 15.657-12.202 35.921-27.083 45.033" fill="#a22366"/><path d="M263.797 678.79a5.395 5.395 0 01-4.545-6.128l25.391-171.207a5.395 5.395 0 0110.674 1.583l-25.391 171.207a5.395 5.395 0 01-6.129 4.545M383.805 751.605a5.584 5.584 0 01-4.704-6.343l28.64-193.11a5.583 5.583 0 1111.046 1.637L390.147 746.9a5.584 5.584 0 01-6.342 4.704" fill="#492e50"/><path d="M406.795 614.773l-115.267-66.55c-12.39-7.153-19.237-21.402-19.237-21.402-4.638-10.648 6.422-18.354 18.813-11.2l121.2 71.355c12.39 7.154 17.065 14.625 15.063 23.495 0 0-4.867 12.406-20.572 4.302" fill="#ee1997"/><path d="M637.44 381.953l-128.196-74.015a2.35 2.35 0 00-2.368.012l-38.918 22.97c-1.55.913-1.539 3.157.02 4.057L595.74 408.74a2.35 2.35 0 002.349 0l39.352-22.72c1.565-.903 1.565-3.164 0-4.068" fill="#adc5e9"/><path d="M598.178 403.683l-127.764-73.764c-1.558-.9-1.568-3.144-.02-4.057l38.919-22.97a2.35 2.35 0 012.368-.012l128.197 74.015c1.566.904 1.566 3.165 0 4.069l-39.352 22.719c-.727.42-1.621.42-2.348 0" fill="#fff"/><path d="M515.647 314.371c-.207.119-.628.07-.938-.108l-8.619-4.974c-.311-.18-.396-.424-.19-.542l5.71-3.299c.207-.12.626-.07.937.11l8.62 4.973c.31.18.396.422.189.542l-5.71 3.298M525.645 329.223c-.208.12-.625.073-.94-.11l-8.619-4.973c-.31-.18-.393-.42-.184-.54l5.711-3.3c.203-.117.622-.07.932.11l8.619 4.972c.314.183.396.424.193.541l-5.712 3.3M520.59 335.388c-.207.12-.625.07-.934-.11l-8.62-4.975c-.307-.176-.399-.42-.193-.54l5.714-3.299c.201-.118.627-.066.933.11l8.62 4.976c.31.178.395.422.193.539l-5.712 3.3M506.914 336.579c-.204.117-.625.069-.934-.11l-8.62-4.973c-.307-.178-.392-.421-.187-.54l5.711-3.299c.204-.118.629-.07.935.107l8.62 4.975c.309.178.39.421.187.54l-5.712 3.3M498.056 341.693c-.207.12-.704.025-1.114-.21l-11.292-6.518c-.404-.233-.57-.522-.364-.641l6.706-3.873c.201-.117.706-.023 1.11.21l11.293 6.516c.41.236.568.527.367.643l-6.706 3.873M572.242 384.568c-.172.098-.563.033-.873-.145l-8.613-4.971c-.314-.182-.43-.41-.26-.508l2.48-1.433c.17-.097.566-.032.88.15l8.613 4.97c.31.179.422.406.252.505l-2.479 1.432M583.758 391.386c-.171.1-.563.034-.873-.146l-8.613-4.97c-.314-.18-.43-.41-.26-.508l2.48-1.432c.17-.098.566-.032.88.15l8.613 4.97c.31.179.422.406.252.504l-2.479 1.432M595.967 398.272c-.164.096-.553.026-.863-.153l-8.616-4.972c-.308-.178-.433-.405-.268-.5l2.388-1.38c.164-.094.558-.024.866.155l8.616 4.972c.31.179.429.405.265.499l-2.388 1.38M588.458 388.757c-.164.096-.553.026-.863-.153l-8.616-4.972c-.308-.178-.433-.404-.268-.5l2.389-1.38c.163-.094.557-.023.865.156l8.616 4.972c.31.178.429.404.266.498l-2.389 1.38M557.345 375.904c-.206.119-.629.068-.94-.112l-56.089-32.368c-.305-.176-.397-.422-.192-.541l6.706-3.873c.202-.117.632-.067.937.11l56.089 32.368c.311.179.396.426.195.542l-6.706 3.874" fill="#adc5e9"/><path d="M551.6 370.997c-.013.007-.227-.105-.475-.248l-44.64-25.761c-.244-.14-.438-.265-.426-.273l.417-.24c.012-.008.23.105.472.246l44.64 25.76c.248.144.441.267.429.275l-.417.24M518.73 343.392c-.204.117-.625.07-.938-.111l-8.618-4.974c-.306-.176-.395-.423-.192-.54l5.711-3.3c.206-.119.634-.067.94.11l8.618 4.972c.313.18.395.425.19.543l-5.712 3.3M530.596 350.24c-.203.117-.627.068-.933-.108l-8.617-4.974c-.31-.179-.398-.424-.193-.541l5.711-3.3c.205-.118.63-.068.94.11l8.617 4.973c.307.177.392.421.187.54l-5.712 3.3M542.464 357.088c-.203.118-.625.07-.933-.108l-8.62-4.975c-.308-.177-.392-.42-.187-.538l5.71-3.299c.205-.119.628-.071.936.107l8.62 4.974c.308.177.39.421.186.54l-5.712 3.3M554.333 363.938c-.203.118-.624.07-.934-.109l-8.62-4.974c-.312-.18-.396-.424-.191-.542l5.711-3.3c.205-.117.628-.07.939.11l8.62 4.975c.31.179.392.422.186.54l-5.71 3.3M566.203 370.787c-.204.118-.63.068-.94-.112l-8.617-4.972c-.308-.178-.393-.421-.188-.54l5.71-3.298c.206-.119.628-.07.936.107l8.617 4.972c.312.18.398.426.193.544l-5.711 3.299M578.072 377.63c-.204.12-.627.07-.936-.108l-8.618-4.973c-.31-.18-.395-.423-.191-.542l5.71-3.299c.206-.118.63-.07.94.11l8.617 4.972c.31.179.395.424.19.542l-5.712 3.299M604.804 393.057c-.205.118-.626.07-.936-.11l-23.483-13.55c-.31-.18-.394-.423-.19-.54l5.712-3.3c.204-.118.626-.07.937.108l23.482 13.552c.31.178.393.422.19.54l-5.712 3.3M532.4 342.198c-.207.12-.62.073-.93-.108l-8.62-4.974c-.31-.179-.397-.419-.19-.538l5.712-3.3c.203-.118.622-.07.933.109l8.62 4.975c.311.18.39.42.189.537l-5.713 3.3M544.272 349.049c-.208.12-.626.068-.934-.109l-8.623-4.977c-.306-.176-.393-.417-.186-.537l5.712-3.3c.203-.117.623-.069.93.109l8.623 4.976c.306.177.392.42.19.538l-5.712 3.3M556.14 355.898c-.208.12-.628.067-.935-.11l-8.619-4.974c-.306-.176-.4-.421-.193-.54l5.712-3.301c.203-.117.63-.064.936.112l8.619 4.973c.307.178.394.423.193.54l-5.713 3.3M568.006 362.746c-.208.12-.625.069-.934-.11l-8.617-4.972c-.31-.18-.398-.42-.192-.54l5.713-3.3c.203-.117.624-.069.934.11l8.617 4.973c.31.179.393.421.192.538l-5.713 3.3M579.88 369.591c-.208.12-.627.069-.935-.108l-8.622-4.976c-.31-.18-.396-.42-.19-.54l5.713-3.299c.203-.116.622-.07.932.11l8.623 4.975c.307.177.393.422.19.539l-5.712 3.3M591.743 376.438c-.207.12-.623.07-.933-.109l-8.615-4.972c-.314-.18-.401-.42-.194-.54l5.712-3.3c.203-.118.624-.07.937.112l8.616 4.972c.31.178.392.42.19.538l-5.713 3.3M603.611 383.287c-.207.12-.624.07-.933-.108l-8.622-4.976c-.308-.178-.392-.417-.186-.537l5.713-3.3c.203-.117.62-.07.928.108l8.623 4.976c.307.177.392.42.19.537l-5.713 3.3M537.458 336.034c-.208.12-.628.071-.938-.108l-8.62-4.974c-.306-.176-.391-.42-.183-.54l5.712-3.3c.203-.116.623-.068.93.109l8.619 4.974c.311.18.395.423.192.54l-5.712 3.299M549.324 342.882c-.209.12-.63.07-.936-.106l-8.619-4.974c-.31-.18-.396-.422-.187-.543l5.711-3.3c.203-.116.625-.068.934.111l8.62 4.974c.306.177.391.42.189.538l-5.712 3.3M561.193 349.731c-.208.12-.628.072-.94-.108l-8.618-4.973c-.307-.179-.392-.42-.184-.541l5.711-3.3c.204-.116.624-.068.931.11l8.619 4.972c.312.18.395.423.193.54l-5.712 3.3M573.059 356.578c-.209.12-.625.074-.936-.106l-8.62-4.974c-.31-.179-.395-.422-.187-.542l5.711-3.3c.203-.116.624-.068.934.111l8.62 4.974c.311.18.392.421.19.538l-5.712 3.3M584.93 363.423c-.209.12-.63.072-.934-.104l-8.62-4.975c-.312-.18-.394-.421-.186-.541l5.712-3.3c.202-.117.62-.07.933.11l8.62 4.975c.305.175.39.419.187.536l-5.712 3.3M596.8 370.274c-.208.12-.628.071-.942-.11l-8.617-4.973c-.306-.176-.393-.42-.185-.54l5.711-3.3c.204-.118.627-.068.932.109l8.619 4.974c.312.18.397.423.195.54l-5.713 3.3M608.666 377.122c-.208.12-.628.07-.937-.107l-8.62-4.974c-.31-.18-.393-.421-.185-.542l5.711-3.3c.203-.116.623-.069.933.11l8.62 4.974c.308.179.392.422.19.538l-5.712 3.3M513.777 322.374c-.208.12-.628.071-.94-.108l-14.613-8.433c-.311-.18-.397-.423-.188-.543l5.712-3.3c.202-.117.623-.068.935.111l14.614 8.434c.311.179.395.422.193.54l-5.713 3.299M628.398 379.427c-.206.119-.627.07-.937-.108l-14.615-8.435c-.306-.175-.394-.421-.188-.54l5.71-3.298c.207-.12.63-.069.936.108l14.614 8.434c.31.178.397.421.19.54l-5.71 3.3M508.72 328.538c-.208.12-.622.07-.935-.11l-17.422-10.054c-.312-.18-.4-.42-.192-.54l5.712-3.3c.202-.117.624-.069.934.111L514.24 324.7c.313.181.394.422.192.539l-5.712 3.3M495.05 329.732c-.204.117-.626.07-.937-.11l-11.616-6.704c-.312-.18-.395-.423-.192-.541l5.712-3.3c.205-.117.627-.07.938.11l11.617 6.703c.31.18.394.424.19.542l-5.712 3.3M527.512 321.218c-.207.12-.625.072-.94-.11l-8.613-4.97c-.31-.179-.396-.423-.19-.541l5.71-3.299c.207-.12.628-.07.938.109l8.613 4.971c.314.181.398.422.191.542l-5.71 3.298M539.328 328.031c-.207.12-.629.07-.94-.11l-8.619-4.973c-.307-.178-.395-.422-.189-.541l5.71-3.299c.207-.12.63-.07.938.11l8.619 4.973c.31.18.397.422.19.542l-5.71 3.298M551.19 334.877c-.206.12-.622.074-.933-.107l-8.62-4.974c-.308-.178-.393-.42-.187-.54l5.71-3.298c.207-.12.626-.07.935.108l8.619 4.974c.311.18.392.42.186.539l-5.71 3.298M563.063 341.729c-.207.118-.629.07-.938-.11l-8.615-4.971c-.312-.18-.396-.422-.19-.542l5.71-3.298c.207-.12.626-.07.938.11l8.614 4.97c.31.179.397.423.19.542l-5.71 3.299M574.926 348.575c-.207.12-.621.073-.933-.107l-8.618-4.972c-.312-.181-.396-.423-.19-.543l5.71-3.298c.207-.12.626-.07.938.11l8.617 4.972c.312.18.392.42.185.54l-5.71 3.298M586.8 355.422c-.206.12-.628.069-.935-.107l-8.622-4.976c-.308-.179-.391-.42-.185-.54l5.71-3.298c.207-.12.625-.071.933.106l8.623 4.976c.306.178.393.42.186.54l-5.71 3.299M598.668 362.27c-.206.12-.626.07-.938-.109l-8.617-4.973c-.312-.18-.398-.424-.192-.542l5.71-3.299c.207-.12.628-.07.94.11l8.618 4.974c.31.18.396.421.189.54l-5.71 3.3M610.532 369.117c-.206.12-.624.072-.932-.106l-8.625-4.977c-.306-.177-.39-.419-.183-.538l5.71-3.298c.207-.12.625-.071.931.105l8.625 4.978c.308.177.391.418.184.538l-5.71 3.298M617.434 375.157a1.318 1.318 0 00-.505-.166c-.182-.02-.329.002-.424.058l-5.712 3.3c-.096.055-.14.141-.103.248.04.105.142.209.285.29l2.25 1.3-7.49 4.326c-.096.056-.134.145-.096.249.036.105.142.207.288.291l5.807 3.35c.146.085.322.147.507.17.183.022.333-.002.43-.058l13.577-7.843c.097-.055.135-.14.096-.247-.037-.108-.144-.21-.29-.294l-8.62-4.974" fill="#adc5e9"/><path d="M330.195 354.73c7.167 9.703 14.323 19.51 22.228 28.632 3.874 4.472 8.31 9.468 14.156 11.256 7.846 2.4 15.466-2.24 17.829-9.864 1.05-3.385.982-7.143 1.183-10.661.046-.793.118-1.587.165-2.38.195-3.277-.753 3.023-.083.517.165-.617.293-1.268.426-1.893.725-3.403-1.147 2.034-.157.229 1.428-2.604-2.128 2.227-.45.584 1.258-1.234-2.898 2.039-1.389 1.094.905-.566 2.437-.83-1.617.632 2.752-.992-2.113-.256-.823 0 2.315.46 5.217.05 7.562-.09 22.03-1.319 42.084-10.928 60.576-22.362 8.678-5.366 17.075-11.212 25.942-16.27 1.949-1.111 3.922-2.183 5.941-3.16.808-.393 1.626-.76 2.443-1.132-3.189 1.455.282-.056.98-.29 1.718-.579 3.444-.93 5.208-1.32-3.578.79-1.49.127-.468.182 1.008.054 4.223.433.071-.202 6.593 1.01 13.296-1.668 15.211-8.636 1.608-5.853-1.995-14.194-8.637-15.21-17.062-2.611-31.858 7.22-45.614 16.047-8.016 5.143-15.989 10.368-24.33 14.976-9.584 5.294-16.053 8.322-26.538 10.904-5.357 1.319-7.205 1.607-12.096 1.81-3.904.162-7.802-.294-11.632.791-6.672 1.89-11.32 7.02-13.555 13.429-1.308 3.751-1.638 7.802-1.865 11.75-.08 1.399-.183 2.808-.221 4.208-.078 2.875.43-2.222.217-1.326-.614 2.58.452-.754.703-1.18 1.531-2.602 5.263-5.243 9.341-5.23 3.834.013 3.717.673 2.48.294 3.764 1.151 2.913 1.316 1.68.594-1.545-.904.831-.44 1.244 1-.103-.36-1.207-1.06-1.493-1.33-.95-.892-1.846-1.843-2.73-2.801-7.945-8.624-13.582-16.66-20.534-26.074-3.962-5.363-10.716-8.063-16.918-4.435-5.29 3.095-8.426 11.515-4.436 16.917" fill="#f89a74"/><path d="M708 409.043c-9.263 5.352-24.339 5.326-33.66-.058-9.33-5.384-9.379-14.087-.106-19.438 9.264-5.352 24.33-5.326 33.66.058 9.322 5.383 9.37 14.087.107 19.438M835.838 438.804c-8.136 4.708-21.37 4.694-29.554-.029-8.175-4.724-8.213-12.37-.078-17.078 8.136-4.708 21.37-4.695 29.555.029 8.184 4.724 8.212 12.37.077 17.078" fill="#adc5e9"/><path d="M698.361 406.542c-8.193 4.73-21.515 4.706-29.756-.053-8.242-4.76-8.28-12.452-.097-17.181 8.194-4.73 21.515-4.705 29.767.054 8.241 4.759 8.28 12.45.086 17.18" fill="#7d78c3"/><path d="M700.964 398.326l-38.567-.144v-34.348l38.567.32v34.172" fill="#7d78c3"/><path d="M693.021 363.977v31.388l-.038 1.218c.029 5.293-2.7 6.217-6.815 8.591-2.468 1.424-5.504 3.004-8.618 3.567 7.22 1.301 15.346-.577 21.043-3.865 4.116-2.374 6.12-4.217 6.092-9.51h-.02l-.125-31.134-11.519-.255" fill="#706bbc"/><path d="M698.361 372.772c-8.193 4.73-21.515 4.705-29.756-.054-8.242-4.758-8.28-12.45-.097-17.18 8.194-4.73 21.515-4.706 29.767.053 8.241 4.76 8.28 12.451.086 17.181" fill="#b7acdd"/><path d="M695.874 371.082c-6.766 3.908-17.775 3.89-24.59-.045-6.815-3.933-6.843-10.29-.077-14.2 6.767-3.908 17.785-3.888 24.59.045 6.815 3.934 6.854 10.29.077 14.2" fill="#a599d4"/><path d="M695.797 363c-6.805-3.933-17.823-3.953-24.59-.044-2.014 1.161-3.402 2.54-4.222 4.006.83 1.488 2.246 2.893 4.3 4.075 6.814 3.934 17.823 3.953 24.59.045 2.014-1.16 3.412-2.54 4.221-4.006-.819-1.489-2.245-2.893-4.299-4.076" fill="#504d84"/><path d="M671.207 371.082c-2.014-1.16-3.402-2.54-4.222-4.006.473-.852 1.147-1.674 2.015-2.444 5.89-.985 12.483-.15 17.1 2.516 2.005 1.161 3.403 2.54 4.213 4.006.375.652.636 1.285.742 1.892-1.022.248-1.957.443-2.757.552-5.88.985-12.473.15-17.09-2.516" fill="#6562a0"/><path d="M697.156 378.594c3.008 1.583 6.324 2.715 7.452 6.327.732 2.363.183 5.921.183 8.381-.01 2.061.607 7.293-1.774 7.328-1.234.018-3.47-1.636-4.588-2.218-1.658-.856-3.114 1.639-1.465 2.498 1.995 1.032 5.128 3.335 7.518 2.986 2.989-.437 3.075-3.743 3.143-6.07.115-4.466.916-10.267-.26-14.608-1.051-3.896-5.514-5.419-8.753-7.121-1.648-.866-3.104 1.63-1.456 2.497" fill="#3f3d6b"/><path d="M328.243 330.838c-7.986 8.638-7.746 14.22-8.719 26.478-.951 11.985 6.139 22.73 17.445 26.51l112.652 37.669s31.508-43.8-5.475-59.696c-19.239-8.269-32.261-19.694-46.675-29.698-21.172-14.692-50.778-21.216-69.228-1.263" fill="#504b81"/><path d="M317.27 523.567c-7.533-2.681-5.463-107.093 3.472-178.498l131.838 60.086c-11.672 61.794-11.633 108.693-6.43 182.347l-128.88-63.935" fill="#504b81"/><path d="M452.58 405.155l-21.883-9.764c-13.312 62.8-15.928 108.358-6.276 179.121l-.365-.105c.035 4.098-3.054 8.55-9.079 12.09-10.734 6.308 4.994 9.513 15.728 3.204l27.911-54.975c-6.036-60.45-21-47.627-6.036-129.571" fill="#403f6a"/><path d="M524.192 557.049l-91.879 56.254c-14.88 9.111-26.382 4.835-25.56-9.502l.79-13.774c.823-14.338 13.672-33.523 28.552-42.634l91.878-56.254c14.88-9.111 26.383-4.835 25.561 9.502l-.79 13.774c-.823 14.338-13.67 33.523-28.552 42.634" fill="#ee1997"/><path d="M271.317 520.641l-14.206-128.328c-2.765-18.671 13.554-23.784 35.343-11.072l87.133 50.832c15.699 9.158 30.141 25.32 36.108 40.404l32.954 83.312c9.447 23.883-22.543 62.795-44.538 49.652l-132.794-84.8" fill="#ee1997"/><path d="M619.256 435.51l-17.338 11.883c-6.392 4.379-15.205 2.734-19.585-3.658-4.383-6.391-2.737-15.206 3.656-19.587l17.338-11.881c6.392-4.38 15.205-2.735 19.585 3.656 4.382 6.392 2.737 15.206-3.656 19.587" fill="#3f3d6b"/><path d="M452.114 408.602c10.226 9.153 19.378 19.18 28.438 29.46 6.386 7.247 13.127 14.01 22.302 17.546 21.966 8.467 46.553-6.226 65.594-15.78 13.232-6.639 24.1-12.755 37.72-16.124 15.441-3.82 8.9-27.675-6.574-23.847-11.88 2.94-23.13 8.444-34.059 13.836-5.74 2.831-11.435 5.75-17.18 8.572a363.105 363.105 0 01-8.086 3.864c-3.286 1.514-4.172 1.914-6.593 2.863-4.574 1.794-9.2 3.21-14.012 4.203-2.223.458 1.864.086-.981.04-.925-.015-1.853.051-2.781.024-1.012-.029-2.014-.154-3.023-.212 2.336.133 1.286.18-.24-.215-.823-.214-1.695-.66-2.522-.796 1.573.257 1.85.955.263.03-.642-.374-1.295-.722-1.922-1.123-1.3-.829-2.301-2.118-.588-.33-2.769-2.89-5.784-5.487-8.466-8.493-9.586-10.744-19.051-21.38-29.805-31.004-4.974-4.452-12.58-4.906-17.485 0-4.529 4.529-4.996 13.015 0 17.486" fill="#f89a74"/><path d="M429.014 397.278l47.336 46.183c15.382 11.267 35.593-17.061 23.664-27.387l-46.086-48.238c-7.654-6.57-17.996-6.535-23.92.08-6.173 6.896-8.126 21.506-.994 29.362" fill="#504b81"/><path d="M543.299 260.399h-.016c-.002-.964-.283-1.015-.887-1.364L520.06 246.11c-1.338-.773-3.675-.69-5.22.202l-40.434 23.338c-.806.464-1.228 1.05-1.266 1.616l-.013-.01.068 2.237.012.01c-.2.628.055 1.262.824 1.706l22.335 12.894c.669.387 1.587.555 2.532.516.945-.039 1.915-.286 2.688-.732l40.434-23.345c.821-.474 1.24-1.076 1.264-1.652l.01.055.004-2.547" fill="#adc5e9"/><g clip-path="url(#a)" transform="matrix(.0964 0 0 -.0964 -312.671 827.193)"><path d="M8118.58 5766.22l-.7 23.21 29.96-19.37s-8.42-21.06-9.34-20.33c-.91.73-19.92 16.49-19.92 16.49" fill="url(#b)"/></g><g clip-path="url(#c)" transform="matrix(.0964 0 0 -.0964 -312.671 827.193)"><path d="M8358.96 5614.64l-231.71 133.77c-13.88 8.02-12.14 22.02 3.89 31.27l419.47 242.18c16.03 9.26 40.27 10.26 54.15 2.25l231.71-133.78c13.88-8.01 12.14-22.01-3.89-31.26l-419.47-242.18c-16.03-9.26-40.27-10.26-54.15-2.25" fill="url(#d)"/></g><path d="M495.509 273.584l16.043-26.86c1.545-.892 3.882-.989 5.22-.216l22.335 12.895c1.338.772 1.17 2.122-.375 3.013l-40.434 23.345c-.773.446-1.744.694-2.688.732l-.101-12.909" fill="#b7d3ef"/><path d="M513.105 264.677l4.1-5.565 22.805-.958-.006 2.607-24.922 7.942-1.977-4.026" fill="#92b0df"/><path d="M473.018 272.904c0 .387-.273.545-.612.349-.338-.196-.612-.668-.612-1.057 0-.387.274-.543.612-.349.339.196.612.668.612 1.057M493.078 283.425l-22.335-12.895c-1.338-.772-1.17-2.122.375-3.013l40.434-23.346c1.545-.892 3.882-.988 5.22-.216l22.335 12.895c1.338.773 1.17 2.121-.375 3.014l-40.434 23.344c-1.546.892-3.882.99-5.22.217" fill="#3f3d6b"/><path d="M528.689 253.06l-6.168-3.56c-.254-.148-.222-.406.072-.576.294-.17.742-.188.996-.041l6.167 3.56c.254.147.222.406-.072.575-.294.17-.742.189-.995.041" fill="#504d84"/><path d="M483.905 279.87l-4.954-2.86c-.21-.121-.381-.449-.381-.728 0-.28.171-.41.381-.289l4.954 2.86c.21.12.38.449.38.73 0 .279-.17.408-.38.287" fill="#3f3d6b"/><path d="M532.98 264.585l2.438-1.408c.144-.084.263-.31.263-.503s-.119-.283-.263-.199l-2.439 1.408c-.145.083-.263.31-.263.503 0 .192.118.282.263.2M529.52 266.757l2.44-1.408c.144-.083.262-.31.262-.503 0-.192-.118-.282-.263-.198l-2.44 1.407c-.144.084-.263.31-.263.503s.119.283.264.199M486.636 275.337c-1.033.597-2.715.594-3.756-.007-1.042-.6-1.046-1.572-.012-2.169s2.716-.594 3.756.007c1.041.6 1.046 1.572.012 2.169" fill="#504d84"/><path d="M512.81 245.507l-34 19.63a1.188 1.188 0 000 2.059l20.642 11.918c.369.212.82.212 1.189 0l34-19.63c.793-.458.793-1.601 0-2.058l-20.643-11.919a1.188 1.188 0 00-1.187 0" fill="#a4ccee"/><path d="M825.774 434.095c-8.993 5.192-23.616 5.165-32.667-.059-9.052-5.223-9.09-13.667-.106-18.858 8.993-5.192 23.616-5.165 32.667.059 9.052 5.223 9.09 13.667.106 18.858" fill="#86a4c6"/><path d="M775.495 392.252l10.864 33.319 45.96.755 10.488-32.113-67.312-1.961" fill="#86a4c6"/><path d="M829.755 394.386l-10.497 32.774c-.598 1.927-2.776 5.187-6.545 7.364-2.728 1.574-5.976 2.533-9.418 3.125 7.76 1.305 16.397.438 22.48-3.07 3.768-2.177 5.937-5.492 6.535-7.42h.01l10.487-32.773h-13.052" fill="#7392af"/><path d="M833.592 404.106c-13.283 7.67-34.895 7.63-48.255-.088-13.37-7.717-13.437-20.19-.154-27.86 13.283-7.668 34.885-7.629 48.255.088 13.37 7.718 13.437 20.191.154 27.86" fill="#96b6d5"/><path d="M829.929 401.49c-11.403 6.584-29.95 6.55-41.42-.074-11.48-6.624-11.539-17.332-.135-23.915 11.403-6.582 29.95-6.548 41.42.076 11.48 6.624 11.538 17.33.135 23.913" fill="#303156"/><path d="M786.793 382.744c-1.417-1.86-2.68-3.954-2.911-6.28-.241-2.327.8-4.913 2.93-5.875 2.477-1.118 5.417.275 7.336 2.196 1.918 1.921 3.287 4.368 5.36 6.123-2.652-8.407-5.312-16.812-7.963-25.219-.81-2.551-1.63-5.241-1.08-7.862.54-2.621 2.96-5.061 5.6-4.628 5.071.833 4.329 9.42 8.84 11.881a64.773 64.773 0 01-6.641-20.022c-.646-4.08-.858-8.452.983-12.151s6.333-6.35 10.198-4.882c4.772 1.815 5.707 8.052 5.88 13.16.222 6.572.434 13.144.656 19.716 1.61-6.581 4.106-14.174 10.536-16.311 1.754 9.016.414 18.603-3.74 26.793 1.706-2.99 5.022-4.987 8.463-5.087 1.62 9.194-1.523 19.1-8.155 25.672 1.831-2.033 3.653-4.066 5.485-6.098 1.638 6.37-.588 13.575-5.524 17.92-11.567 10.18-28.397 1.262-36.253-9.046" fill="#64caac"/><path d="M563.379 269.453l168.45 99.444c1.176.697 2.709.666 4-.083l12.165-7.025c2.796-1.612 3.114-5.505.57-7.006l-168.45-99.444c-1.18-.696-2.705-.664-4.002.085l-12.166 7.024c-2.794 1.613-3.11 5.505-.567 7.005" fill="#adc5e9"/><path d="M739.145 360.811l9.302-6.335-25.419-31.302 8.936 14.832 7.181 22.805" fill="#8cacd2"/><path d="M549.954 89.807l9.012-7.268 19.946 22.364s-12.72 9.356-13.876 9.356c-1.157 0-15.082-24.452-15.082-24.452" fill="#bad1ed"/><path d="M620.795 347.475L582.8 325.538c-3.049-1.76-2.96-4.623.197-6.298l53.66-28.457c2.972-1.576 7.584-1.511 10.457.147l34.167 19.728c2.902 1.672 2.989 4.36.203 6.072l-49.836 30.665c-2.91 1.79-7.826 1.827-10.852.08" fill="#8cacd2"/><g clip-path="url(#e)" transform="matrix(.0964 0 0 -.0964 -312.671 827.193)"><path d="M9739.66 5016.66c-20.12 0-40.3 4.44-55.74 13.36l-394.18 227.58c-2.98 1.72-5.68 3.55-8.08 5.45-23.09 18.31-19.53 44.15 10.12 59.87l306.06 162.32 25.87 13.72-27.9-14.8 481.39-280.59-280.7-172.72c-15.34-9.44-36.06-14.19-56.84-14.19" fill="url(#f)"/></g><path d="M614.992 297.129l5.979-3.17-5.98 3.17" fill="#8397c3"/><path d="M658.869 325.697l-.164-.095 8.425-5.183.164.094-8.425 5.184" fill="#6a83af"/><g clip-path="url(#g)" transform="matrix(.0964 0 0 -.0964 -312.671 827.193)"><path d="M10077.2 5203.57l-481.39 280.59 27.9 14.8 62.03 32.89 478.86-274.51-87.4-53.77" fill="url(#h)"/></g><path d="M746.471 189.972l-.25.06h.058L562.877 83.752l-1.705-1.098c-1.397-.813-3.094.12-3.094 1.852l1.544.457h1.032V253.69c0 1.881.718 4.144 2.236 5.027 0 0 185.529 90.186 185.529 88.305l.202-152.35v-.274c0-1.731-.762-3.615-2.15-4.427" fill="#bad1ed"/><path d="M670.696 255.764c23.839-23.975 37.266 44.06 52.332 81.356 7.558 18.704 25.313 17.548 25.313 17.548l.28-158.995v-.727c0-.94-.068-2.295-.53-3.184l-77.395 64.002" fill="#8cacd2"/><g clip-path="url(#i)" transform="matrix(.0964 0 0 -.0964 -312.671 827.193)"><path d="M10907.5 4834.96c-3.9 0-8.3 1.25-12.9 3.9l-685.1 392.75-43.2 24.76-1.7.97-478.86 274.51-580.94 333.04-133.63 76.6c-15.87 9.1-28.86 31.34-28.86 49.42l.03 213.82c4.79-11.18 12.99-21.5 22.25-26.84l1931.31-1115.03c4.2-2.42 8.1-3.56 11.7-3.56 8.8 0 14.8 7.09 14.8 19.27l-3.1 1408.48c0 10.54-4.6 22.54-11.5 32.16 9.4-10.83 15.9-25.7 15.9-38.49l-.2-1464.84v-64.31l-.1-96.38c0-12.81-6.5-20.23-15.9-20.23" fill="url(#j)"/></g><path d="M737.622 339.166L551.457 231.684c-1.411-.813-2.568-2.828-2.572-4.474l-.298-135.769c-.004-1.647 1.147-2.329 2.557-1.514l186.16 107.48c1.417.815 2.574 2.829 2.574 4.476l.299 135.768c0 1.647-1.147 2.328-2.555 1.515" fill="#3f3d6b"/><path d="M730.509 320.807L555.353 219.68l.379-117.708L730.885 203.1l-.376 117.708" fill="#a4ccee"/><path d="M687.768 203.74l-95.234-54.983c-1.397-.806-2.529-2.968-2.529-4.83s1.132-2.717 2.529-1.911L687.768 197c1.397.806 2.525 2.969 2.525 4.83 0 1.861-1.128 2.717-2.525 1.91" fill="#6966a3"/><path d="M688.76 234.51l-76.698-44.283c-1.396-.806-2.528-2.969-2.528-4.83 0-1.862 1.131-2.717 2.528-1.912l76.699 44.283c1.397.806 2.525 2.969 2.525 4.83 0 1.862-1.128 2.718-2.525 1.911" fill="#d92576"/><path d="M688.76 251.317l-25.36-14.645c-1.398-.807-2.536-2.97-2.536-4.832 0-1.861 1.138-2.717 2.535-1.91l25.362 14.645c1.397.806 2.525 2.969 2.525 4.83 0 1.861-1.128 2.717-2.525 1.912M625.455 214.766l-12.28-7.09c-1.396-.805-2.528-2.969-2.528-4.83 0-1.861 1.132-2.717 2.529-1.911l12.28 7.09c1.395.805 2.528 2.968 2.528 4.83s-1.133 2.717-2.529 1.911M610.11 223.758l-16.211-9.36c-1.396-.806-2.528-2.968-2.528-4.83s1.132-2.717 2.528-1.91l16.21 9.358c1.396.806 2.529 2.969 2.529 4.83 0 1.862-1.133 2.718-2.529 1.912" fill="#6966a3"/><path d="M636.175 255.756L593.9 231.348c-1.397-.806-2.529-2.97-2.529-4.83 0-1.863 1.132-2.718 2.529-1.912l42.275 24.408c1.396.807 2.528 2.969 2.528 4.83 0 1.862-1.132 2.717-2.528 1.912" fill="#d92576"/><path d="M688.269 268.88l-65.904-38.047c-1.397-.806-2.529-2.969-2.529-4.83 0-1.862 1.132-2.718 2.529-1.912l65.904 38.048c1.388.807 2.526 2.969 2.526 4.831 0 1.861-1.138 2.717-2.526 1.91M651.256 229.663l-10.627-6.136c-1.396-.806-2.528-2.969-2.528-4.83 0-1.862 1.132-2.717 2.528-1.911l10.627 6.135c1.396.806 2.533 2.969 2.533 4.83 0 1.863-1.137 2.718-2.533 1.912M638.507 188.973l-26.445-15.268c-1.397-.805-2.528-2.969-2.528-4.83 0-1.862 1.131-2.717 2.528-1.911l26.445 15.268c1.397.806 2.528 2.968 2.528 4.83s-1.131 2.718-2.528 1.911" fill="#6966a3"/><path d="M655.302 198.67l-7.42-4.284c-1.398-.807-2.53-2.97-2.53-4.83 0-1.863 1.132-2.719 2.53-1.912l7.42 4.286c1.398.805 2.526 2.968 2.526 4.83 0 1.861-1.128 2.717-2.526 1.91" fill="#d92576"/><path d="M602.526 238.923l-40.878-21.238 59.827-22.023 38.965 22.497-10.752 3.856-9.059-5.23c-.356-.206-.696-.303-1.003-.303-.897 0-1.525.829-1.525 2.215 0 1.861 1.132 4.024 2.528 4.83l1.855 1.071-11.87 4.256-8.25-4.763c-.356-.205-.695-.303-1.004-.303-.896 0-1.524.829-1.524 2.215 0 1.861 1.132 4.024 2.529 4.83l1.045.603-10.908 3.91-18.602-10.74c-.358-.206-.697-.304-1.005-.304-.896 0-1.524.83-1.524 2.215 0 1.862 1.132 4.025 2.529 4.83l11.398 6.582-2.772.994m-9.63-31.57c-.897 0-1.525.83-1.525 2.215 0 1.862 1.132 4.024 2.528 4.83l16.21 9.36c.357.205.696.302 1.004.302.896 0 1.525-.828 1.525-2.214 0-1.861-1.133-4.024-2.529-4.83l-16.21-9.359c-.357-.206-.696-.304-1.004-.304m19.276-6.721c-.896 0-1.524.828-1.524 2.214 0 1.861 1.132 4.025 2.529 4.83l12.28 7.09c.356.206.695.304 1.003.304.896 0 1.525-.83 1.525-2.215 0-1.862-1.133-4.025-2.529-4.83l-12.28-7.09c-.357-.206-.696-.303-1.004-.303m55.48 14.945l-39.045-22.54 10.418-3.835c.17.05.332.075.486.075.485 0 .89-.241 1.16-.682l12.743-4.69 34.355 19.836c.356.206.694.303 1.002.303.897 0 1.523-.828 1.523-2.214 0-1.861-1.128-4.024-2.525-4.83l-27.222-15.719 13.042-4.801 40.37 22.494-46.308 16.603m-20.773-28.237c-.897 0-1.524.828-1.524 2.215 0 1.862 1.131 4.024 2.528 4.83l7.421 4.285c.357.207.694.304 1.003.304.896 0 1.523-.828 1.523-2.214 0-1.862-1.128-4.025-2.526-4.83l-7.42-4.286c-.358-.206-.697-.304-1.005-.304" fill="#bddcf4"/><path d="M688.77 204.044c-.308 0-.646-.097-1.002-.303l-34.355-19.835 7.133-2.625L687.768 197c1.397.806 2.525 2.969 2.525 4.83 0 1.386-.626 2.214-1.523 2.214" fill="#9591bd"/><path d="M660.44 218.16l-38.965-22.498 7.131-2.625 39.044 22.54-7.21 2.582" fill="#e4569e"/><path d="M626.459 215.07c-.308 0-.647-.098-1.004-.304l-12.28-7.09c-1.396-.805-2.528-2.969-2.528-4.83 0-1.386.628-2.214 1.524-2.214.308 0 .647.097 1.005.303l12.28 7.09c1.395.805 2.528 2.968 2.528 4.83 0 1.386-.629 2.215-1.525 2.215M611.113 224.06c-.308 0-.647-.097-1.004-.302l-16.21-9.36c-1.396-.806-2.528-2.968-2.528-4.83 0-1.386.628-2.215 1.524-2.215.308 0 .647.098 1.004.304l16.21 9.359c1.396.806 2.529 2.969 2.529 4.83 0 1.386-.629 2.214-1.525 2.214" fill="#9591bd"/><path d="M605.298 237.93l-11.398-6.582c-1.397-.806-2.529-2.97-2.529-4.83 0-1.387.628-2.216 1.524-2.216.308 0 .647.098 1.005.304l18.602 10.74-7.204 2.583" fill="#e4569e"/><path d="M623.41 231.436l-1.045-.603c-1.397-.806-2.529-2.969-2.529-4.83 0-1.386.628-2.215 1.524-2.215.309 0 .648.098 1.005.303l8.248 4.763-7.203 2.582M642.484 224.598l-1.855-1.07c-1.396-.807-2.528-2.97-2.528-4.83 0-1.387.628-2.216 1.525-2.216.307 0 .647.097 1.003.304l9.059 5.229-7.204 2.583M639.51 189.277c-.154 0-.317-.024-.486-.075l1.647-.607c-.271.44-.676.682-1.16.682" fill="#9591bd"/><path d="M656.305 198.974c-.309 0-.646-.097-1.003-.304l-7.42-4.284c-1.398-.807-2.53-2.97-2.53-4.83 0-1.388.628-2.216 1.525-2.216.308 0 .647.098 1.004.304l7.421 4.286c1.398.805 2.526 2.968 2.526 4.83 0 1.386-.627 2.214-1.523 2.214" fill="#e4569e"/><path d="M562.582 208.417v-19.14l48.008-17.051c.415.636.923 1.162 1.472 1.48l18.847 10.881-10.56 3.683-8.287-4.785c-.356-.206-.696-.303-1.003-.303-.898 0-1.525.829-1.525 2.215 0 1.861 1.132 4.024 2.528 4.83l1.008.581-50.488 17.609m75.607-26.369l-21.045-12.15 7.433-2.64 21.097 12.18-7.485 2.61m14.761-5.15l-21.143-12.207 9.928-3.527 22.744 11.714-11.529 4.02" fill="#bddcf4"/><path d="M645.674 179.438l-21.097-12.18 7.23-2.567 21.143 12.208-7.276 2.539" fill="#9591bd"/><path d="M613.07 190.808l-1.008-.58c-1.396-.807-2.528-2.97-2.528-4.831 0-1.386.627-2.215 1.525-2.215.307 0 .647.097 1.003.303l8.287 4.785-7.28 2.538" fill="#e4569e"/><path d="M630.91 184.587l-18.848-10.882c-.55-.317-1.057-.843-1.472-1.48l6.554-2.327 21.045 12.15-7.28 2.54" fill="#9591bd"/><path d="M637.324 292.28c0 4.016-2.838 5.633-6.337 3.613-3.5-2.02-6.338-6.914-6.338-10.931 0-4.016 2.838-5.633 6.338-3.613s6.337 6.914 6.337 10.931" fill="#adc5e9"/><path d="M418.357 270.854c-1.643 0-3.745-.621-6.439-2.216-12.205-7.23-11.005-23.105-11.005-23.105s.067-.005.197-.005c1.43 0 10.539.533 23.16 13.323l.006.159-.058 4.086s-.058 7.758-5.861 7.758" fill="#f6fcfe"/><path d="M401.526 246.161s9.33-.015 22.682 12.856l-.073 3.667s-.134 11.065-11.98 4.118c-11.847-6.948-10.629-20.64-10.629-20.64zm10.291 22.842c15.923 9.338 16.103-5.56 16.103-5.56l.129.07-.228-5.084c-17.446-16.61-29.084-16.451-29.084-16.451s-2.842 17.687 13.08 27.025" fill="#492e50"/><path d="M433.892 266.6l-9.497-4.932-.247-5.532 9.498 4.933.246 5.532M399.31 246.244l-1.683-.874c-.918-.476-1.705-1.83-1.758-3.023-.053-1.192.648-1.773 1.565-1.296l1.682.873c.918.477 1.706 1.83 1.759 3.023.053 1.193-.648 1.774-1.566 1.297M460.735 278.148l-1.682-.874c-.919-.477-1.705-1.83-1.758-3.023-.053-1.193.648-1.774 1.564-1.297l1.683.874c.918.477 1.704 1.83 1.758 3.023.053 1.193-.647 1.773-1.565 1.297" fill="#492e50"/><path d="M451.635 288.068c-1.087 0-2.383-.3-3.927-.987-11.77-5.25-13-18.335-13-18.335l-.435-4.368c12.768.022 22.578 10.57 22.578 10.57s1.983 13.12-5.216 13.12" fill="#f6fcfe"/><path d="M447.787 285.31c-11.774-5.322-12.924-17.054-12.924-17.054l-.41-3.919c12.808.717 22.582 10.655 22.582 10.655s2.527 15.639-9.248 10.318zm11.788-11.732s-12.205-12.543-28.962-13.7l.227 5.083.129.066s1.548 15.794 17.373 22.946c15.825 7.152 11.233-14.395 11.233-14.395" fill="#492e50"/><path d="M436.962 271.169c-.38-.505-.474-1.127-.21-1.388l3.068-3.053c.263-.262.784-.066 1.165.44.38.505.474 1.126.211 1.389l-3.068 3.051c-.263.263-.785.066-1.166-.44M403.036 252.844c-.38-.505-.475-1.126-.211-1.388l3.068-3.052c.263-.263.785-.066 1.164.44.381.504.476 1.126.212 1.387l-3.068 3.053c-.263.262-.784.066-1.165-.44" fill="#feffff"/><path d="M380.227 335.546l7.854-44.112 27.44 16.74-6.25 40.122c-.494 6.493-30.308 2.172-29.044-12.75" fill="#f89a74"/><path d="M399.635 230.518s-25.68-17.927-27.99 22.972c-1.608 28.45 14.86 54.023 38.224 66.36 14.55 7.681 33.215-.241 34.749-14.369 4.596-20.486 5.626-39.808-.482-56.798 1.849-17.035-10.507-11.576-31.273-13.75l-13.228-4.415" fill="#f89a74"/><path d="M384.323 313.266c-1.902-2.132-3.908-4.174-6.388-5.594-8.669-4.963-25.28-18.54-21.714-48.507 2.413-25.534 14.893-37.724 45.431-40.048 9.828-.748 27.898 4.694 37.55 14.227 8.778 8.67 5.441 17.005-7.805 17.52-7.25 5.272 1.25 19.245-.052 24.024-2.317 8.499-7.883 12.427-10.29 20.658-2.275 7.787-14.625 18.747-22.13 20.038-8.893 1.53-12.846-.347-14.602-2.318" fill="#422319"/><path d="M460.01 279.445l-37.15 1.657a2.412 2.412 0 01-2.509-2.295 2.411 2.411 0 012.295-2.509l37.148-1.657a2.413 2.413 0 012.51 2.295 2.412 2.412 0 01-2.295 2.51" fill="#492e50"/><path d="M428.195 287.444c.24 6.929-3.59 12.685-8.554 12.858a6.59 6.59 0 01-1.599-.14c-4.242-.904-7.61-5.924-7.825-12.096-.24-6.93 3.59-12.687 8.555-12.858 4.964-.172 9.182 5.306 9.423 12.236" fill="#f89a74"/><path d="M427.588 352.84c-30.24-6.018-53.04 12.127-55.694-32.016 4.778-2.54 10.418-.936 12.962 3.498 4.466 7.786 15.174 13.08 27.728 12.157 3.757-.276 7.22 1.586 8.908 4.791l6.096 11.57" fill="#6966a3"/><path d="M674.311 501.405l-57.295-33.08a1.06 1.06 0 010-1.834l78.55-45.348a1.063 1.063 0 011.06 0l57.287 33.078a1.054 1.054 0 010 1.834l-78.541 45.35a1.063 1.063 0 01-1.06 0" fill="#de2478"/><path d="M618.49 467.645h-1.928v-2.892h1.928v2.892M755.369 455.114h-2.892v-1.928h2.892v1.928" fill="#de2478"/><path d="M674.311 499.462l-57.295-33.079a1.06 1.06 0 010-1.834l78.55-45.349a1.063 1.063 0 011.06 0l57.287 33.079a1.055 1.055 0 010 1.835l-78.541 45.348a1.063 1.063 0 01-1.06 0" fill="#ef277b"/><path d="M731.56 534.343l-57.297-33.078a1.06 1.06 0 010-1.834l78.551-45.349c.328-.19.733-.19 1.06 0l57.297 33.079a1.06 1.06 0 010 1.834l-78.551 45.348c-.328.19-.733.19-1.06 0" fill="#de2478"/><path d="M676.326 500.419h-1.928v-1.928h1.928v1.928M812.24 486.924h-2.891v-.964h2.892v.964" fill="#de2478"/><path d="M731.56 532.402l-57.297-33.08a1.06 1.06 0 010-1.834l78.551-45.348c.328-.19.733-.19 1.06 0l57.297 33.078a1.06 1.06 0 010 1.835l-78.551 45.349a1.063 1.063 0 01-1.06 0" fill="#ef277b"/><path d="M636.95 471.845l37.323 24.082 22.652-18.029s-43.975-17.92-59.976-6.053" fill="#de2478"/><g clip-path="url(#k)" transform="matrix(.0964 0 0 -.0964 -312.671 827.193)"><path d="M10242 3443.35c-27.3 103.05-187.6 156.29-390.5 243.08-45.7 19.55-93.56 40.79-142.56 64.7-8.53 4.92-7.45 13.6 2.4 19.29l81.88 47.27c.28-.24.57-.48.88-.71 237.6-151.25 472.2-226.4 447.9-373.63m0 0l758.2 442.38c.2 1.46.3 2.91.4 4.38.2-2.91.2-5.82.1-8.74l-740-427.22-18.7-10.8" fill="url(#l)"/></g><g clip-path="url(#m)" transform="matrix(.0964 0 0 -.0964 -312.671 827.193)"><path d="M10242 3443.35c24.3 147.23-210.3 222.38-447.9 373.63-.31.23-.6.47-.88.71-6.53 5.7-4.66 14.46 4.48 19.91l662.9 395.49 36.3 21.66c4.8 2.85 10.7 4.27 16.3 4.27 5.6 0 11-1.41 14.7-4.23 262.7-104.91 436.8-220.47 467.9-325.46 3.9-13.25 5.5-26.35 4.8-39.22-.1-1.47-.2-2.92-.4-4.38l-758.2-442.38m-257.71 365.69c-2.35 0-4.78-.5-6.74-1.52-3.97-2.06-4.55-5.42-1.29-7.51l256.34-163.94c1.6-1.05 3.9-1.58 6.3-1.58s4.8.51 6.8 1.53c3.9 2.06 4.5 5.42 1.2 7.5l-256.26 163.94c-1.65 1.06-3.95 1.58-6.35 1.58m84.11 54.34c-2.4 0-4.8-.51-6.8-1.53-3.9-2.06-4.5-5.42-1.3-7.51l256.3-163.94c1.7-1.05 4-1.58 6.4-1.58 2.3 0 4.8.51 6.7 1.53 4 2.06 4.6 5.42 1.3 7.5l-256.3 163.95c-1.6 1.05-3.9 1.58-6.3 1.58m84.1 54.33c-2.4 0-4.8-.51-6.8-1.53-4-2.06-4.5-5.42-1.3-7.51l256.3-163.94c1.7-1.05 4-1.58 6.4-1.58 2.3 0 4.7.51 6.7 1.53 4 2.06 4.6 5.42 1.3 7.5l-256.3 163.95c-1.6 1.05-4 1.58-6.3 1.58m86 75.07c-2.3 0-4.8-.51-6.7-1.53-4-2.06-4.6-5.41-1.3-7.5l256.3-163.95c1.6-1.05 3.9-1.57 6.3-1.57s4.8.5 6.8 1.52c3.9 2.06 4.5 5.42 1.2 7.51l-256.2 163.94c-1.7 1.05-4 1.58-6.4 1.58m84.1 54.33c-2.4 0-4.8-.51-6.8-1.53-3.9-2.06-4.5-5.41-1.2-7.5l256.3-163.94c1.6-1.06 3.9-1.58 6.3-1.58s4.8.5 6.7 1.52c4 2.06 4.6 5.42 1.3 7.51l-256.3 163.94c-1.6 1.05-3.9 1.58-6.3 1.58m84.1 54.33c-2.4 0-4.8-.51-6.8-1.53-4-2.06-4.5-5.41-1.3-7.5l256.3-163.94c1.7-1.06 4-1.58 6.4-1.58 2.3 0 4.8.5 6.7 1.52 4 2.06 4.6 5.42 1.3 7.51l-256.3 163.94c-1.6 1.05-3.9 1.58-6.3 1.58m84 54.33c-2.3 0-4.7-.51-6.7-1.53-4-2.05-4.5-5.41-1.3-7.5l256.3-163.94c1.7-1.06 4-1.58 6.4-1.58 2.3 0 4.7.51 6.7 1.52 4 2.06 4.6 5.42 1.3 7.51l-256.3 163.94c-1.7 1.05-4 1.58-6.4 1.58m84.1 54.33c-2.3 0-4.8-.51-6.7-1.53-4-2.05-4.6-5.41-1.3-7.5l256.3-163.94c1.6-1.06 3.9-1.58 6.3-1.58s4.8.51 6.8 1.53c4 2.05 4.5 5.41 1.3 7.5l-256.3 163.94c-1.7 1.05-4 1.58-6.4 1.58" fill="url(#n)"/></g><g clip-path="url(#o)" transform="matrix(.0964 0 0 -.0964 -312.671 827.193)"><g clip-path="url(#p)"><path d="M10825 4035v1h-2v1h-2v1h-1v1h-2v1h-1v1h-2v1h-2v1h-1v1h-2v1h-1v1h-2v1h-1v1h-2v1h-2v1h-1v1h-2v1h-1v1h-2v1h-1v1h-2v1h-1v1h-2v1h-2v1h-1v1h-2v1h-1v1h-2v1h-1v1h-2v1h-2v1h-1v1h-2v1h-1v1h-2v1h-1v1h-2v1h-1v1h-2v1h-2v1h-1v1h-2v1h-1v1h-2v1h-1v1h-2v1h-2v1h-1v1h-2v1h-1v1h-2v1h-1v1h-2v1h-1v1h-2v1h-2v1h-1v1h-2v1h-1v1h-2v1h-1v1h-2v1h-2v1h-1v1h-2v1h-1v1h-2v1h-1v1h-2v1h-1v1h-2v1h-2v1h-1v1h-2v1h-1v1h-2v1h-1v1h-2v1h-2v1h-1v1h-2v1h-1v1h-2v1h-1v1h-2v1h-2v1h-1v1h-2v1h-1v1h-2v1h-1v1h-2v1h-1v1h-2v1h-2v1h-1v1h-2v1h-1v1h-2v1h-1v1h-2v1h-2v1h-1v1h-2v1h-1v1h-2v1h-1v1h-2v1h-1v1h-2v1h-2v1h-1v1h-2v1h-1v1h-2v1h-1v1h-2v1h-2v1h-1v1h-2v1h-1v1h-2v1h-1v1h-2v1h-1v1h-2v1h-2v1h-1v1h-2v1h-1v1h-2v1h-1v1h-2v1h-2v1h-1v1h-2v1h-1v1h-2v1h-1v1h-2v1h-1v1h-2v1h-2v1h-1v1h-2v1h-1v1h-2v1h-1v1h-2v1h-2v1h-1v1h-2v1h-1v1h-2v1h-1v1h-2v1h-2v1h-1v1h-2v1h-1v1h-2v1h-1v1h-2v1h-1v1h-2v1h-2v1h-1v2h-1v3h1v2h2v1h2v1h4v1h4v-1h4v-1h2v-1h1v-1h2v-1h1v-1h2v-1h1v-1h2v-1h1v-1h2v-1h2v-1h1v-1h2v-1h1v-1h2v-1h1v-1h2v-1h2v-1h1v-1h2v-1h1v-1h2v-1h1v-1h2v-1h1v-1h2v-1h2v-1h1v-1h2v-1h1v-1h2v-1h1v-1h2v-1h2v-1h1v-1h2v-1h1v-1h2v-1h1v-1h2v-1h1v-1h2v-1h2v-1h1v-1h2v-1h1v-1h2v-1h1v-1h2v-1h2v-1h1v-1h2v-1h1v-1h2v-1h1v-1h2v-1h1v-1h2v-1h2v-1h1v-1h2v-1h1v-1h2v-1h1v-1h2v-1h2v-1h1v-1h2v-1h1v-1h2v-1h1v-1h2v-1h2v-1h1v-1h2v-1h1v-1h2v-1h1v-1h2v-1h1v-1h2v-1h2v-1h1v-1h2v-1h1v-1h2v-1h1v-1h2v-1h2v-1h1v-1h2v-1h1v-1h2v-1h1v-1h2v-1h1v-1h2v-1h2v-1h1v-1h2v-1h1v-1h2v-1h1v-1h2v-1h2v-1h1v-1h2v-1h1v-1h2v-1h1v-1h2v-1h1v-1h2v-1h2v-1h1v-1h2v-1h1v-1h2v-1h1v-1h2v-1h2v-1h1v-1h2v-1h1v-1h2v-1h1v-1h2v-1h2v-1h1v-1h2v-1h1v-1h2v-1h1v-1h2v-1h1v-1h2v-1h2v-1h1v-1h2v-1h1v-1h2v-1h1v-1h2v-1h2v-1h1v-1h2v-1h1v-1h2v-1h1v-1h2v-1h1v-1h2v-1h2v-1h1v-1h2v-1h1v-1h2v-1h1v-1h2v-1h2v-1h1v-1h2v-1h1v-1h2v-1h1v-1h2v-1h1v-5h-1v-1h-1v-1h-1v-1h-3v-1" fill="url(#q)"/></g></g><g clip-path="url(#r)" transform="matrix(.0964 0 0 -.0964 -312.671 827.193)"><path d="M10745.4 3981.22c-2.4 0-4.7.52-6.4 1.58l-256.3 163.94c-3.2 2.09-2.7 5.45 1.3 7.5 2 1.02 4.4 1.53 6.7 1.53 2.4 0 4.7-.53 6.4-1.58l256.3-163.94c3.3-2.09 2.7-5.45-1.3-7.51-2-1.01-4.4-1.52-6.7-1.52" fill="url(#s)"/></g><g clip-path="url(#t)" transform="matrix(.0964 0 0 -.0964 -312.671 827.193)"><path d="M10661.3 3926.89c-2.4 0-4.7.52-6.4 1.58l-256.3 163.94c-3.2 2.09-2.7 5.44 1.3 7.5 2 1.02 4.4 1.53 6.8 1.53 2.4 0 4.7-.53 6.3-1.58l256.3-163.94c3.3-2.09 2.7-5.45-1.3-7.51-1.9-1.02-4.4-1.52-6.7-1.52" fill="url(#u)"/></g><g clip-path="url(#v)" transform="matrix(.0964 0 0 -.0964 -312.671 827.193)"><path d="M10577.2 3872.56c-2.4 0-4.7.52-6.3 1.58l-256.3 163.94c-3.3 2.09-2.7 5.44 1.2 7.5 2 1.02 4.4 1.53 6.8 1.53 2.4 0 4.7-.53 6.3-1.58l256.3-163.94c3.3-2.09 2.7-5.45-1.3-7.51-1.9-1.02-4.3-1.52-6.7-1.52" fill="url(#w)"/></g><g clip-path="url(#x)" transform="matrix(.0964 0 0 -.0964 -312.671 827.193)"><path d="M10493.1 3818.23c-2.4 0-4.7.52-6.3 1.57l-256.3 163.95c-3.3 2.09-2.7 5.44 1.3 7.5 1.9 1.02 4.4 1.53 6.7 1.53 2.4 0 4.7-.53 6.4-1.58l256.2-163.94c3.3-2.09 2.7-5.45-1.2-7.51-2-1.02-4.4-1.52-6.8-1.52" fill="url(#y)"/></g><g clip-path="url(#z)" transform="matrix(.0964 0 0 -.0964 -312.671 827.193)"><path d="M10407.1 3743.15c-2.4 0-4.7.53-6.4 1.58l-256.3 163.94c-3.2 2.09-2.7 5.45 1.3 7.51 2 1.02 4.4 1.53 6.8 1.53 2.3 0 4.7-.53 6.3-1.58l256.3-163.95c3.3-2.08 2.7-5.44-1.3-7.5-2-1.02-4.4-1.53-6.7-1.53" fill="url(#A)"/></g><g clip-path="url(#B)" transform="matrix(.0964 0 0 -.0964 -312.671 827.193)"><path d="M10323 3688.82c-2.4 0-4.7.53-6.4 1.58l-256.3 163.94c-3.2 2.09-2.6 5.45 1.3 7.51 2 1.02 4.4 1.53 6.8 1.53 2.4 0 4.7-.53 6.3-1.58l256.3-163.95c3.3-2.08 2.7-5.44-1.3-7.5-1.9-1.02-4.4-1.53-6.7-1.53" fill="url(#C)"/></g><g clip-path="url(#D)" transform="matrix(.0964 0 0 -.0964 -312.671 827.193)"><path d="M10238.9 3634.49c-2.4 0-4.7.53-6.3 1.58l-256.34 163.94c-3.26 2.09-2.68 5.45 1.29 7.51 1.96 1.02 4.39 1.52 6.74 1.52 2.4 0 4.7-.52 6.35-1.58l256.26-163.94c3.3-2.08 2.7-5.44-1.2-7.5-2-1.02-4.4-1.53-6.8-1.53" fill="url(#E)"/></g><path d="M674.273 495.927l30.364 14.774s-21.39-24.896-30.364-14.774" fill="#de2478"/><path d="M674.59 495.276s7.047-2.625 12.734 2.081c5.688 4.706 41.96 31.96 41.96 31.96l73.722-42.155s-39.396-38.217-55.281-34.108l-73.134 42.222" fill="#fff"/><path d="M781.048 477.167c-.241 0-.482-.056-.646-.166l-24.34-16.356c-.308-.208-.25-.531.136-.721a1.46 1.46 0 01.626-.133c.241 0 .472.057.636.166l24.35 16.357c.308.208.24.53-.145.72a1.447 1.447 0 01-.617.133M772.825 482.22c-.24 0-.482-.056-.645-.166l-24.34-16.356c-.308-.21-.25-.531.145-.721.173-.089.395-.133.617-.133.24 0 .472.057.636.166l24.349 16.356c.308.209.24.532-.145.721a1.447 1.447 0 01-.617.133M764.603 487.273c-.241 0-.472-.056-.636-.166l-24.35-16.357c-.308-.209-.24-.53.145-.72.184-.09.396-.133.617-.133.241 0 .482.056.646.166l24.34 16.356c.308.209.25.532-.145.721a1.387 1.387 0 01-.617.133M756.39 492.326c-.25 0-.482-.056-.646-.166l-24.349-16.357c-.308-.209-.24-.53.145-.72.183-.09.405-.133.617-.133.24 0 .482.056.646.166l24.34 16.356c.308.209.25.531-.136.721a1.448 1.448 0 01-.617.133M748.168 497.378c-.25 0-.482-.056-.646-.165l-24.34-16.357c-.317-.208-.25-.53.136-.72.183-.09.405-.134.617-.134.24 0 .482.057.645.167l24.34 16.357c.308.208.25.53-.135.72a1.447 1.447 0 01-.617.132M739.705 504.427c-.241 0-.473-.057-.637-.167l-24.349-16.356c-.308-.208-.24-.531.145-.721.183-.089.405-.132.617-.132.24 0 .482.056.646.166l24.34 16.356c.308.209.25.53-.146.72a1.387 1.387 0 01-.616.134M731.492 509.48c-.25 0-.482-.056-.646-.167l-24.349-16.356c-.308-.208-.241-.531.145-.72.183-.09.404-.133.617-.133.24 0 .481.056.645.166l24.34 16.357c.308.207.25.53-.135.72a1.448 1.448 0 01-.617.133M723.27 514.533c-.251 0-.482-.056-.646-.167l-24.34-16.356c-.318-.208-.25-.531.135-.72.183-.09.405-.133.617-.133.241 0 .482.056.646.165l24.34 16.357c.308.208.25.53-.136.72a1.448 1.448 0 01-.617.134" fill="#d5d2e5"/><path d="M774.127 463.562c-8.464 7.55-31.396 25.573-43.57 34.975-.579.446-.222 1.368.51 1.312l9.081-.7c.52-.04.916.46.752.957l-2.024 6.312c-.212.67.549 1.24 1.118.832 5.07-3.618 18.96-18.734 39.04-38.432a3.601 3.601 0 00-.57-5.596 3.588 3.588 0 00-4.337.34M869.383 211.406l-55.234-32.017c-2.275-1.313-4.27-1.318-5.774-.286l.01-.007-9.302 5.268s3.518 5.521 6.41 12.02v49.945c0 6.336 3.875 13.698 8.627 16.442l45.026 26.003c4.203 7.074 7.046 11.7 7.046 11.7l8.704-5.023v-.014c1.928-.908 2.892-3.436 2.892-7.155v-60.434c0-6.337-3.653-13.699-8.405-16.442" fill="#706bbc"/><path d="M860.042 300.354l-55.455-32.016c-4.752-2.745-8.598-10.106-8.598-16.442V191.46c0-6.337 3.846-9.249 8.598-6.505l55.455 32.016c4.752 2.744 8.608 10.106 8.608 16.441v60.435c0 6.337-3.856 9.25-8.608 6.506" fill="#7d78c3"/><path d="M856.167 304.55c-1.05 0-2.207-.332-3.412-1.033L797.3 271.5c-4.753-2.744-8.608-10.105-8.608-16.441v-60.435c0-4.719 2.14-7.538 5.186-7.538.829 0 1.725.207 2.66.639-.356 1.054-.55 2.307-.55 3.735v60.435c0 6.336 3.847 13.697 8.599 16.442l55.455 32.016c.26.147.511.278.762.393-.83 2.431-2.507 3.803-4.637 3.803" fill="#cbc1e6"/><path d="M860.804 300.747a9.915 9.915 0 01-.762-.393l-55.455-32.016c-4.752-2.745-8.598-10.106-8.598-16.442V191.46c0-1.428.193-2.68.55-3.735.25.115.5.246.76.393l55.456 32.016c4.752 2.745 8.598 10.106 8.598 16.442v60.435c0 1.428-.193 2.68-.55 3.735" fill="#7d78c3"/><path d="M817.07 253.939l-14.7-25.363 16.011-9.129 3.085 5.422-10.546 6.015 11.548 19.924-5.398 3.13M846.171 269.436l-3.084-5.421 10.39-5.929-11.701-20.188 5.398-3.13 14.854 25.627-15.857 9.04M830.42 266.306l-6.024-1.631 10.989-40.571 6.024 1.63-10.989 40.572" fill="#fff"/><path d="M767.003 44.402l-55.34-32.016c-2.274-1.313-4.318-1.319-5.821-.285l-.02-.009-9.109 5.269s2.747 5.521 6.603 12.02v49.945c0 6.336 3.663 13.698 8.415 16.441l44.93 26.004c4.202 7.073 7.2 11.7 7.2 11.7l8.858-5.022v-.016c.964-.907 2.892-3.434 2.892-7.154V60.844c0-6.337-3.856-13.698-8.608-16.442" fill="#4fc29b"/><path d="M757.46 133.35l-55.455-32.016c-4.752-2.743-8.608-10.105-8.608-16.442V24.458c0-6.337 3.856-9.25 8.608-6.505l55.455 32.016c4.752 2.744 8.599 10.105 8.599 16.442v60.434c0 6.337-3.847 9.25-8.599 6.505" fill="#64caac"/><path d="M751.763 137.022c-1.04 0-2.197-.332-3.412-1.033l-55.455-32.016c-4.752-2.744-8.608-10.105-8.608-16.441V27.097c0-4.718 2.14-7.538 5.186-7.538 1.05 0 2.207.331 3.422 1.033l.925.536c-.27.966-.424 2.082-.424 3.33v60.434c0 6.337 3.856 13.699 8.608 16.442l54.52 31.48c-.761 2.683-2.516 4.208-4.762 4.208" fill="#bae7da"/><path d="M756.525 132.813l-54.52-31.479c-4.752-2.743-8.608-10.105-8.608-16.442V24.458c0-1.248.154-2.364.424-3.33l54.53 31.48c4.752 2.744 8.598 10.105 8.598 16.442v60.434c0 1.248-.144 2.364-.424 3.33" fill="#64caac"/><path d="M728.571 91.503c-7.625-4.404-13.813-15.072-13.813-23.827 0-8.755 6.188-12.281 13.813-7.876 7.634 4.404 13.813 15.072 13.813 23.828 0 8.754-6.179 12.28-13.813 7.875zm22.71-10.037c-2.718-1.567-4.077-6.12-2.159-7.215 2.179-1.24 2.179-5.284 0-9.033l-1.118-1.93c-2.169-3.75-5.697-5.784-7.875-4.544-1.919 1.095-5.196-2.362-5.196-5.478 0-3.528-2.496-7.827-5.571-9.601l-1.581-.914c-3.075-1.775-5.562-.354-5.562 3.174 0 3.117-3.287 2.781-5.205-.53-2.179-3.75-5.697-5.786-7.876-4.546l-1.118.637c-2.178 1.24-2.178 5.285 0 9.033 1.918 3.312.56 6.295-2.16 4.727-3.074-1.774-5.561-.353-5.561 3.174v1.816c0 3.527 2.487 7.826 5.562 9.6 2.718 1.569 4.077 6.122 2.159 7.217-2.178 1.238-2.178 5.283 0 9.033l1.118 1.928c2.179 3.75 5.697 5.785 7.876 4.545 1.918-1.094 5.205 2.362 5.205 5.478 0 3.528 2.487 7.827 5.562 9.602l1.58.913c3.076 1.776 5.572.355 5.572-3.173 0-3.117 3.277-2.781 5.196.53 2.178 3.75 5.706 5.785 7.875 4.546l1.118-.638c2.179-1.24 2.179-5.284 0-9.033-1.918-3.312-.559-6.296 2.16-4.727 3.074 1.775 5.561.353 5.561-3.174v-1.815c0-3.528-2.487-7.826-5.562-9.602" fill="#fff"/><path d="M868.988 97.685l-55.436-32.017c-2.275-1.313-4.367-1.318-5.87-.286l-.04-.007-9.417 5.267s3.412 5.522 6.304 12.02v49.946c0 6.336 3.952 13.698 8.705 16.442l45.073 26.003c4.203 7.073 6.979 11.7 6.979 11.7l8.647-5.023v-.014c1.927-.908 3.855-3.435 3.855-7.156v-60.434c0-6.336-4.048-13.698-8.8-16.441" fill="#c61e6a"/><path d="M859.252 186.633l-55.455-32.016c-4.753-2.745-8.608-10.106-8.608-16.442V77.74c0-6.337 3.855-9.25 8.608-6.505l55.455 32.015c4.752 2.745 8.598 10.106 8.598 16.442v60.435c0 6.337-3.846 9.25-8.598 6.506" fill="#ee1997"/><path d="M854.876 192.719c-1.051 0-2.198-.332-3.413-1.032l-55.455-32.017c-4.752-2.744-8.608-10.105-8.608-16.441V82.794c0-4.718 2.14-7.538 5.186-7.538.848 0 1.764.216 2.718.666-.077.57-.115 1.176-.115 1.818v60.435c0 6.336 3.855 13.697 8.608 16.442l55.455 32.016c.231.136.462.258.694.366-.482 3.616-2.43 5.72-5.07 5.72" fill="#fec3e2"/><path d="M859.946 186.999a8.307 8.307 0 01-.694-.366l-55.455-32.016c-4.753-2.745-8.608-10.106-8.608-16.442V77.74c0-.642.038-1.248.115-1.818.232.109.463.23.704.367l55.455 32.016c4.752 2.744 8.599 10.105 8.599 16.441v60.435c0 .642-.04 1.25-.116 1.818" fill="#ee1997"/><path d="M837.342 153.06l.973.562c2.15 1.242 2.709.685 2.709-2.548 0-3.175-.203-6.116-.203-9.703 0-4.469 1.234-5.464 3.789-4.69v-.235c-2.555-2.185-3.789-4.6-3.789-9.07 0-3.586.203-6.29.203-9.464 0-3.235-.56-4.442-2.709-5.684l-.973-.562v-4.587l3.229 1.863c4.501 2.604 6.554 5.787 6.554 12.137 0 4.174-.51 6.055-.51 9.76 0 2.057 1.07 4.854 4.405 6.894v5.057c-3.335-1.806-4.405-.252-4.405 1.806 0 3.705.51 6.176.51 10.351 0 6.35-2.053 7.166-6.554 4.563l-3.23-1.865v-4.585M821.33 148.402l-3.229-1.863c-4.51-2.604-6.554-5.786-6.554-12.136 0-4.174.51-6.055.51-9.759 0-2.058-1.08-4.855-4.414-6.895v-5.057c3.335 1.806 4.415.25 4.415-1.806 0-3.706-.511-6.176-.511-10.351 0-6.35 2.043-7.167 6.554-4.563l3.23 1.864v4.586l-.974-.562c-2.15-1.242-2.718-.686-2.718 2.548 0 3.175.202 6.116.202 9.703 0 4.469-1.224 5.463-3.788 4.69v.235c2.564 2.184 3.788 4.6 3.788 9.069 0 3.586-.202 6.291-.202 9.465 0 3.234.568 4.442 2.718 5.685l.974.562v4.585" fill="#fff"/><path d="M222.915 836.348c-1.562-.608-40.329-22.719-86.148-49.134-86.602-49.927-95.599-56.242-103.481-72.638-2.227-4.63-6.043-34.094-13.184-101.8-11.11-105.325-11.145-102.158 1.183-108.083 11.445-5.501 21.092-1.296 93.549 40.775 71.493 41.51 85.937 51.431 98.132 67.397 10.323 13.516 14.005 21.382 35.513 75.884 12.264 31.076 19.318 46.656 20.858 46.066 1.28-.491 28.634-16.959 60.787-36.594 32.153-19.636 60.843-36.744 63.756-38.019 11.118-4.865 20.261-1.872 23.954 7.842 3.437 9.04-.615 36.836-7.301 50.081-9.983 19.777-21.798 30.099-63.603 55.567-106.75 65.033-105.044 64.072-113.36 63.913-4.298-.083-9.093-.648-10.655-1.257z" fill="none"/><path d="M222.915 836.348c-1.562-.608-40.329-22.719-86.148-49.134-86.602-49.927-95.599-56.242-103.481-72.638-2.227-4.63-6.043-34.094-13.184-101.8-11.11-105.325-11.145-102.158 1.183-108.083 11.445-5.501 21.092-1.296 93.549 40.775 71.493 41.51 85.937 51.431 98.132 67.397 10.323 13.516 14.005 21.382 35.513 75.884 12.264 31.076 19.318 46.656 20.858 46.066 1.28-.491 28.634-16.959 60.787-36.594 32.153-19.636 60.843-36.744 63.756-38.019 11.118-4.865 20.261-1.872 23.954 7.842 3.437 9.04-.615 36.836-7.301 50.081-9.983 19.777-21.798 30.099-63.603 55.567-106.75 65.033-105.044 64.072-113.36 63.913-4.298-.083-9.093-.648-10.655-1.257z" fill="none"/><path d="M222.915 836.348c-1.562-.608-40.329-22.719-86.148-49.134-86.602-49.927-95.599-56.242-103.481-72.638-2.227-4.63-6.043-34.094-13.184-101.8-11.11-105.325-11.145-102.158 1.183-108.083 11.445-5.501 21.092-1.296 93.549 40.775 71.493 41.51 85.937 51.431 98.132 67.397 10.323 13.516 14.005 21.382 35.513 75.884 12.264 31.076 19.318 46.656 20.858 46.066 1.28-.491 28.634-16.959 60.787-36.594 32.153-19.636 60.843-36.744 63.756-38.019 11.118-4.865 20.261-1.872 23.954 7.842 3.437 9.04-.615 36.836-7.301 50.081-9.983 19.777-21.798 30.099-63.603 55.567-106.75 65.033-105.044 64.072-113.36 63.913-4.298-.083-9.093-.648-10.655-1.257z" fill="none"/></svg>