<svg xmlns="http://www.w3.org/2000/svg" viewBox="0 0 51.92 13.335" height="50.4" width="196.232"><defs><clipPath clipPathUnits="userSpaceOnUse" id="a"><path d="M411.992 753.633h157.606v52.257H411.992z"/></clipPath><clipPath clipPathUnits="userSpaceOnUse" id="b"><path d="M409.575 765.779h152.5v41h-152.5z"/></clipPath><radialGradient fx="-.176" fy="-.454" cx="0" cy="0" r="1" gradientUnits="userSpaceOnUse" gradientTransform="matrix(9.1436 0 0 -9.3385 445.353 788.554)" spreadMethod="pad" id="c"><stop offset="0" stop-color="#fff"/><stop offset="0" stop-color="#fff"/><stop offset="1" stop-color="#ed1b98"/></radialGradient></defs><g clip-path="url(#a)" transform="matrix(.35278 0 0 -.35278 -145.458 284.185)"><g clip-path="url(#b)"><g style="-inkscape-font-specification:Chalet-NewYorkNineteenSeventy" aria-label="stlenegg" font-size="36" font-family="Chalet" fill="#3a629f"><path d="M412.435 783.387q.936-.072 1.692.036.792.144 1.296.648.36.324.648 1.152.288.828.288 2.844 0 .9.072 1.872.072.972.324 1.908.252.972.72 1.872.468.9 1.296 1.656 2.268 2.232 6.264 1.908v-4.608q-1.98.216-2.988-.792-.18-.18-.36-.432-.144-.216-.288-.648-.108-.432-.216-1.08-.072-.648-.072-1.656 0-.936-.072-1.944-.072-.972-.324-1.98-.252-.972-.72-1.908-.468-.9-1.26-1.656-1.152-1.116-2.736-1.548-1.584-.396-3.564-.252zM435.655 778.815q-2.052-.216-3.6.252-1.548.468-2.592 1.512t-1.584 2.556q-.54 1.548-.54 3.456v15.444h4.752v-4.716h3.348v-4.212h-3.348v-6.552q0-1.944.864-2.736.9-.792 2.7-.684zM455.527 805.563h4.788v-19.008q0-1.98.864-2.772.9-.756 2.664-.648v-4.32q-2.052-.216-3.6.252-1.548.468-2.592 1.476-1.044 1.044-1.584 2.556-.54 1.548-.54 3.456zM476.622 791.955q-.648.792-1.584 1.224-.936.432-2.088.432-1.044 0-1.944-.396-.9-.396-1.584-1.116-.648-.684-1.08-1.656-.396-.972-.432-2.16zm5.328-7.272q-.828-2.844-3.168-4.608-2.304-1.728-5.796-1.728-1.98 0-3.708.756-1.728.756-3.024 2.052-1.296 1.332-2.052 3.096-.72 1.764-.72 3.78t.72 3.78q.756 1.8 2.052 3.096 1.296 1.332 3.024 2.088 1.728.792 3.708.792 1.656 0 3.168-.54 1.512-.504 2.7-1.512 1.224-.972 2.052-2.412.864-1.44 1.188-3.312l-13.104-5.508q.72-.936 1.728-1.476 1.008-.504 2.232-.504 1.152 0 2.232.504 1.08.54 1.692 1.656zM483.282 789.507q0 1.764.576 3.276.612 1.512 1.692 2.628 1.116 1.116 2.628 1.728 1.548.648 3.456.648 1.944 0 3.456-.612 1.548-.612 2.592-1.728 1.08-1.08 1.62-2.592.576-1.512.576-3.348v-10.728h-4.752v10.836q0 .396-.108.972-.108.612-.468 1.188-.36.576-1.044.972t-1.872.396q-1.584 0-2.592-.972t-1.008-2.556v-10.836h-4.752zM514.314 791.955q-.648.792-1.584 1.224-.936.432-2.088.432-1.044 0-1.944-.396-.9-.396-1.584-1.116-.648-.684-1.08-1.656-.396-.972-.432-2.16zm5.328-7.272q-.828-2.844-3.168-4.608-2.304-1.728-5.796-1.728-1.98 0-3.708.756-1.728.756-3.024 2.052-1.296 1.332-2.052 3.096-.72 1.764-.72 3.78t.72 3.78q.756 1.8 2.052 3.096 1.296 1.332 3.024 2.088 1.728.792 3.708.792 1.656 0 3.168-.54 1.512-.504 2.7-1.512 1.224-.972 2.052-2.412.864-1.44 1.188-3.312l-13.104-5.508q.72-.936 1.728-1.476 1.008-.504 2.232-.504 1.152 0 2.232.504 1.08.54 1.692 1.656zM534.51 787.995q0 1.116-.395 2.088-.36.972-1.008 1.692t-1.512 1.116q-.864.432-1.836.432-.972 0-1.836-.396-.864-.396-1.512-1.116-.648-.72-1.044-1.692-.36-.972-.36-2.124 0-1.116.36-2.088.396-.936 1.044-1.656.648-.684 1.512-1.08t1.836-.396q.972 0 1.836.396.864.432 1.512 1.116.648.72 1.008 1.656.396.972.396 2.052zm4.753-8.28q0-2.304-.684-4.14-.648-1.872-1.908-3.168-1.224-1.296-3.024-1.98-1.764-.72-3.996-.72-1.692 0-3.204.468-1.512.468-2.7 1.332-1.188.828-2.016 2.016-.828 1.188-1.08 2.664h5.184q.216-.54.648-.936.468-.396 1.008-.648t1.08-.36q.576-.108 1.08-.108 2.52 0 3.672 1.512 1.188 1.512 1.188 3.996v.828q-1.044-1.044-2.448-1.584-1.368-.504-2.952-.504-1.836 0-3.456.756-1.62.756-2.844 2.052-1.188 1.332-1.908 3.06-.684 1.764-.684 3.78t.684 3.78q.72 1.8 1.98 3.096 1.26 1.332 2.988 2.088 1.764.792 3.888.792 2.088 0 3.816-.792 1.764-.756 3.024-2.088 1.26-1.296 1.944-3.096.72-1.764.72-3.78zM554.743 787.995q0 1.116-.396 2.088-.36.972-1.008 1.692t-1.512 1.116q-.864.432-1.836.432-.972 0-1.836-.396-.864-.396-1.512-1.116-.648-.72-1.044-1.692-.36-.972-.36-2.124 0-1.116.36-2.088.396-.936 1.044-1.656.648-.684 1.512-1.08t1.836-.396q.972 0 1.836.396.864.432 1.512 1.116.648.72 1.008 1.656.396.972.396 2.052zm4.752-8.28q0-2.304-.684-4.14-.648-1.872-1.908-3.168-1.224-1.296-3.024-1.98-1.764-.72-3.996-.72-1.692 0-3.204.468-1.512.468-2.7 1.332-1.188.828-2.016 2.016-.828 1.188-1.08 2.664h5.184q.216-.54.648-.936.468-.396 1.008-.648t1.08-.36q.576-.108 1.08-.108 2.52 0 3.672 1.512 1.188 1.512 1.188 3.996v.828q-1.044-1.044-2.448-1.584-1.368-.504-2.952-.504-1.836 0-3.456.756-1.62.756-2.844 2.052-1.188 1.332-1.908 3.06-.684 1.764-.684 3.78t.684 3.78q.72 1.8 1.98 3.096 1.26 1.332 2.988 2.088 1.764.792 3.888.792 2.088 0 3.816-.792 1.764-.756 3.024-2.088 1.26-1.296 1.944-3.096.72-1.764.72-3.78z"/></g><g style="-inkscape-font-specification:Chalet-NewYorkNineteenSeventy" aria-label="software&amp;designservices" font-size="8" font-family="Chalet" fill="#ee1997"><path d="M412.321 770.803q.206-.016.372.008.174.032.285.144.08.072.143.256.063.184.063.632 0 .2.016.416.016.216.07.424.056.216.16.416.102.2.284.368.499.496 1.378.424v-1.024q-.436.048-.657-.176-.04-.04-.08-.096-.031-.048-.063-.144-.024-.096-.047-.24-.016-.144-.016-.368 0-.208-.016-.432-.016-.216-.071-.44-.056-.216-.159-.424-.102-.2-.277-.368-.253-.248-.601-.344-.349-.088-.784-.056zM417.744 770.65q.205 0 .388.08.182.089.316.24.143.16.222.377.079.216.079.48t-.08.488q-.078.224-.22.384-.135.16-.317.248-.183.088-.388.088-.206 0-.396-.088-.182-.088-.317-.248-.134-.16-.214-.384-.079-.224-.079-.488t.08-.48q.079-.216.213-.376.135-.152.317-.24.19-.08.396-.08zm0 3.353q.427 0 .8-.168.371-.16.648-.456.285-.288.444-.688.166-.392.166-.856 0-.464-.166-.856-.159-.392-.444-.68-.277-.288-.649-.456-.372-.16-.8-.16-.427 0-.799.16-.372.168-.65.456-.276.288-.442.68-.159.392-.159.856 0 .464.159.856.166.4.443.688.277.296.65.456.371.168.799.168zM422.54 773.883v-.936h-.735v-3.176h-1.045v4.064q0 .408.118.752.12.352.349.592.237.248.57.36.34.12.784.072v-.992q-.38.032-.578-.136-.19-.168-.198-.6zM425.312 769.787q-.452-.048-.792.056-.34.104-.57.336-.23.232-.348.568-.12.344-.12.768v3.432h1.046v-1.048h.736v-.936h-.736v-1.456q0-.432.19-.608.198-.176.594-.152zM432.547 771.523q0-.392-.134-.736-.127-.336-.373-.584-.237-.248-.577-.392-.34-.136-.752-.136-.42 0-.753.152-.324.16-.554.432-.23-.272-.562-.432-.332-.152-.736-.152-.427 0-.76.136-.332.136-.57.376-.23.248-.356.584-.119.344-.119.752v2.376h1.045v-2.408q0-.088.024-.224.024-.128.103-.256.079-.128.23-.216.15-.088.403-.088.356 0 .57.216.222.216.222.568v2.408h1.045v-2.408q0-.088.023-.224.024-.128.103-.256.08-.128.23-.216.15-.088.412-.088.348 0 .57.216.221.216.221.568v2.408h1.045zM436.648 771.827q0 .248-.087.464-.08.216-.222.376-.142.16-.332.248-.19.096-.404.096-.214 0-.404-.088-.19-.088-.332-.248-.143-.16-.23-.376-.08-.216-.08-.472 0-.248.08-.464.087-.208.23-.368.142-.152.332-.24.19-.088.404-.088.214 0 .404.088.19.096.332.248.143.16.222.368.087.216.087.456zm1.045-2.048h-.99v.432q-.23-.256-.554-.392-.317-.128-.689-.128-.403 0-.76.168-.356.168-.625.456-.261.296-.42.68-.15.392-.15.84 0 .448.15.84.159.4.436.688.277.296.657.464.388.176.855.176.459 0 .839-.176.388-.168.665-.464.277-.288.427-.688.159-.392.159-.84zM441.01 772.987q-.499.088-.807-.152-.301-.232-.301-.672v-2.384h-1.045v2.384q0 .44.142.8.15.36.428.608.277.248.673.36.403.112.91.048zM444.501 772.707q-.142.176-.348.272-.206.096-.46.096-.229 0-.427-.088-.198-.088-.348-.248-.143-.152-.238-.368-.087-.216-.095-.48zm1.172-1.616q-.182-.632-.697-1.024-.506-.384-1.274-.384-.436 0-.816.168-.38.168-.665.456-.285.296-.451.688-.158.392-.158.84 0 .448.158.84.166.4.451.688.285.296.665.464.38.176.816.176.364 0 .696-.12.333-.112.594-.336.27-.216.451-.536.19-.32.261-.736l-2.881-1.224q.158-.208.38-.328.222-.112.49-.112.254 0 .492.112.237.12.372.368zM450.652 772.539q-.182-.144-.324-.36-.135-.216-.135-.496 0-.216.087-.408.095-.192.246-.344.158-.144.364-.232.206-.08.443-.08.19 0 .357.048.174.048.324.136zm1.948-2.496q-.27-.176-.586-.264-.317-.096-.68-.096-.444 0-.832.152-.38.16-.673.432-.285.272-.451.632-.166.368-.166.784 0 .472.221.88.222.416.65.736-.095.16-.167.352-.071.192-.071.416 0 .296.103.552.11.256.3.448t.452.296q.27.112.586.112.316 0 .57-.104.253-.104.435-.296.182-.184.277-.448.103-.256.103-.56v-.112h-.958v.12q0 .168-.103.32t-.34.152q-.23 0-.348-.152-.111-.152-.111-.312 0-.152.063-.272.063-.12.166-.248l1.576-2.024q.071.216.087.472.016.264-.008.568h.926q.04-.568-.047-1.032-.08-.464-.31-.832l.73-.936h-1.188zM460.469 771.827q0 .248-.087.464-.08.216-.222.376-.142.16-.332.248-.19.096-.404.096-.214 0-.404-.088-.19-.088-.332-.248-.143-.16-.23-.376-.08-.216-.08-.472 0-.248.08-.464.087-.208.23-.368.142-.152.332-.24.19-.088.404-.088.214 0 .404.088.19.096.332.248.143.16.222.368.087.216.087.456zm1.045.008q0-.448-.158-.84-.15-.392-.428-.688-.277-.288-.665-.456-.38-.168-.84-.168-.466 0-.854.168-.38.168-.657.456-.277.296-.436.688-.15.392-.15.84 0 .44.15.832.159.392.42.688.27.296.618.464.356.168.76.168.728 0 1.195-.48v2.224h1.045zM465.243 772.707q-.143.176-.349.272-.206.096-.459.096-.23 0-.427-.088-.198-.088-.349-.248-.142-.152-.237-.368-.087-.216-.095-.48zm1.171-1.616q-.182-.632-.696-1.024-.507-.384-1.275-.384-.435 0-.815.168-.38.168-.665.456-.285.296-.452.688-.158.392-.158.84 0 .448.158.84.167.4.452.688.285.296.665.464.38.176.815.176.364 0 .697-.12.332-.112.593-.336.27-.216.452-.536.19-.32.26-.736l-2.88-1.224q.158-.208.38-.328.22-.112.49-.112.253 0 .49.112.238.12.373.368zM467.016 770.803q.205-.016.372.008.174.032.285.144.079.072.142.256.063.184.063.632 0 .2.016.416.016.216.072.424.055.216.158.416.103.2.285.368.499.496 1.377.424v-1.024q-.435.048-.657-.176-.04-.04-.079-.096-.032-.048-.063-.144-.024-.096-.048-.24-.016-.144-.016-.368 0-.208-.015-.432-.016-.216-.072-.44-.055-.216-.158-.424-.103-.2-.277-.368-.253-.248-.602-.344-.348-.088-.783-.056zM471.702 769.779h-1.045v4.12h1.045zm-1.053 4.568v.592q0 .224.15.376.159.152.38.152.214 0 .365-.152.158-.152.158-.376v-.592zM475.858 771.827q0 .248-.087.464-.079.216-.221.376-.143.16-.333.248-.19.096-.404.096-.213 0-.403-.088-.19-.088-.333-.248-.142-.16-.23-.376-.079-.216-.079-.472 0-.248.08-.464.087-.208.23-.368.142-.152.332-.24.19-.088.403-.088.214 0 .404.088.19.096.333.248.142.16.221.368.087.216.087.456zm1.045-1.84q0-.512-.15-.92-.143-.416-.42-.704-.269-.288-.665-.44-.388-.16-.878-.16-.372 0-.705.104-.332.104-.594.296-.261.184-.443.448t-.238.592h1.14q.048-.12.143-.208.103-.088.222-.144.118-.056.237-.08.127-.024.238-.024.554 0 .807.336.261.336.261.888v.184q-.23-.232-.538-.352-.3-.112-.65-.112-.403 0-.76.168-.355.168-.625.456-.26.296-.42.68-.15.392-.15.84 0 .448.15.84.16.4.436.688.277.296.657.464.388.176.855.176.46 0 .84-.176.387-.168.664-.464.278-.288.428-.688.158-.392.158-.84zM478.043 772.163q0 .392.126.728.135.336.372.584.246.248.578.384.34.144.76.144.428 0 .76-.136.34-.136.57-.384.238-.24.357-.576.126-.336.126-.744v-2.384h-1.045v2.408q0 .088-.024.216-.023.136-.102.264-.08.128-.23.216-.15.088-.412.088-.348 0-.57-.216-.221-.216-.221-.568v-2.408h-1.045zM485.207 770.803q.206-.016.372.008.174.032.285.144.08.072.143.256.063.184.063.632 0 .2.016.416.016.216.071.424.056.216.159.416.102.2.285.368.498.496 1.377.424v-1.024q-.435.048-.657-.176-.04-.04-.08-.096-.03-.048-.063-.144-.023-.096-.047-.24-.016-.144-.016-.368 0-.208-.016-.432-.016-.216-.071-.44-.055-.216-.158-.424-.103-.2-.277-.368-.254-.248-.602-.344-.348-.088-.784-.056zM491.47 772.707q-.143.176-.35.272-.205.096-.458.096-.23 0-.428-.088-.198-.088-.348-.248-.143-.152-.238-.368-.087-.216-.095-.48zm1.17-1.616q-.181-.632-.696-1.024-.506-.384-1.274-.384-.436 0-.816.168-.38.168-.665.456-.285.296-.451.688-.158.392-.158.84 0 .448.158.84.166.4.451.688.285.296.665.464.38.176.816.176.364 0 .696-.12.333-.112.594-.336.27-.216.451-.536.19-.32.261-.736l-2.881-1.224q.158-.208.38-.328.222-.112.49-.112.254 0 .492.112.237.12.372.368zM495.76 772.987q-.499.088-.808-.152-.3-.232-.3-.672v-2.384h-1.045v2.384q0 .44.142.8.15.36.428.608.277.248.673.36.403.112.91.048zM499.037 769.779h-1.124l-1.544 4.12h1.093l1.013-3.072 1.022 3.072h1.076zM502.41 769.779h-1.045v4.12h1.045zm-1.053 4.568v.592q0 .224.15.376.159.152.38.152.214 0 .365-.152.158-.152.158-.376v-.592zM507.5 771.17q-.182-.703-.704-1.095-.523-.392-1.267-.392-.46 0-.847.168-.388.168-.665.456-.277.296-.435.688-.159.392-.159.84 0 .448.159.84.158.4.435.688.277.296.665.464.388.176.847.176.744 0 1.259-.392.522-.392.704-1.096h-1.116q-.11.208-.34.36-.222.16-.507.16-.214 0-.404-.096-.19-.096-.332-.264-.143-.16-.23-.384-.079-.216-.079-.464 0-.24.08-.456.086-.216.229-.384.142-.16.332-.256.19-.088.404-.088.293 0 .522.152.23.16.333.376zM511.11 772.707q-.142.176-.348.272-.206.096-.46.096-.229 0-.427-.088-.198-.088-.348-.248-.143-.152-.238-.368-.087-.216-.095-.48zm1.172-1.616q-.182-.632-.697-1.024-.507-.384-1.274-.384-.436 0-.816.168-.38.168-.665.456-.285.296-.451.688-.158.392-.158.84 0 .448.158.84.166.4.451.688.285.296.665.464.38.176.816.176.364 0 .696-.12.333-.112.594-.336.27-.216.451-.536.19-.32.261-.736l-2.881-1.224q.158-.208.38-.328.221-.112.49-.112.254 0 .491.112.238.12.373.368zM512.883 770.803q.206-.016.372.008.175.032.285.144.08.072.143.256.063.184.063.632 0 .2.016.416.016.216.071.424.056.216.159.416.103.2.285.368.498.496 1.377.424v-1.024q-.435.048-.657-.176-.04-.04-.08-.096-.03-.048-.062-.144-.024-.096-.048-.24-.016-.144-.016-.368 0-.208-.016-.432-.015-.216-.07-.44-.056-.216-.16-.424-.102-.2-.276-.368-.254-.248-.602-.344-.348-.088-.784-.056z"/></g><path d="M444.42 798.19c4.429.674 7.924-5.612 9.045-8.206 1.85-4.279-.087-9.424-5.814-10.83-6.35-1.56-11.518 3.564-11.06 8.403.292 3.09 3.467 9.969 7.83 10.633" fill="url(#c)"/></g></g></svg>