<svg xmlns="http://www.w3.org/2000/svg" height="1079.777" width="947.128"><defs><clipPath id="a" clipPathUnits="userSpaceOnUse"><path d="M8118.58 5766.22l-.7 23.21 29.96-19.37s-8.42-21.06-9.34-20.33c-.91.73-19.92 16.49-19.92 16.49z"/></clipPath><clipPath id="c" clipPathUnits="userSpaceOnUse"><path d="M8358.96 5614.64l-231.71 133.77c-13.88 8.02-12.14 22.02 3.89 31.27l419.47 242.18c16.03 9.26 40.27 10.26 54.15 2.25l231.71-133.78c13.88-8.01 12.14-22.01-3.89-31.26l-419.47-242.18c-16.03-9.26-40.27-10.26-54.15-2.25z"/></clipPath><clipPath id="e" clipPathUnits="userSpaceOnUse"><path d="M9739.66 5016.66c-20.12 0-40.3 4.44-55.74 13.36l-394.18 227.58c-2.98 1.72-5.68 3.55-8.08 5.45-23.09 18.31-19.53 44.15 10.12 59.87l306.06 162.32 25.87 13.72-27.9-14.8 481.39-280.59-280.7-172.72c-15.34-9.44-36.06-14.19-56.84-14.19"/></clipPath><clipPath id="g" clipPathUnits="userSpaceOnUse"><path d="M10077.2 5203.57l-481.39 280.59 27.9 14.8 62.03 32.89 478.86-274.51-87.4-53.77"/></clipPath><clipPath id="i" clipPathUnits="userSpaceOnUse"><path d="M10907.5 4834.96c-3.9 0-8.3 1.25-12.9 3.9l-685.1 392.75-43.2 24.76-1.7.97-478.86 274.51-580.94 333.04-133.63 76.6c-15.87 9.1-28.86 31.34-28.86 49.42l.03 213.82c4.79-11.18 12.99-21.5 22.25-26.84l1931.31-1115.03c4.2-2.42 8.1-3.56 11.7-3.56 8.8 0 14.8 7.09 14.8 19.27l-3.1 1408.48c0 10.54-4.6 22.54-11.5 32.16 9.4-10.83 15.9-25.7 15.9-38.49l-.2-1464.84v-64.31l-.1-96.38c0-12.81-6.5-20.23-15.9-20.23"/></clipPath><clipPath id="k" clipPathUnits="userSpaceOnUse"><path d="M10242 3443.35c-27.3 103.05-187.6 156.29-390.5 243.08-45.7 19.55-93.56 40.79-142.56 64.7-8.53 4.92-7.45 13.6 2.4 19.29l81.88 47.27c.28-.24.57-.48.88-.71 237.6-151.25 472.2-226.4 447.9-373.63m0 0l758.2 442.38c.2 1.46.3 2.91.4 4.38.2-2.91.2-5.82.1-8.74l-740-427.22-18.7-10.8"/></clipPath><clipPath id="m" clipPathUnits="userSpaceOnUse"><path d="M10242 3443.35c24.3 147.23-210.3 222.38-447.9 373.63-.31.23-.6.47-.88.71-6.53 5.7-4.66 14.46 4.48 19.91l662.9 395.49 36.3 21.66c4.8 2.85 10.7 4.27 16.3 4.27 5.6 0 11-1.41 14.7-4.23 262.7-104.91 436.8-220.47 467.9-325.46 3.9-13.25 5.5-26.35 4.8-39.22-.1-1.47-.2-2.92-.4-4.38l-758.2-442.38m-257.71 365.69c-2.35 0-4.78-.5-6.74-1.52-3.97-2.06-4.55-5.42-1.29-7.51l256.34-163.94c1.6-1.05 3.9-1.58 6.3-1.58s4.8.51 6.8 1.53c3.9 2.06 4.5 5.42 1.2 7.5l-256.26 163.94c-1.65 1.06-3.95 1.58-6.35 1.58m84.11 54.34c-2.4 0-4.8-.51-6.8-1.53-3.9-2.06-4.5-5.42-1.3-7.51l256.3-163.94c1.7-1.05 4-1.58 6.4-1.58 2.3 0 4.8.51 6.7 1.53 4 2.06 4.6 5.42 1.3 7.5l-256.3 163.95c-1.6 1.05-3.9 1.58-6.3 1.58m84.1 54.33c-2.4 0-4.8-.51-6.8-1.53-4-2.06-4.5-5.42-1.3-7.51l256.3-163.94c1.7-1.05 4-1.58 6.4-1.58 2.3 0 4.7.51 6.7 1.53 4 2.06 4.6 5.42 1.3 7.5l-256.3 163.95c-1.6 1.05-4 1.58-6.3 1.58m86 75.07c-2.3 0-4.8-.51-6.7-1.53-4-2.06-4.6-5.41-1.3-7.5l256.3-163.95c1.6-1.05 3.9-1.57 6.3-1.57s4.8.5 6.8 1.52c3.9 2.06 4.5 5.42 1.2 7.51l-256.2 163.94c-1.7 1.05-4 1.58-6.4 1.58m84.1 54.33c-2.4 0-4.8-.51-6.8-1.53-3.9-2.06-4.5-5.41-1.2-7.5l256.3-163.94c1.6-1.06 3.9-1.58 6.3-1.58s4.8.5 6.7 1.52c4 2.06 4.6 5.42 1.3 7.51l-256.3 163.94c-1.6 1.05-3.9 1.58-6.3 1.58m84.1 54.33c-2.4 0-4.8-.51-6.8-1.53-4-2.06-4.5-5.41-1.3-7.5l256.3-163.94c1.7-1.06 4-1.58 6.4-1.58 2.3 0 4.8.5 6.7 1.52 4 2.06 4.6 5.42 1.3 7.51l-256.3 163.94c-1.6 1.05-3.9 1.58-6.3 1.58m84 54.33c-2.3 0-4.7-.51-6.7-1.53-4-2.05-4.5-5.41-1.3-7.5l256.3-163.94c1.7-1.06 4-1.58 6.4-1.58 2.3 0 4.7.51 6.7 1.52 4 2.06 4.6 5.42 1.3 7.51l-256.3 163.94c-1.7 1.05-4 1.58-6.4 1.58m84.1 54.33c-2.3 0-4.8-.51-6.7-1.53-4-2.05-4.6-5.41-1.3-7.5l256.3-163.94c1.6-1.06 3.9-1.58 6.3-1.58s4.8.51 6.8 1.53c4 2.05 4.5 5.41 1.3 7.5l-256.3 163.94c-1.7 1.05-4 1.58-6.4 1.58"/></clipPath><clipPath id="o" clipPathUnits="userSpaceOnUse"><path d="M10829.4 4035.55c-2.4 0-4.7.52-6.3 1.58l-256.3 163.94c-3.3 2.09-2.7 5.45 1.3 7.5 1.9 1.02 4.4 1.53 6.7 1.53 2.4 0 4.7-.53 6.4-1.58l256.3-163.94c3.2-2.09 2.7-5.45-1.3-7.5-2-1.02-4.4-1.53-6.8-1.53"/></clipPath><clipPath id="p" clipPathUnits="userSpaceOnUse"><path d="M10563.5 4035.55h277.199v174.551H10563.5z"/></clipPath><clipPath id="r" clipPathUnits="userSpaceOnUse"><path d="M10745.4 3981.22c-2.4 0-4.7.52-6.4 1.58l-256.3 163.94c-3.2 2.09-2.7 5.45 1.3 7.5 2 1.02 4.4 1.53 6.7 1.53 2.4 0 4.7-.53 6.4-1.58l256.3-163.94c3.3-2.09 2.7-5.45-1.3-7.51-2-1.01-4.4-1.52-6.7-1.52"/></clipPath><clipPath id="t" clipPathUnits="userSpaceOnUse"><path d="M10661.3 3926.89c-2.4 0-4.7.52-6.4 1.58l-256.3 163.94c-3.2 2.09-2.7 5.44 1.3 7.5 2 1.02 4.4 1.53 6.8 1.53 2.4 0 4.7-.53 6.3-1.58l256.3-163.94c3.3-2.09 2.7-5.45-1.3-7.51-1.9-1.02-4.4-1.52-6.7-1.52"/></clipPath><clipPath id="v" clipPathUnits="userSpaceOnUse"><path d="M10577.2 3872.56c-2.4 0-4.7.52-6.3 1.58l-256.3 163.94c-3.3 2.09-2.7 5.44 1.2 7.5 2 1.02 4.4 1.53 6.8 1.53 2.4 0 4.7-.53 6.3-1.58l256.3-163.94c3.3-2.09 2.7-5.45-1.3-7.51-1.9-1.02-4.3-1.52-6.7-1.52"/></clipPath><clipPath id="x" clipPathUnits="userSpaceOnUse"><path d="M10493.1 3818.23c-2.4 0-4.7.52-6.3 1.57l-256.3 163.95c-3.3 2.09-2.7 5.44 1.3 7.5 1.9 1.02 4.4 1.53 6.7 1.53 2.4 0 4.7-.53 6.4-1.58l256.2-163.94c3.3-2.09 2.7-5.45-1.2-7.51-2-1.02-4.4-1.52-6.8-1.52"/></clipPath><clipPath id="z" clipPathUnits="userSpaceOnUse"><path d="M10407.1 3743.15c-2.4 0-4.7.53-6.4 1.58l-256.3 163.94c-3.2 2.09-2.7 5.45 1.3 7.51 2 1.02 4.4 1.53 6.8 1.53 2.3 0 4.7-.53 6.3-1.58l256.3-163.95c3.3-2.08 2.7-5.44-1.3-7.5-2-1.02-4.4-1.53-6.7-1.53"/></clipPath><clipPath id="B" clipPathUnits="userSpaceOnUse"><path d="M10323 3688.82c-2.4 0-4.7.53-6.4 1.58l-256.3 163.94c-3.2 2.09-2.6 5.45 1.3 7.51 2 1.02 4.4 1.53 6.8 1.53 2.4 0 4.7-.53 6.3-1.58l256.3-163.95c3.3-2.08 2.7-5.44-1.3-7.5-1.9-1.02-4.4-1.53-6.7-1.53"/></clipPath><clipPath id="D" clipPathUnits="userSpaceOnUse"><path d="M10238.9 3634.49c-2.4 0-4.7.53-6.3 1.58l-256.34 163.94c-3.26 2.09-2.68 5.45 1.29 7.51 1.96 1.02 4.39 1.52 6.74 1.52 2.4 0 4.7-.52 6.35-1.58l256.26-163.94c3.3-2.08 2.7-5.44-1.2-7.5-2-1.02-4.4-1.53-6.8-1.53"/></clipPath><linearGradient id="b" spreadMethod="pad" gradientTransform="matrix(29.9578 0 0 -29.9578 8117.88 5769.57)" gradientUnits="userSpaceOnUse" y2="0" x2="1" y1="0" x1="0"><stop offset="0" stop-color="#fff"/><stop offset=".039" stop-color="#fff"/><stop offset="1" stop-color="#acc5e9"/></linearGradient><linearGradient id="d" spreadMethod="pad" gradientTransform="matrix(727.957 0 0 -727.957 8117.88 5819.37)" gradientUnits="userSpaceOnUse" y2="0" x2="1" y1="0" x1="0"><stop offset="0" stop-color="#fff"/><stop offset=".039" stop-color="#fff"/><stop offset="1" stop-color="#acc5e9"/></linearGradient><linearGradient id="f" spreadMethod="pad" gradientTransform="scale(977.27 -977.27) rotate(-30 -4.906 -20.514)" gradientUnits="userSpaceOnUse" y2="0" x2="1" y1="0" x1="0"><stop offset="0" stop-color="#fff"/><stop offset=".039" stop-color="#fff"/><stop offset="1" stop-color="#acc5e9"/></linearGradient><linearGradient id="h" spreadMethod="pad" gradientTransform="scale(977.27 -977.27) rotate(-30 -4.906 -20.514)" gradientUnits="userSpaceOnUse" y2="0" x2="1" y1="0" x1="0"><stop offset="0" stop-color="#cac7d4"/><stop offset=".039" stop-color="#cac7d4"/><stop offset="1" stop-color="#8396c3"/></linearGradient><linearGradient id="j" spreadMethod="pad" gradientTransform="matrix(1981.36 0 0 -1981.36 8942.31 6235.81)" gradientUnits="userSpaceOnUse" y2="0" x2="1" y1="0" x1="0"><stop offset="0" stop-color="#fff"/><stop offset=".039" stop-color="#fff"/><stop offset="1" stop-color="#acc5e9"/></linearGradient><linearGradient id="l" spreadMethod="pad" gradientTransform="scale(-548.598 548.598) rotate(60 -15.228 -13.294)" gradientUnits="userSpaceOnUse" y2="0" x2="1" y1="0" x1="0"><stop offset="0" stop-color="#9fafbf"/><stop offset="0" stop-color="#9fafbf"/><stop offset="1" stop-color="#e5edf6"/></linearGradient><linearGradient id="n" spreadMethod="pad" gradientTransform="matrix(-225.447 534.822 470.504 280.71 10511.9 3594.41)" gradientUnits="userSpaceOnUse" y2="0" x2="1" y1="0" x1="0"><stop offset="0" stop-color="#9fafbf"/><stop offset="0" stop-color="#9fafbf"/><stop offset="1" stop-color="#fff"/><stop offset="1" stop-color="#fff"/></linearGradient><linearGradient id="q" spreadMethod="pad" gradientTransform="matrix(-225.447 534.822 470.504 280.71 10511.9 3594.41)" gradientUnits="userSpaceOnUse" y2="0" x2="1" y1="0" x1="0"><stop offset="0" stop-color="#8f99b7"/><stop offset="0" stop-color="#8f99b7"/><stop offset="1" stop-color="#d5d2e5"/><stop offset="1" stop-color="#d5d2e5"/></linearGradient><linearGradient id="s" spreadMethod="pad" gradientTransform="matrix(-225.447 534.822 470.504 280.71 10511.9 3594.41)" gradientUnits="userSpaceOnUse" y2="0" x2="1" y1="0" x1="0"><stop offset="0" stop-color="#8f99b7"/><stop offset="0" stop-color="#8f99b7"/><stop offset="1" stop-color="#d5d2e5"/><stop offset="1" stop-color="#d5d2e5"/></linearGradient><linearGradient id="u" spreadMethod="pad" gradientTransform="matrix(-225.447 534.822 470.504 280.71 10511.9 3594.41)" gradientUnits="userSpaceOnUse" y2="0" x2="1" y1="0" x1="0"><stop offset="0" stop-color="#8f99b7"/><stop offset="0" stop-color="#8f99b7"/><stop offset="1" stop-color="#d5d2e5"/><stop offset="1" stop-color="#d5d2e5"/></linearGradient><linearGradient id="w" spreadMethod="pad" gradientTransform="matrix(-225.447 534.822 470.504 280.71 10511.9 3594.41)" gradientUnits="userSpaceOnUse" y2="0" x2="1" y1="0" x1="0"><stop offset="0" stop-color="#8f99b7"/><stop offset="0" stop-color="#8f99b7"/><stop offset="1" stop-color="#d5d2e5"/><stop offset="1" stop-color="#d5d2e5"/></linearGradient><linearGradient id="y" spreadMethod="pad" gradientTransform="matrix(-225.447 534.822 470.504 280.71 10511.9 3594.41)" gradientUnits="userSpaceOnUse" y2="0" x2="1" y1="0" x1="0"><stop offset="0" stop-color="#8f99b7"/><stop offset="0" stop-color="#8f99b7"/><stop offset="1" stop-color="#d5d2e5"/><stop offset="1" stop-color="#d5d2e5"/></linearGradient><linearGradient id="A" spreadMethod="pad" gradientTransform="matrix(-225.447 534.822 470.504 280.71 10511.9 3594.41)" gradientUnits="userSpaceOnUse" y2="0" x2="1" y1="0" x1="0"><stop offset="0" stop-color="#8f99b7"/><stop offset="0" stop-color="#8f99b7"/><stop offset="1" stop-color="#d5d2e5"/><stop offset="1" stop-color="#d5d2e5"/></linearGradient><linearGradient id="C" spreadMethod="pad" gradientTransform="matrix(-225.447 534.822 470.504 280.71 10511.9 3594.41)" gradientUnits="userSpaceOnUse" y2="0" x2="1" y1="0" x1="0"><stop offset="0" stop-color="#8f99b7"/><stop offset="0" stop-color="#8f99b7"/><stop offset="1" stop-color="#d5d2e5"/><stop offset="1" stop-color="#d5d2e5"/></linearGradient><linearGradient id="E" spreadMethod="pad" gradientTransform="matrix(-225.447 534.822 470.504 280.71 10511.9 3594.41)" gradientUnits="userSpaceOnUse" y2="0" x2="1" y1="0" x1="0"><stop offset="0" stop-color="#8f99b7"/><stop offset="0" stop-color="#8f99b7"/><stop offset="1" stop-color="#d5d2e5"/><stop offset="1" stop-color="#d5d2e5"/></linearGradient></defs><path d="M582.048 1054.997L45.389 739.482c-28.625-16.527-28.734-36.759-.29-53.596l303.765-179.807 587.49 339.192-354.306 209.726" fill="#e1f2fc"/><path d="M938.221 860.476l1.574-.232c4.693-.696 7.933-5.066 7.24-9.762l-38.867-262.127c-.707-4.695-5.067-7.936-9.76-7.241l-1.573.233c-4.694.696-7.934 5.067-7.24 9.761l38.866 262.127c.707 4.696 5.067 7.937 9.76 7.241M575.061 1079.742c-5.106-.44-8.893-4.945-8.453-10.06l36.52-424.016a9.288 9.288 0 0110.053-8.464 9.296 9.296 0 018.467 10.06l-36.52 424.016c-.44 5.116-4.947 8.905-10.067 8.464" fill="#8c7893"/><path d="M604.741 843.572l-17.693-12.101 5.067-50.932 18.826 2.943-6.2 60.09M904.835 693.635l16.8-13.319-8.64-50.448-18.587 4.264 10.427 59.503" fill="#64546a"/><path d="M10.213 916.131l319.699-167.816 174.937 101-319.698 167.816-174.938-101" fill="#e1f2fc"/><path d="M226.697 809.358L46.352 705.235c-16.713-9.65-9.95-30.815 15.03-47.035l64.827-42.092c24.98-16.22 125.988-27.444 142.702-17.794l112.914 69.417c16.714 9.65 10.486 71.37-14.494 87.59l-64.827 42.091c-24.98 16.219-59.093 21.595-75.807 11.946" fill="#bc2a73"/><path d="M349.03 820.967c-1.091.852-17.025 7.787-18.046 8.584-1.567 1.22-6.217 4.561-9.012 6.356-5.884 3.776-18.705 18.648-37.63 6.645-27.691-17.564 42.98-59.366 42.98-59.366l31.02-14.074c3.778-1.713 8.207-1.47 11.931.652 6.876 3.92 9.22 12.823 5.02 19.251-7.206 11.03-7.94 17.653-26.262 31.952" fill="#1a2437"/><path d="M346.28 812.25c-1.092.852-17.025 7.786-18.047 8.582-1.566 1.222-6.217 4.563-9.012 6.356-5.884 3.778-18.705 18.65-37.629 6.647-27.692-17.564 42.979-59.367 42.979-59.367l31.021-14.073c3.777-1.713 8.207-1.47 11.93.652 6.877 3.919 9.22 12.821 5.02 19.25-7.206 11.03-7.94 17.654-26.262 31.953" fill="#844047"/><path d="M366.307 791.588c1.71-2.936 4.397-8.525 6.634-11.949 4.2-6.428 1.458-14.673-5.418-18.592-3.724-2.123-8.154-2.365-11.931-.652l-15.14 6.868c8.536 3.58 18.224 11.768 25.855 24.325" fill="#8d4549"/><path d="M225.236 712.343c22.557-15.327 45.57-31.081 70.47-42.43.943-.429 1.94-.794 2.86-1.271-7.417 3.845-4.091 1.657-2.04.906 1.651-.604 3.286-1.237 4.958-1.781 1.884-.615 7.312-3.025 9.319-2.285-1.658-.611-8.471.918-2.835.605 3.625-.203 4.133 2.437-3.385-.69.617.257 2.052.649 2.674.657 2.039.028-5.008-2.142-4.905-2.099.607.253 1.208.612 1.748.985 1.55 1.068-6.613-5.605-3.115-2.242 3.007 2.888-4.102-6.835-2.284-2.968.327.693.834 1.766 1.29 2.373-4.275-5.693-2.424-6.384-1.247-2.504.648 2.13.972 4.305 1.415 6.479.63 3.085-.962-8.971-.392-2.668.144 1.582.284 3.164.388 4.75.412 6.331.474 12.682.582 19.023.056 3.379.114 6.759.203 10.137.04 1.519-.17 3.31.12 4.796-1.28-6.534 1.541-7.377.43-4.146-.313.908-.545 1.852-.853 2.764-.724 2.15-4.305 10.037-.554 1.82-1.306 2.861-2.51 5.778-3.771 8.662-3.664 8.375-7.31 16.77-10.605 25.298-6.61 17.101-11.118 34.765-12.078 53.145-.726 13.908 12.746 27.2 26.582 26.581 15.022-.673 25.804-11.682 26.581-26.581.092-1.75-.17-4.484.46-6.128-2.288 5.961-.085.743.264-1.14.635-3.43 1.424-6.833 2.317-10.207 2.104-7.957 4.844-15.738 7.863-23.392.7-1.773 1.305-3.734 2.196-5.421-2.96 5.608-.813 1.91-.133.33 1.249-2.903 2.522-5.797 3.79-8.693 2.906-6.642 6.036-13.265 8.352-20.141 2.932-8.704 2.168-17.697 2.015-26.699-.119-6.94-.164-13.896-.653-20.824-1.114-15.785-3.872-31.753-15.767-43.26-14.565-14.089-36.407-12.845-54.072-6.194-30.583 11.512-58.16 30.297-85.02 48.549-11.481 7.8-17.68 23.736-9.537 36.368 7.369 11.43 24.069 17.895 36.369 9.536" fill="#cba57f"/><path d="M322.248 784.432c-11.793 9.21-35.044 6.572-43.123-6.358-.517 6.853-.918 13.706-1.129 20.561-.855 27.93 42.564 30.413 43.423 2.376.169-5.527.46-11.053.829-16.579" fill="#e4edf6"/><path d="M267.972 773.098l-.573 19.253c-.026.828.19 1.625.644 2.317 2.674 4.082 13.356 17.858 34.345 15.331 18.404-2.216 28.505-7.419 32.42-9.893a3.995 3.995 0 001.85-3.55l-.72-19.674c-.109-2.938-3.218-4.815-5.829-3.463-9.594 4.975-30.66 11.99-55.94-3.585-2.661-1.64-6.104.14-6.197 3.264" fill="#e4bc9a"/><path d="M182.09 682.787c2.429 5.215-7.298-19.523-3.443-15.253 8.03 8.893 51.86 62.956 63.272 66.604 13.786 4.406-22.114-27.582-22.114-27.582s114.818-67.029 112.402-70.342c-18.898-25.914-36.818-34.019-73.048-19.924-41.244 16.045-88.683 41.54-77.068 66.497" fill="#b89473"/><path d="M419.03 860.382c-1.12.814-17.271 7.221-18.32 7.984-1.605 1.169-6.363 4.356-9.215 6.056-6.006 3.581-19.308 18.024-37.828 5.404-27.099-18.466 44.909-57.92 44.909-57.92l31.468-13.044c3.83-1.588 8.25-1.202 11.903 1.044 6.742 4.142 8.792 13.117 4.384 19.404-7.567 10.788-8.518 17.382-27.3 31.072" fill="#1a2437"/><path d="M416.568 851.578c-1.12.816-17.272 7.222-18.32 7.984-1.605 1.169-6.364 4.356-9.216 6.056-6.005 3.581-19.308 18.024-37.828 5.405-27.099-18.467 44.91-57.92 44.91-57.92l31.467-13.045c3.831-1.588 8.251-1.2 11.903 1.044 6.743 4.142 8.793 13.118 4.384 19.405-7.567 10.787-8.517 17.383-27.3 31.07" fill="#844047"/><path d="M437.264 831.587c1.805-2.879 4.675-8.376 7.024-11.725 4.41-6.287 1.939-14.618-4.804-18.76-3.653-2.244-8.072-2.632-11.903-1.044l-15.357 6.366c8.412 3.859 17.827 12.362 25.04 25.163" fill="#8d4549"/><path d="M275.557 747.059c21.768-15.701 43.495-31.916 66.734-45.417 3.513-2.042 7.076-4.004 10.732-5.782.84-.408 1.701-.777 2.534-1.197 3.414-1.72-3.626 1.476-3.464 1.43 1.783-.514 3.488-1.37 5.276-1.906 1.17-.35 2.367-.57 3.539-.897 4.44-1.246-8.1.616-3.204.462 3.235-.1 5.695 1.423-3.415-.693 5.338 1.24-6.537-3.625-2.79-1.341 2.713 1.656-6.427-5.73-3.087-2.307 2.77 2.84-4.67-6.668-2.277-2.833 2.908 4.664-1.618-5.515-1.082-2.758.26 1.343.744 2.714 1.075 4.046 1.479 5.934-.493-6.164-.219-2.307.118 1.656.299 3.303.379 4.963.188 3.91.147 7.832.015 11.744-.531 15.725-.332 31.414-.23 47.153.171 25.999.455 52.115-1.388 78.064-.986 13.9 12.932 27.193 26.582 26.581 15.245-.682 25.525-11.69 26.581-26.581 2.988-42.092.505-84.367 1.657-126.503.483-17.645-1.1-37.712-14.91-50.42-17.455-16.06-40.671-9.444-59.451-.088-27.208 13.552-51.87 32.976-76.419 50.682-11.248 8.113-17.83 23.504-9.537 36.369 7.19 11.152 24.308 18.235 36.37 9.536" fill="#cba57f"/><path d="M393.464 822.984c-12.09 8.818-35.24 5.415-42.89-7.773-.742 6.832-1.37 13.668-1.805 20.512-1.773 27.888 41.54 31.797 43.32 3.805.351-5.518.824-11.033 1.375-16.544" fill="#e4edf6"/><path d="M339.59 809.871l-1.206 19.224a3.97 3.97 0 00.568 2.336c2.539 4.168 12.76 18.288 33.821 16.453 18.467-1.609 28.735-6.477 32.728-8.821 1.24-.728 1.972-2.05 1.967-3.487l-.073-19.688c-.011-2.938-3.058-4.918-5.711-3.652-9.753 4.656-31.039 10.976-55.792-5.424-2.605-1.726-6.105-.061-6.301 3.059" fill="#e4bc9a"/><path d="M372.29 914.356l.58-.085a7.171 7.171 0 006.042-8.145l-27.913-188.164a7.171 7.171 0 00-8.146-6.042l-.578.087a7.171 7.171 0 00-6.042 8.145l27.914 188.163a7.17 7.17 0 008.144 6.041" fill="#492e50"/><path d="M24.456 673.096l-2.241-.332a6.571 6.571 0 01-5.535-7.462L57.3 391.407a6.57 6.57 0 017.463-5.536l2.241.333a6.57 6.57 0 015.535 7.463l-40.62 273.895a6.57 6.57 0 01-7.463 5.534" fill="#64546a"/><path d="M49.453 439.136H.156v-28.63h49.297v28.63M945.768 622.195h-49.293v-28.63h49.293v28.63" fill="#adc5e9"/><path d="M615.301 800.348L6.444 448.822c-9.545-5.511-8.348-15.136 2.673-21.499l284.107-164.03c11.021-6.363 27.693-7.054 37.239-1.543l608.865 351.526c9.547 5.511 8.347 15.136-2.68 21.499l-284.107 164.03c-11.013 6.363-27.693 7.054-37.24 1.543" fill="#adc5e9"/><path d="M615.301 772.887L6.444 421.36c-9.545-5.51-8.348-15.136 2.673-21.498l284.107-164.03c11.021-6.364 27.693-7.054 37.239-1.544l608.865 351.527c9.547 5.51 8.347 15.136-2.68 21.499L652.541 771.343c-11.013 6.364-27.693 7.055-37.24 1.544" fill="#eef8fd"/><path d="M182.63 614.33L56.594 711.696c-20.584 12.603-36.038.094-36.017-21.564l-2.401-35.258c.02-21.658 16.877-49.688 37.461-62.29l127.088-77.812c20.584-12.601 37.408-5.193 37.388 16.463l-.02 20.805c-.02 21.656-16.879 49.687-37.461 62.29" fill="#a22366"/><path d="M19.19 923.202a7.463 7.463 0 01-6.286-8.476l35.121-236.818a7.462 7.462 0 0114.764 2.19L27.668 916.915a7.462 7.462 0 01-8.477 6.287M185.188 1023.92a7.724 7.724 0 01-6.507-8.773l39.616-267.115a7.722 7.722 0 1115.279 2.266l-39.616 267.116a7.724 7.724 0 01-8.772 6.506" fill="#492e50"/><path d="M216.988 834.652L57.548 742.6c-17.137-9.895-26.61-29.604-26.61-29.604-6.414-14.728 8.885-25.387 26.023-15.492l167.646 98.7c17.138 9.895 23.605 20.23 20.837 32.499 0 0-6.733 17.16-28.456 5.95" fill="#d92576"/><path d="M536.021 512.611L358.697 410.232a3.25 3.25 0 00-3.276.016L301.59 442.02c-2.142 1.264-2.128 4.368.027 5.612L478.34 549.664c1.005.58 2.244.58 3.25 0l54.431-31.425c2.166-1.25 2.166-4.377 0-5.628" fill="#adc5e9"/><path d="M481.712 542.668L304.987 440.636c-2.155-1.244-2.17-4.348-.027-5.612l53.832-31.772a3.25 3.25 0 013.276-.016l177.324 102.379c2.167 1.25 2.167 4.377 0 5.628l-54.432 31.425a3.243 3.243 0 01-3.248 0" fill="#fff"/><path d="M367.553 419.131c-.285.164-.868.097-1.297-.15l-11.921-6.88c-.431-.25-.548-.586-.263-.75l7.897-4.563c.287-.165.867-.097 1.298.151l11.922 6.88c.43.248.548.584.262.75l-7.898 4.562M381.384 439.674c-.288.166-.865.101-1.301-.151l-11.922-6.88c-.429-.248-.544-.581-.254-.748l7.9-4.564c.28-.161.86-.096 1.289.152l11.921 6.879c.435.252.548.585.267.748l-7.9 4.564M374.392 448.202c-.287.166-.865.096-1.293-.152l-11.924-6.882c-.424-.244-.551-.581-.266-.746l7.903-4.564c.279-.163.868-.091 1.29.153l11.925 6.881c.429.247.546.584.266.746l-7.901 4.564M355.475 449.848c-.283.163-.866.096-1.292-.15l-11.923-6.88c-.425-.246-.543-.583-.26-.746l7.9-4.564c.283-.164.87-.097 1.293.148l11.924 6.882c.427.245.54.582.258.746l-7.9 4.564M343.221 456.923c-.285.165-.973.035-1.54-.292l-15.62-9.015c-.558-.322-.788-.721-.502-.886l9.274-5.358c.279-.161.978-.032 1.536.291l15.62 9.013c.567.327.787.728.508.89l-9.276 5.357M445.837 516.228c-.237.136-.778.046-1.208-.201l-11.913-6.876c-.435-.25-.596-.565-.359-.703l3.43-1.981c.234-.135.782-.044 1.217.207l11.913 6.876c.43.246.584.561.35.697l-3.43 1.981M461.767 525.659c-.238.137-.779.047-1.208-.201l-11.914-6.875c-.434-.25-.596-.567-.358-.703l3.429-1.981c.235-.136.783-.044 1.217.207l11.914 6.874c.429.248.584.563.349.698l-3.43 1.981M478.655 535.184c-.228.132-.766.036-1.195-.212l-11.917-6.877c-.427-.247-.599-.56-.371-.692l3.303-1.908c.226-.13.772-.033 1.198.213l11.918 6.878c.429.248.593.56.366.69l-3.302 1.908M468.268 522.023c-.228.132-.765.036-1.195-.212l-11.917-6.877c-.427-.247-.599-.559-.37-.691l3.303-1.91c.226-.13.771-.031 1.198.215l11.917 6.878c.43.246.593.558.368.689l-3.304 1.908M425.232 504.244c-.285.164-.87.094-1.301-.154l-77.583-44.772c-.423-.244-.55-.584-.265-.75l9.276-5.357c.278-.161.873-.092 1.296.152l77.582 44.772c.431.248.548.59.27.75l-9.275 5.36" fill="#adc5e9"/><path d="M417.285 497.456c-.018.01-.314-.145-.657-.342l-61.747-35.634c-.337-.194-.606-.366-.589-.377l.576-.332c.017-.01.317.145.653.34l61.747 35.632c.343.199.61.37.593.38l-.576.333M371.817 459.272c-.281.163-.864.096-1.296-.153l-11.921-6.88c-.423-.244-.547-.585-.265-.748l7.9-4.564c.284-.164.876-.092 1.298.152l11.922 6.879c.433.249.546.586.262.75l-7.9 4.564M388.232 468.744c-.281.163-.868.095-1.29-.149l-11.92-6.88c-.429-.247-.55-.585-.267-.748l7.9-4.564c.284-.164.872-.095 1.3.152l11.92 6.879c.424.244.541.582.257.746l-7.9 4.564M404.648 478.218c-.281.162-.865.096-1.29-.15l-11.923-6.881c-.427-.245-.543-.581-.26-.745l7.9-4.563c.282-.164.868-.099 1.293.148l11.923 6.88c.426.245.541.583.257.747l-7.9 4.564M421.065 487.692c-.281.163-.862.096-1.292-.15l-11.922-6.88c-.432-.25-.548-.587-.266-.75l7.9-4.564c.284-.162.868-.097 1.299.152l11.923 6.88c.429.248.542.584.258.748l-7.9 4.564M437.484 497.166c-.283.164-.87.094-1.301-.155l-11.919-6.877c-.425-.247-.543-.583-.26-.747l7.9-4.563c.284-.164.868-.097 1.293.148l11.919 6.878c.432.249.55.589.268.753l-7.9 4.563M453.901 506.632c-.282.164-.866.096-1.294-.15l-11.92-6.879c-.43-.248-.547-.585-.266-.75l7.9-4.562c.284-.164.871-.097 1.3.15l11.919 6.88c.428.246.545.585.261.749l-7.9 4.562M490.877 527.971c-.282.163-.865.096-1.294-.152L457.1 509.075c-.429-.248-.545-.584-.262-.747l7.9-4.564c.282-.164.866-.097 1.296.15l32.481 18.745c.43.247.544.584.261.748l-7.9 4.564M390.728 457.622c-.287.165-.857.1-1.288-.15l-11.924-6.881c-.428-.247-.548-.579-.261-.744l7.901-4.565c.28-.162.86-.096 1.29.152l11.923 6.881c.431.248.54.58.262.743l-7.903 4.564M407.148 467.098c-.287.165-.865.094-1.29-.151l-11.929-6.884c-.424-.244-.544-.577-.257-.743l7.901-4.565c.28-.161.862-.095 1.286.15l11.928 6.883c.424.246.542.583.262.744l-7.901 4.566M423.564 476.571c-.287.165-.868.093-1.293-.152l-11.922-6.88c-.422-.244-.553-.583-.266-.748l7.901-4.565c.28-.162.872-.088 1.295.154l11.921 6.88c.425.246.545.584.267.746l-7.903 4.565M439.977 486.043c-.286.165-.864.096-1.292-.15l-11.918-6.88c-.43-.247-.551-.58-.266-.746l7.903-4.565c.28-.162.863-.095 1.292.153l11.919 6.879c.428.246.544.582.265.744l-7.903 4.565M456.401 495.512c-.286.166-.866.095-1.292-.15l-11.926-6.883c-.43-.248-.548-.58-.262-.745l7.902-4.564c.28-.162.86-.098 1.289.15l11.927 6.883c.425.245.544.584.264.745l-7.902 4.564M472.812 504.983c-.287.165-.863.096-1.29-.15l-11.918-6.878c-.433-.25-.555-.583-.268-.748l7.901-4.565c.28-.162.863-.095 1.296.156l11.918 6.877c.428.247.542.581.262.744l-7.901 4.564M489.228 514.456c-.287.166-.864.096-1.29-.149l-11.927-6.883c-.426-.246-.543-.577-.258-.742l7.903-4.566c.28-.161.859-.096 1.284.15l11.927 6.882c.425.246.542.582.262.744l-7.901 4.564M397.724 449.095c-.288.167-.87.099-1.299-.15l-11.922-6.88c-.424-.243-.542-.58-.254-.746l7.902-4.564c.28-.161.861-.095 1.285.15l11.923 6.88c.43.249.546.585.265.746l-7.9 4.564M414.136 458.567c-.288.167-.87.097-1.295-.147l-11.921-6.88c-.428-.248-.548-.584-.259-.75l7.9-4.564c.28-.162.864-.095 1.292.153l11.923 6.88c.424.244.541.581.261.744l-7.901 4.564M430.555 468.042c-.288.165-.87.098-1.302-.151l-11.92-6.879c-.425-.246-.542-.581-.254-.748l7.9-4.564c.281-.161.862-.094 1.288.151l11.921 6.879c.432.249.547.585.267.746l-7.9 4.566M446.967 477.512c-.288.167-.864.102-1.295-.146l-11.923-6.88c-.429-.248-.546-.584-.258-.751l7.9-4.564c.28-.161.862-.095 1.292.153l11.924 6.88c.429.25.541.583.261.744l-7.901 4.564M463.388 486.98c-.29.167-.87.099-1.292-.144l-11.924-6.881c-.43-.25-.545-.583-.257-.75l7.901-4.563c.28-.162.859-.096 1.29.152l11.923 6.881c.423.243.539.58.259.741l-7.9 4.564M479.807 496.456c-.288.167-.87.099-1.303-.152l-11.92-6.878c-.423-.244-.544-.582-.256-.748l7.9-4.564c.281-.163.867-.094 1.29.15l11.92 6.88c.433.25.55.586.27.748l-7.901 4.564M496.22 505.928c-.288.166-.87.098-1.296-.148l-11.923-6.88c-.429-.248-.545-.582-.257-.749l7.9-4.564c.281-.161.861-.096 1.29.152l11.925 6.88c.425.247.541.583.261.744l-7.9 4.565M364.968 430.2c-.288.167-.87.099-1.3-.149l-20.213-11.665c-.431-.25-.55-.584-.26-.751l7.9-4.564c.28-.163.862-.095 1.293.153l20.215 11.666c.43.248.546.584.266.746l-7.901 4.564M523.513 509.118c-.285.164-.866.097-1.296-.151L502.001 497.3c-.422-.242-.545-.582-.26-.746l7.899-4.563c.285-.165.872-.095 1.295.15l20.214 11.666c.43.247.548.583.262.748l-7.898 4.563M357.972 438.727c-.287.165-.86.097-1.293-.153l-24.099-13.907c-.43-.248-.552-.581-.265-.747l7.901-4.565c.28-.161.863-.095 1.292.155l24.1 13.906c.433.251.545.584.265.746l-7.901 4.565M339.064 440.378c-.283.162-.867.096-1.296-.152l-16.068-9.274c-.43-.248-.547-.585-.265-.748l7.901-4.564c.283-.162.867-.097 1.297.151l16.068 9.273c.43.248.546.586.263.75l-7.9 4.564M383.965 428.602c-.285.165-.864.098-1.298-.152l-11.915-6.875c-.43-.248-.548-.585-.263-.75l7.898-4.562c.286-.165.869-.097 1.298.15l11.914 6.877c.434.25.55.584.264.749l-7.898 4.563M400.31 438.026c-.286.165-.87.096-1.3-.152l-11.922-6.88c-.425-.246-.547-.583-.261-.748l7.898-4.563c.286-.165.87-.096 1.296.15l11.923 6.88c.43.249.55.585.263.75l-7.898 4.563M416.717 447.495c-.284.165-.86.101-1.29-.148l-11.923-6.88c-.427-.247-.544-.583-.259-.747l7.898-4.562c.286-.166.866-.098 1.293.149l11.923 6.88c.43.25.542.58.257.745l-7.899 4.563M433.14 456.972c-.285.164-.87.096-1.297-.152l-11.916-6.876c-.432-.249-.548-.584-.263-.749l7.897-4.563c.287-.165.867-.097 1.299.152l11.915 6.876c.429.247.549.584.262.75l-7.897 4.562M449.55 466.442c-.286.165-.86.101-1.291-.148l-11.92-6.878c-.432-.25-.548-.585-.263-.75l7.897-4.563c.287-.165.867-.097 1.299.152l11.919 6.879c.432.249.542.58.256.745l-7.898 4.563M465.975 475.912c-.286.166-.87.096-1.294-.148l-11.926-6.882c-.426-.247-.542-.582-.256-.746l7.897-4.562c.287-.166.865-.099 1.292.146l11.927 6.883c.424.245.544.581.257.747l-7.897 4.562M482.39 485.386c-.285.165-.866.097-1.297-.151l-11.92-6.879c-.432-.249-.55-.586-.265-.75l7.897-4.563c.287-.165.87-.096 1.3.152l11.922 6.88c.429.248.548.583.261.748l-7.897 4.563M498.801 494.856c-.285.166-.864.099-1.289-.146l-11.93-6.884c-.425-.246-.54-.58-.254-.746l7.897-4.561c.287-.167.866-.099 1.29.145l11.929 6.886c.427.245.541.578.255.744l-7.898 4.562M508.348 503.211a1.823 1.823 0 00-.699-.23c-.252-.029-.454.003-.586.08l-7.902 4.565c-.132.076-.193.196-.142.342.056.146.197.29.394.403l3.114 1.796-10.36 5.985c-.135.078-.187.2-.135.344.05.146.197.287.399.403l8.032 4.635c.202.117.446.202.701.233.253.032.461-.001.596-.079l18.78-10.849c.133-.076.187-.195.132-.341-.05-.15-.199-.29-.401-.407l-11.923-6.88" fill="#adc5e9"/><path d="M111.033 474.956c9.914 13.422 19.812 26.986 30.747 39.604 5.359 6.186 11.493 13.096 19.58 15.57 10.853 3.32 21.393-3.098 24.661-13.644 1.452-4.683 1.359-9.88 1.638-14.747.062-1.097.162-2.195.228-3.292.269-4.533-1.042 4.181-.115.715.228-.854.405-1.754.59-2.619 1.002-4.707-1.587 2.815-.218.317 1.975-3.601-2.944 3.08-.624.808 1.741-1.706-4.008 2.82-1.92 1.514 1.252-.783 3.37-1.148-2.237.873 3.806-1.372-2.923-.353-1.138.001 3.202.636 7.216.068 10.459-.125 30.472-1.824 58.212-15.116 83.79-30.932 12.005-7.421 23.62-15.508 35.885-22.504 2.694-1.537 5.424-3.02 8.217-4.372 1.117-.543 2.25-1.05 3.379-1.565-4.411 2.013.39-.078 1.354-.402 2.378-.8 4.766-1.286 7.206-1.825-4.95 1.093-2.063.176-.648.252 1.394.075 5.841.599.098-.28 9.12 1.396 18.391-2.307 21.04-11.945 2.224-8.096-2.76-19.634-11.946-21.039-23.602-3.612-44.067 9.987-63.095 22.196-11.088 7.115-22.116 14.341-33.655 20.716-13.256 7.323-22.204 11.51-36.706 15.083-7.41 1.824-9.967 2.222-16.732 2.502-5.4.224-10.791-.406-16.09 1.095-9.228 2.615-15.657 9.71-18.749 18.575-1.81 5.189-2.265 10.792-2.58 16.253-.11 1.935-.253 3.884-.305 5.82-.108 3.977.594-3.073.3-1.833-.85 3.568.625-1.043.972-1.632 2.118-3.6 7.28-7.254 12.921-7.235 5.303.017 5.141.93 3.43.407 5.207 1.592 4.03 1.82 2.323.821-2.136-1.25 1.151-.608 1.722 1.383-.143-.498-1.67-1.467-2.066-1.839-1.314-1.233-2.553-2.55-3.774-3.875-10.991-11.929-18.788-23.044-28.404-36.065-5.48-7.419-14.823-11.153-23.402-6.135-7.317 4.28-11.654 15.927-6.136 23.4" fill="#f89a74"/><path d="M633.621 550.083c-12.813 7.403-33.666 7.367-46.56-.081-12.906-7.447-12.973-19.486-.146-26.887 12.813-7.403 33.653-7.367 46.56.08 12.893 7.447 12.96 19.485.146 26.888M810.448 591.248c-11.253 6.512-29.56 6.494-40.88-.04-11.307-6.534-11.36-17.11-.107-23.622 11.254-6.512 29.56-6.495 40.88.04 11.32 6.534 11.36 17.11.107 23.622" fill="#adc5e9"/><path d="M620.288 546.623c-11.333 6.543-29.76 6.51-41.16-.073-11.4-6.584-11.453-17.224-.133-23.766 11.333-6.541 29.76-6.508 41.173.075 11.4 6.583 11.453 17.223.12 23.764" fill="#7d78c3"/><path d="M623.888 535.259l-53.347-.2v-47.51l53.347.443v47.267" fill="#7d78c3"/><path d="M612.901 487.747v43.416l-.053 1.684c.04 7.321-3.733 8.6-9.427 11.884-3.413 1.97-7.613 4.155-11.92 4.933 9.987 1.8 21.227-.797 29.107-5.345 5.693-3.284 8.467-5.833 8.427-13.156h-.027l-.173-43.064-15.934-.352" fill="#706bbc"/><path d="M620.288 499.912c-11.333 6.542-29.76 6.508-41.16-.074-11.4-6.583-11.453-17.223-.133-23.766 11.333-6.541 29.76-6.508 41.173.075 11.4 6.583 11.453 17.223.12 23.765" fill="#b7acdd"/><path d="M616.848 497.574c-9.36 5.406-24.587 5.38-34.013-.062-9.427-5.441-9.467-14.234-.107-19.641 9.36-5.407 24.6-5.379 34.013.061 9.427 5.442 9.48 14.235.107 19.642" fill="#a599d4"/><path d="M616.741 486.395c-9.413-5.44-24.653-5.468-34.013-.061-2.787 1.606-4.707 3.513-5.84 5.541 1.147 2.059 3.107 4.001 5.947 5.637 9.426 5.442 24.653 5.468 34.013.062 2.787-1.606 4.72-3.514 5.84-5.542-1.133-2.058-3.107-4.001-5.947-5.637" fill="#504d84"/><path d="M582.728 497.574c-2.787-1.606-4.707-3.514-5.84-5.542.653-1.177 1.587-2.314 2.787-3.38 8.146-1.362 17.266-.208 23.653 3.48 2.773 1.607 4.707 3.514 5.827 5.542.52.901.88 1.777 1.026 2.617-1.413.343-2.706.612-3.813.763-8.133 1.362-17.253.208-23.64-3.48" fill="#6562a0"/><path d="M618.621 507.964c4.16 2.191 8.747 3.756 10.307 8.752 1.013 3.27.253 8.191.253 11.594-.013 2.85.84 10.088-2.453 10.136-1.707.025-4.8-2.263-6.347-3.068-2.293-1.184-4.306 2.266-2.026 3.454 2.76 1.428 7.093 4.614 10.4 4.131 4.133-.604 4.253-5.177 4.346-8.397.16-6.176 1.267-14.2-.36-20.206-1.453-5.388-7.626-7.494-12.106-9.849-2.28-1.197-4.294 2.255-2.014 3.453" fill="#3f3d6b"/><path d="M108.333 441.908c-11.046 11.948-10.714 19.668-12.06 36.624-1.316 16.579 8.491 31.44 24.13 36.67l155.822 52.104s43.583-60.584-7.573-82.572c-26.61-11.438-44.624-27.242-64.561-41.079-29.286-20.323-70.238-29.347-95.758-1.747" fill="#504b81"/><path d="M93.155 708.494c-10.419-3.708-7.556-148.132 4.802-246.902l182.362 83.112c-16.146 85.475-16.091 150.347-8.895 252.227l-178.27-88.437" fill="#504b81"/><path d="M280.319 544.704l-30.27-13.505c-18.413 86.865-22.032 149.883-8.681 247.764l-.504-.145c.048 5.668-4.225 11.825-12.559 16.722-14.848 8.726 6.908 13.159 21.755 4.432l38.608-76.042c-8.35-83.615-29.048-65.879-8.35-179.226" fill="#403f6a"/><path d="M379.373 754.807l-127.088 77.812c-20.582 12.603-36.493 6.688-35.356-13.144l1.094-19.052c1.138-19.832 18.91-46.37 39.493-58.972l127.088-77.812c20.583-12.603 36.493-6.688 35.356 13.144l-1.093 19.052c-1.138 19.832-18.91 46.37-39.494 58.972" fill="#d92576"/><path d="M29.592 704.447L9.942 526.942c-3.825-25.827 18.749-32.899 48.887-15.316l120.524 70.312c21.715 12.668 41.692 35.022 49.946 55.888l45.582 115.238c13.067 33.036-31.182 86.859-61.606 68.68L29.592 704.447" fill="#d92576"/><path d="M510.868 586.692l-23.983 16.436c-8.841 6.058-21.032 3.783-27.09-5.058-6.062-8.842-3.786-21.034 5.057-27.094l23.983-16.434c8.841-6.059 21.032-3.783 27.09 5.057 6.062 8.841 3.786 21.033-5.057 27.093" fill="#3f3d6b"/><path d="M279.673 549.472c14.146 12.662 26.804 26.531 39.336 40.751 8.834 10.023 18.159 19.379 30.85 24.27 30.384 11.711 64.393-8.613 90.73-21.829 18.303-9.182 33.336-17.642 52.175-22.302 21.359-5.284 12.312-38.28-9.093-32.986-16.432 4.066-31.995 11.68-47.111 19.139-7.939 3.916-15.817 7.953-23.764 11.856a502.254 502.254 0 01-11.184 5.345c-4.545 2.095-5.77 2.647-9.12 3.96-6.327 2.482-12.727 4.442-19.381 5.814-3.075.633 2.577.118-1.358.056-1.28-.022-2.562.07-3.846.033-1.4-.04-2.786-.213-4.182-.293 3.231.184 1.779.249-.332-.298-1.138-.296-2.345-.914-3.488-1.101 2.175.356 2.559 1.321.363.041-.888-.517-1.79-.998-2.659-1.553-1.797-1.147-3.182-2.93-.813-.457-3.83-3.996-8-7.59-11.71-11.747-13.26-14.861-26.351-29.573-41.226-42.885-6.88-6.159-17.401-6.787-24.187 0-6.264 6.264-6.91 18.002 0 24.186" fill="#f89a74"/><path d="M247.721 533.808l65.476 63.882c21.278 15.585 49.234-23.599 32.734-37.882l-63.748-66.724c-10.587-9.088-24.892-9.04-33.086.111-8.54 9.539-11.241 29.747-1.376 40.613" fill="#504b81"/><path d="M405.803 344.475h-.023c-.003-1.333-.39-1.404-1.227-1.887l-30.893-17.876c-1.85-1.069-5.084-.956-7.22.279l-55.93 32.281c-1.115.643-1.698 1.452-1.751 2.236l-.018-.013.094 3.093.017.015c-.277.868.076 1.745 1.139 2.359l30.894 17.836c.926.534 2.196.768 3.503.713 1.307-.053 2.65-.396 3.717-1.012l55.93-32.292c1.136-.655 1.716-1.488 1.749-2.285l.012.077.007-3.524" fill="#adc5e9"/><g clip-path="url(#a)" transform="matrix(.13333 0 0 -.13333 -778.192 1128.475)"><path d="M8118.58 5766.22l-.7 23.21 29.96-19.37s-8.42-21.06-9.34-20.33c-.91.73-19.92 16.49-19.92 16.49" fill="url(#b)"/></g><g clip-path="url(#c)" transform="matrix(.13333 0 0 -.13333 -778.192 1128.475)"><path d="M8358.96 5614.64l-231.71 133.77c-13.88 8.02-12.14 22.02 3.89 31.27l419.47 242.18c16.03 9.26 40.27 10.26 54.15 2.25l231.71-133.78c13.88-8.01 12.14-22.01-3.89-31.26l-419.47-242.18c-16.03-9.26-40.27-10.26-54.15-2.25" fill="url(#d)"/></g><path d="M339.699 362.714l22.19-37.154c2.138-1.234 5.37-1.368 7.22-.3l30.895 17.838c1.85 1.068 1.619 2.934-.519 4.168l-55.929 32.29c-1.07.618-2.412.96-3.717 1.014l-.14-17.856" fill="#b7d3ef"/><path d="M364.037 350.392l5.671-7.697 31.545-1.325-.008 3.606-34.473 10.986-2.735-5.57" fill="#92b0df"/><path d="M308.59 361.772c0 .536-.38.754-.847.483-.468-.27-.847-.924-.847-1.461 0-.536.379-.752.847-.483.468.27.846.924.846 1.461M336.336 376.326l-30.895-17.838c-1.85-1.068-1.618-2.934.519-4.168l55.93-32.292c2.137-1.233 5.369-1.366 7.22-.298l30.894 17.836c1.85 1.069 1.619 2.934-.519 4.169l-55.929 32.29c-2.137 1.234-5.37 1.369-7.22.3" fill="#3f3d6b"/><path d="M385.593 334.323l-8.53-4.924c-.352-.204-.308-.561.098-.796.407-.235 1.027-.26 1.379-.057l8.53 4.925c.351.203.307.561-.1.795-.406.234-1.026.261-1.377.057" fill="#504d84"/><path d="M323.648 371.408l-6.852-3.956c-.29-.168-.528-.621-.528-1.008 0-.386.237-.566.528-.398l6.852 3.954c.29.168.527.622.527 1.01 0 .386-.238.565-.527.398" fill="#3f3d6b"/><path d="M391.528 350.266l3.373-1.948c.2-.116.364-.43.364-.696 0-.267-.164-.391-.364-.275l-3.373 1.948c-.2.115-.364.428-.364.695 0 .266.164.39.364.276M386.743 353.27l3.374-1.948c.2-.115.364-.428.364-.695 0-.267-.164-.39-.364-.275l-3.374 1.947c-.2.116-.364.43-.364.696 0 .267.164.39.364.275M327.425 365.138c-1.429.825-3.756.821-5.196-.01-1.44-.83-1.446-2.174-.016-3 1.431-.826 3.758-.822 5.196.01 1.44.83 1.447 2.174.016 3" fill="#504d84"/><path d="M363.63 323.876L316.6 351.03a1.643 1.643 0 000 2.846l28.553 16.486c.51.293 1.135.293 1.644 0l47.031-27.154a1.642 1.642 0 000-2.845l-28.555-16.487a1.643 1.643 0 00-1.642 0" fill="#a4ccee"/><path d="M796.528 584.735c-12.44 7.181-32.667 7.144-45.187-.081-12.52-7.226-12.573-18.906-.146-26.086 12.44-7.181 32.666-7.144 45.186.082 12.52 7.225 12.574 18.905.147 26.085" fill="#86a4c6"/><path d="M726.981 526.856l15.027 46.088 63.573 1.044 14.507-44.418-93.107-2.714" fill="#86a4c6"/><path d="M802.035 529.808l-14.52 45.334c-.827 2.666-3.84 7.176-9.054 10.186-3.773 2.178-8.266 3.504-13.026 4.323 10.733 1.805 22.68.605 31.093-4.245 5.213-3.012 8.213-7.598 9.04-10.264h.013l14.507-45.334h-18.053" fill="#7392af"/><path d="M807.341 543.254c-18.373 10.608-48.266 10.553-66.746-.122-18.494-10.674-18.587-27.928-.214-38.536 18.374-10.608 48.254-10.553 66.747.122 18.493 10.674 18.587 27.928.213 38.536" fill="#96b6d5"/><path d="M802.275 539.635c-15.774 9.107-41.427 9.06-57.294-.103-15.88-9.162-15.96-23.973-.186-33.078 15.773-9.106 41.426-9.059 57.293.104 15.88 9.162 15.96 23.972.187 33.077" fill="#303156"/><path d="M742.608 513.706c-1.96-2.572-3.707-5.47-4.027-8.687-.333-3.219 1.107-6.796 4.054-8.127 3.426-1.546 7.493.38 10.146 3.038 2.654 2.657 4.547 6.041 7.414 8.469-3.667-11.628-7.347-23.255-11.014-34.883-1.12-3.529-2.253-7.25-1.493-10.876.747-3.625 4.093-7 7.747-6.401 7.013 1.152 5.986 13.03 12.226 16.435a89.595 89.595 0 01-9.186-27.695c-.894-5.644-1.187-11.692 1.36-16.808 2.546-5.116 8.76-8.783 14.106-6.753 6.6 2.51 7.894 11.138 8.134 18.204.306 9.09.6 18.181.906 27.27 2.227-9.102 5.68-19.605 14.574-22.561 2.426 12.47.573 25.732-5.174 37.061 2.36-4.136 6.947-6.898 11.707-7.037 2.24 12.717-2.107 26.419-11.28 35.51 2.533-2.811 5.053-5.623 7.587-8.434 2.266 8.81-.814 18.777-7.64 24.788-16 14.079-39.28 1.744-50.147-12.513" fill="#64caac"/><path d="M433.577 356.999l233.004 137.553c1.627.964 3.747.92 5.534-.116l16.826-9.716c3.867-2.23 4.307-7.614.787-9.69L456.725 337.476c-1.632-.962-3.741-.918-5.534.118l-16.828 9.716c-3.866 2.23-4.302 7.614-.786 9.689" fill="#adc5e9"/><path d="M676.701 483.367l12.867-8.763-35.16-43.297 12.36 20.516 9.933 31.544" fill="#8cacd2"/><path d="M415.008 108.51l12.465-10.054 27.59 30.934s-17.595 12.941-19.194 12.941c-1.6 0-20.861-33.821-20.861-33.821" fill="#bad1ed"/><path d="M512.997 464.92l-52.557-30.344c-4.217-2.434-4.093-6.394.272-8.71l74.223-39.363c4.112-2.18 10.492-2.09 14.465.203l47.261 27.289c4.014 2.312 4.134 6.03.28 8.399l-68.933 42.416c-4.025 2.477-10.825 2.526-15.01.11" fill="#8cacd2"/><g clip-path="url(#e)" transform="matrix(.13333 0 0 -.13333 -778.192 1128.475)"><path d="M9739.66 5016.66c-20.12 0-40.3 4.44-55.74 13.36l-394.18 227.58c-2.98 1.72-5.68 3.55-8.08 5.45-23.09 18.31-19.53 44.15 10.12 59.87l306.06 162.32 25.87 13.72-27.9-14.8 481.39-280.59-280.7-172.72c-15.34-9.44-36.06-14.19-56.84-14.19" fill="url(#f)"/></g><path d="M504.97 395.28l8.27-4.385-8.27 4.385" fill="#8397c3"/><path d="M565.661 434.796l-.226-.13 11.653-7.17.227.13-11.654 7.17" fill="#6a83af"/><g clip-path="url(#g)" transform="matrix(.13333 0 0 -.13333 -778.192 1128.475)"><path d="M10077.2 5203.57l-481.39 280.59 27.9 14.8 62.03 32.89 478.86-274.51-87.4-53.77" fill="url(#h)"/></g><path d="M686.835 247.059l-.347.083h.08L432.884 100.135l-2.359-1.52c-1.933-1.124-4.28.165-4.28 2.561l2.136.632h1.427v233.388c0 2.603.993 5.732 3.093 6.954 0 0 256.627 124.748 256.627 122.145l.28-210.733v-.379c0-2.395-1.053-5-2.973-6.124" fill="#bad1ed"/><path d="M582.021 338.064c32.974-33.162 51.547 60.946 72.387 112.534 10.453 25.87 35.013 24.272 35.013 24.272l.387-219.924v-1.007c0-1.3-.093-3.175-.733-4.404l-107.054 88.53" fill="#8cacd2"/><g clip-path="url(#i)" transform="matrix(.13333 0 0 -.13333 -778.192 1128.475)"><path d="M10907.5 4834.96c-3.9 0-8.3 1.25-12.9 3.9l-685.1 392.75-43.2 24.76-1.7.97-478.86 274.51-580.94 333.04-133.63 76.6c-15.87 9.1-28.86 31.34-28.86 49.42l.03 213.82c4.79-11.18 12.99-21.5 22.25-26.84l1931.31-1115.03c4.2-2.42 8.1-3.56 11.7-3.56 8.8 0 14.8 7.09 14.8 19.27l-3.1 1408.48c0 10.54-4.6 22.54-11.5 32.16 9.4-10.83 15.9-25.7 15.9-38.49l-.2-1464.84v-64.31l-.1-96.38c0-12.81-6.5-20.23-15.9-20.23" fill="url(#j)"/></g><path d="M674.595 453.427l-257.508-148.67c-1.952-1.126-3.552-3.913-3.558-6.19l-.412-187.797c-.005-2.279 1.587-3.222 3.538-2.095l257.5 148.67c1.96 1.126 3.56 3.911 3.56 6.19l.413 187.797c0 2.278-1.587 3.22-3.533 2.095" fill="#3f3d6b"/><path d="M664.755 428.032L422.476 288.154 423 125.338l242.275 139.878-.52 162.816" fill="#a4ccee"/><path d="M605.635 266.104l-131.73-76.054c-1.932-1.115-3.497-4.106-3.497-6.682 0-2.574 1.565-3.757 3.497-2.642l131.73 76.054c1.933 1.115 3.493 4.107 3.493 6.682 0 2.574-1.56 3.758-3.493 2.642" fill="#6966a3"/><path d="M607.008 308.664l-106.09-61.252c-1.931-1.114-3.498-4.106-3.498-6.681 0-2.576 1.565-3.759 3.497-2.644l106.091 61.252c1.933 1.115 3.493 4.107 3.493 6.681 0 2.576-1.56 3.76-3.493 2.644" fill="#d92576"/><path d="M607.008 331.912l-35.08-20.257c-1.933-1.116-3.507-4.107-3.507-6.683 0-2.574 1.574-3.758 3.507-2.642l35.08 20.257c1.933 1.115 3.493 4.107 3.493 6.681 0 2.575-1.56 3.759-3.493 2.644M519.443 281.355l-16.986-9.807c-1.932-1.114-3.497-4.106-3.497-6.681s1.565-3.759 3.497-2.644l16.986 9.807c1.93 1.114 3.497 4.106 3.497 6.681 0 2.576-1.567 3.759-3.497 2.644M498.216 293.792l-22.423-12.945c-1.93-1.116-3.496-4.107-3.496-6.683 0-2.574 1.566-3.757 3.496-2.642l22.423 12.945c1.93 1.115 3.497 4.107 3.497 6.681 0 2.575-1.566 3.759-3.497 2.644" fill="#6966a3"/><path d="M534.27 338.052l-58.475-33.761c-1.932-1.115-3.498-4.107-3.498-6.681 0-2.576 1.566-3.759 3.498-2.644l58.476 33.761c1.93 1.116 3.497 4.107 3.497 6.681 0 2.576-1.567 3.759-3.497 2.644" fill="#d92576"/><path d="M606.328 356.207l-91.16-52.628c-1.932-1.115-3.497-4.107-3.497-6.681 0-2.575 1.565-3.759 3.497-2.644l91.16 52.628c1.92 1.116 3.493 4.106 3.493 6.682 0 2.575-1.573 3.759-3.493 2.643M555.13 301.96l-14.698-8.486c-1.932-1.116-3.497-4.107-3.497-6.682 0-2.576 1.565-3.758 3.497-2.644l14.699 8.487c1.93 1.115 3.504 4.107 3.504 6.681 0 2.576-1.574 3.759-3.504 2.644M537.496 245.678l-36.579-21.119c-1.932-1.115-3.497-4.107-3.497-6.681 0-2.576 1.565-3.759 3.497-2.644l36.579 21.12c1.932 1.114 3.497 4.105 3.497 6.681 0 2.575-1.565 3.759-3.497 2.643" fill="#6966a3"/><path d="M560.728 259.091l-10.265-5.927c-1.932-1.116-3.498-4.106-3.498-6.681 0-2.576 1.566-3.76 3.498-2.644l10.265 5.928c1.933 1.115 3.493 4.107 3.493 6.681 0 2.575-1.56 3.759-3.493 2.643" fill="#d92576"/><path d="M487.727 314.77l-56.543-29.378 82.753-30.462 53.898 31.118-14.874 5.334-12.529-7.234c-.493-.285-.963-.42-1.388-.42-1.241 0-2.11 1.147-2.11 3.064 0 2.575 1.566 5.566 3.498 6.682l2.565 1.481-16.42 5.887-11.409-6.588c-.493-.284-.963-.42-1.39-.42-1.24 0-2.107 1.146-2.107 3.064 0 2.574 1.565 5.566 3.497 6.681l1.445.835-15.088 5.408-25.73-14.856c-.495-.286-.964-.42-1.39-.42-1.24 0-2.108 1.146-2.108 3.064 0 2.574 1.566 5.566 3.498 6.681l15.766 9.104-3.834 1.375m-13.322-43.668c-1.24 0-2.108 1.146-2.108 3.062 0 2.576 1.566 5.567 3.496 6.683l22.423 12.945c.493.284.963.419 1.388.419 1.24 0 2.11-1.145 2.11-3.063 0-2.574-1.567-5.566-3.498-6.681l-22.423-12.945c-.493-.286-.962-.42-1.388-.42m26.663-9.298c-1.24 0-2.108 1.146-2.108 3.063 0 2.575 1.565 5.567 3.497 6.681l16.986 9.807c.493.285.962.42 1.388.42 1.24 0 2.109-1.147 2.109-3.064 0-2.575-1.567-5.567-3.497-6.681l-16.986-9.807c-.494-.284-.964-.419-1.389-.419m76.74 20.672L523.801 251.3l14.411-5.305c.233.07.459.104.672.104.67 0 1.23-.334 1.605-.943l17.626-6.487 47.52 27.436c.493.286.96.42 1.386.42 1.24 0 2.107-1.145 2.107-3.062 0-2.575-1.56-5.567-3.493-6.682l-37.654-21.742 18.04-6.642 55.84 31.115-64.053 22.965m-28.735-39.057c-1.24 0-2.108 1.145-2.108 3.064 0 2.575 1.566 5.565 3.498 6.681l10.265 5.927c.493.285.96.42 1.387.42 1.24 0 2.106-1.145 2.106-3.063 0-2.574-1.56-5.566-3.493-6.681l-10.265-5.928c-.494-.285-.963-.42-1.39-.42" fill="#bddcf4"/><path d="M607.021 266.524c-.426 0-.893-.134-1.386-.42l-47.52-27.436 9.866-3.63 37.654 21.742c1.933 1.115 3.493 4.107 3.493 6.682 0 1.917-.867 3.062-2.107 3.062" fill="#9591bd"/><path d="M567.835 286.048l-53.898-31.118 9.864-3.631 54.007 31.177-9.973 3.572" fill="#e4569e"/><path d="M520.83 281.775c-.425 0-.894-.135-1.387-.42l-16.986-9.807c-1.932-1.114-3.497-4.106-3.497-6.681 0-1.917.868-3.063 2.108-3.063.425 0 .895.135 1.39.419l16.985 9.807c1.93 1.114 3.497 4.106 3.497 6.681 0 1.917-.87 3.064-2.11 3.064M499.604 294.211c-.425 0-.895-.135-1.388-.419l-22.423-12.945c-1.93-1.116-3.496-4.107-3.496-6.683 0-1.916.868-3.062 2.108-3.062.426 0 .895.134 1.388.42l22.423 12.945c1.93 1.115 3.497 4.107 3.497 6.681 0 1.918-.869 3.063-2.109 3.063" fill="#9591bd"/><path d="M491.561 313.395l-15.766-9.104c-1.932-1.115-3.498-4.107-3.498-6.681 0-1.918.868-3.064 2.108-3.064.426 0 .895.134 1.39.42l25.73 14.856-9.964 3.573" fill="#e4569e"/><path d="M516.613 304.414l-1.445-.835c-1.932-1.115-3.497-4.107-3.497-6.681 0-1.918.868-3.064 2.108-3.064.426 0 .896.136 1.389.42l11.41 6.588-9.965 3.572M542.997 294.955l-2.565-1.481c-1.932-1.116-3.497-4.107-3.497-6.682 0-1.917.868-3.064 2.109-3.064.425 0 .895.135 1.388.42l12.53 7.234-9.965 3.573M538.884 246.098c-.213 0-.439-.034-.672-.104l2.277-.839c-.374.61-.934.943-1.605.943" fill="#9591bd"/><path d="M562.115 259.511c-.427 0-.894-.135-1.387-.42l-10.265-5.927c-1.932-1.116-3.498-4.106-3.498-6.681 0-1.919.868-3.064 2.108-3.064.427 0 .896.135 1.39.42l10.265 5.928c1.933 1.115 3.493 4.107 3.493 6.681 0 1.918-.866 3.063-2.106 3.063" fill="#e4569e"/><path d="M432.475 272.572v-26.474l66.406-23.586c.574.88 1.276 1.608 2.036 2.047l26.07 15.052-14.607 5.095-11.463-6.619c-.493-.285-.962-.42-1.388-.42-1.241 0-2.109 1.147-2.109 3.064 0 2.575 1.567 5.567 3.497 6.681l1.394.804-69.836 24.356M537.056 236.1l-29.11-16.807 10.282-3.652 29.181 16.848-10.353 3.611m20.419-7.123l-29.247-16.886 13.733-4.879 31.46 16.204-15.946 5.561" fill="#bddcf4"/><path d="M547.41 232.488l-29.182-16.848 10-3.55 29.247 16.886-10.066 3.512" fill="#9591bd"/><path d="M502.31 248.216l-1.393-.804c-1.93-1.114-3.497-4.106-3.497-6.681 0-1.917.868-3.064 2.11-3.064.425 0 .894.135 1.387.42l11.463 6.619-10.07 3.51" fill="#e4569e"/><path d="M526.987 239.611l-26.07-15.052c-.76-.439-1.462-1.167-2.036-2.047l9.066-3.22 29.109 16.807-10.07 3.512" fill="#9591bd"/><path d="M535.86 388.574c0 5.554-3.925 7.792-8.765 4.997-4.842-2.795-8.767-9.564-8.767-15.12 0-5.555 3.925-7.792 8.767-4.997 4.84 2.794 8.765 9.564 8.765 15.12" fill="#adc5e9"/><path d="M232.98 358.936c-2.272 0-5.18-.858-8.905-3.065-16.883-10.001-15.223-31.959-15.223-31.959s.092-.006.272-.006c1.979 0 14.577.737 32.035 18.428l.009.22-.08 5.652s-.08 10.73-8.108 10.73" fill="#f6fcfe"/><path d="M209.7 324.782s12.905-.022 31.373 17.781l-.1 5.073s-.185 15.306-16.572 5.696c-16.386-9.61-14.701-28.55-14.701-28.55zm14.235 31.594c22.025 12.916 22.273-7.69 22.273-7.69l.179.096-.315-7.032c-24.132-22.974-40.23-22.755-40.23-22.755s-3.931 24.465 18.093 37.381" fill="#492e50"/><path d="M254.47 353.054l-13.138-6.823-.341-7.652 13.137 6.823.341 7.652M206.633 324.896l-2.326-1.209c-1.27-.659-2.359-2.53-2.432-4.181-.074-1.65.896-2.454 2.165-1.794l2.327 1.208c1.269.66 2.358 2.532 2.432 4.182.073 1.65-.896 2.453-2.166 1.794M291.599 369.026l-2.327-1.208c-1.27-.66-2.359-2.532-2.432-4.183-.073-1.65.896-2.453 2.164-1.793l2.328 1.209c1.27.659 2.357 2.53 2.432 4.181.073 1.65-.896 2.452-2.165 1.794" fill="#492e50"/><path d="M279.012 382.747c-1.504 0-3.297-.413-5.432-1.365-16.281-7.26-17.981-25.36-17.981-25.36l-.603-6.043c17.661.03 31.23 14.62 31.23 14.62s2.743 18.15-7.214 18.148" fill="#f6fcfe"/><path d="M273.69 378.932c-16.287-7.361-17.878-23.589-17.878-23.589l-.568-5.42c17.717.99 31.237 14.737 31.237 14.737s3.495 21.632-12.792 14.272zm16.305-16.228s-16.883-17.349-40.062-18.949l.314 7.03.178.091s2.142 21.847 24.031 31.74c21.89 9.892 15.539-19.912 15.539-19.912" fill="#492e50"/><path d="M258.716 359.372c-.525-.698-.656-1.558-.292-1.92l4.244-4.222c.364-.363 1.085-.091 1.612.608.525.698.656 1.558.292 1.921l-4.244 4.221c-.364.363-1.085.091-1.612-.608M211.788 334.026c-.525-.699-.657-1.559-.292-1.92l4.244-4.223c.364-.363 1.085-.09 1.61.608.527.699.658 1.559.294 1.92l-4.244 4.223c-.364.362-1.085.09-1.612-.608" fill="#feffff"/><path d="M180.239 448.42l10.864-61.017 37.954 23.155-8.644 55.498c-.684 8.982-41.922 3.004-40.174-17.636" fill="#f89a74"/><path d="M207.084 303.143s-35.521-24.796-38.717 31.776c-2.223 39.352 20.554 74.725 52.873 91.79 20.125 10.625 45.944-.334 48.065-19.875 6.358-28.338 7.782-55.063-.666-78.564 2.557-23.564-14.534-16.012-43.258-19.019l-18.297-6.108" fill="#f89a74"/><path d="M185.904 417.602c-2.63-2.95-5.405-5.774-8.836-7.738-11.99-6.865-34.968-25.644-30.035-67.096 3.338-35.318 20.6-52.18 62.841-55.395 13.594-1.035 38.589 6.493 51.94 19.68 12.142 11.993 7.526 23.52-10.796 24.234-10.027 7.292 1.729 26.619-.073 33.23-3.204 11.755-10.904 17.189-14.232 28.574-3.148 10.772-20.23 25.932-30.612 27.717-12.3 2.116-17.768-.48-20.197-3.206" fill="#422319"/><path d="M290.595 370.82l-51.386 2.292a3.336 3.336 0 01-3.47-3.174 3.335 3.335 0 013.174-3.471l51.384-2.292a3.338 3.338 0 013.472 3.175 3.336 3.336 0 01-3.174 3.47" fill="#492e50"/><path d="M246.588 381.884c.332 9.584-4.965 17.547-11.832 17.786a9.114 9.114 0 01-2.21-.195c-5.869-1.25-10.529-8.193-10.825-16.73-.332-9.586 4.966-17.549 11.834-17.786 6.866-.237 12.701 7.34 13.033 16.925" fill="#f89a74"/><path d="M245.75 472.34c-41.829-8.322-73.366 16.776-77.038-44.284 6.61-3.513 14.41-1.294 17.93 4.839 6.177 10.77 20.989 18.092 38.353 16.816 5.197-.383 9.986 2.193 12.322 6.627l8.432 16.002" fill="#6966a3"/><path d="M587.021 677.839l-79.252-45.756a1.465 1.465 0 010-2.537l108.652-62.727a1.47 1.47 0 011.467 0l79.24 45.755a1.458 1.458 0 010 2.537l-108.64 62.728a1.47 1.47 0 01-1.467 0" fill="#de2478"/><path d="M509.808 631.142h-2.667v-4h2.667v4M699.141 613.808h-4v-2.666h4v2.666" fill="#de2478"/><path d="M587.021 675.152l-79.252-45.756a1.465 1.465 0 010-2.537l108.652-62.727a1.47 1.47 0 011.467 0l79.24 45.755a1.459 1.459 0 010 2.539l-108.64 62.726a1.47 1.47 0 01-1.467 0" fill="#ef277b"/><path d="M666.208 723.4l-79.253-45.754a1.467 1.467 0 010-2.538l108.653-62.726a1.463 1.463 0 011.467 0l79.253 45.754a1.467 1.467 0 010 2.538L667.675 723.4a1.463 1.463 0 01-1.467 0" fill="#de2478"/><path d="M589.808 676.475h-2.667v-2.667h2.667v2.667M777.808 657.808h-4v-1.333h4v1.333" fill="#de2478"/><path d="M666.208 720.715l-79.253-45.756a1.467 1.467 0 010-2.537l108.653-62.727a1.463 1.463 0 011.467 0l79.253 45.755a1.467 1.467 0 010 2.537l-108.653 62.728a1.47 1.47 0 01-1.467 0" fill="#ef277b"/><path d="M535.341 636.951l51.627 33.31 31.333-24.937s-60.826-24.786-82.96-8.373" fill="#de2478"/><g clip-path="url(#k)" transform="matrix(.13333 0 0 -.13333 -778.192 1128.475)"><path d="M10242 3443.35c-27.3 103.05-187.6 156.29-390.5 243.08-45.7 19.55-93.56 40.79-142.56 64.7-8.53 4.92-7.45 13.6 2.4 19.29l81.88 47.27c.28-.24.57-.48.88-.71 237.6-151.25 472.2-226.4 447.9-373.63m0 0l758.2 442.38c.2 1.46.3 2.91.4 4.38.2-2.91.2-5.82.1-8.74l-740-427.22-18.7-10.8" fill="url(#l)"/></g><g clip-path="url(#m)" transform="matrix(.13333 0 0 -.13333 -778.192 1128.475)"><path d="M10242 3443.35c24.3 147.23-210.3 222.38-447.9 373.63-.31.23-.6.47-.88.71-6.53 5.7-4.66 14.46 4.48 19.91l662.9 395.49 36.3 21.66c4.8 2.85 10.7 4.27 16.3 4.27 5.6 0 11-1.41 14.7-4.23 262.7-104.91 436.8-220.47 467.9-325.46 3.9-13.25 5.5-26.35 4.8-39.22-.1-1.47-.2-2.92-.4-4.38l-758.2-442.38m-257.71 365.69c-2.35 0-4.78-.5-6.74-1.52-3.97-2.06-4.55-5.42-1.29-7.51l256.34-163.94c1.6-1.05 3.9-1.58 6.3-1.58s4.8.51 6.8 1.53c3.9 2.06 4.5 5.42 1.2 7.5l-256.26 163.94c-1.65 1.06-3.95 1.58-6.35 1.58m84.11 54.34c-2.4 0-4.8-.51-6.8-1.53-3.9-2.06-4.5-5.42-1.3-7.51l256.3-163.94c1.7-1.05 4-1.58 6.4-1.58 2.3 0 4.8.51 6.7 1.53 4 2.06 4.6 5.42 1.3 7.5l-256.3 163.95c-1.6 1.05-3.9 1.58-6.3 1.58m84.1 54.33c-2.4 0-4.8-.51-6.8-1.53-4-2.06-4.5-5.42-1.3-7.51l256.3-163.94c1.7-1.05 4-1.58 6.4-1.58 2.3 0 4.7.51 6.7 1.53 4 2.06 4.6 5.42 1.3 7.5l-256.3 163.95c-1.6 1.05-4 1.58-6.3 1.58m86 75.07c-2.3 0-4.8-.51-6.7-1.53-4-2.06-4.6-5.41-1.3-7.5l256.3-163.95c1.6-1.05 3.9-1.57 6.3-1.57s4.8.5 6.8 1.52c3.9 2.06 4.5 5.42 1.2 7.51l-256.2 163.94c-1.7 1.05-4 1.58-6.4 1.58m84.1 54.33c-2.4 0-4.8-.51-6.8-1.53-3.9-2.06-4.5-5.41-1.2-7.5l256.3-163.94c1.6-1.06 3.9-1.58 6.3-1.58s4.8.5 6.7 1.52c4 2.06 4.6 5.42 1.3 7.51l-256.3 163.94c-1.6 1.05-3.9 1.58-6.3 1.58m84.1 54.33c-2.4 0-4.8-.51-6.8-1.53-4-2.06-4.5-5.41-1.3-7.5l256.3-163.94c1.7-1.06 4-1.58 6.4-1.58 2.3 0 4.8.5 6.7 1.52 4 2.06 4.6 5.42 1.3 7.51l-256.3 163.94c-1.6 1.05-3.9 1.58-6.3 1.58m84 54.33c-2.3 0-4.7-.51-6.7-1.53-4-2.05-4.5-5.41-1.3-7.5l256.3-163.94c1.7-1.06 4-1.58 6.4-1.58 2.3 0 4.7.51 6.7 1.52 4 2.06 4.6 5.42 1.3 7.51l-256.3 163.94c-1.7 1.05-4 1.58-6.4 1.58m84.1 54.33c-2.3 0-4.8-.51-6.7-1.53-4-2.05-4.6-5.41-1.3-7.5l256.3-163.94c1.6-1.06 3.9-1.58 6.3-1.58s4.8.51 6.8 1.53c4 2.05 4.5 5.41 1.3 7.5l-256.3 163.94c-1.7 1.05-4 1.58-6.4 1.58" fill="url(#n)"/></g><g clip-path="url(#o)" transform="matrix(.13333 0 0 -.13333 -778.192 1128.475)"><g clip-path="url(#p)"><path d="M10825 4035v1h-2v1h-2v1h-1v1h-2v1h-1v1h-2v1h-2v1h-1v1h-2v1h-1v1h-2v1h-1v1h-2v1h-2v1h-1v1h-2v1h-1v1h-2v1h-1v1h-2v1h-1v1h-2v1h-2v1h-1v1h-2v1h-1v1h-2v1h-1v1h-2v1h-2v1h-1v1h-2v1h-1v1h-2v1h-1v1h-2v1h-1v1h-2v1h-2v1h-1v1h-2v1h-1v1h-2v1h-1v1h-2v1h-2v1h-1v1h-2v1h-1v1h-2v1h-1v1h-2v1h-1v1h-2v1h-2v1h-1v1h-2v1h-1v1h-2v1h-1v1h-2v1h-2v1h-1v1h-2v1h-1v1h-2v1h-1v1h-2v1h-1v1h-2v1h-2v1h-1v1h-2v1h-1v1h-2v1h-1v1h-2v1h-2v1h-1v1h-2v1h-1v1h-2v1h-1v1h-2v1h-2v1h-1v1h-2v1h-1v1h-2v1h-1v1h-2v1h-1v1h-2v1h-2v1h-1v1h-2v1h-1v1h-2v1h-1v1h-2v1h-2v1h-1v1h-2v1h-1v1h-2v1h-1v1h-2v1h-1v1h-2v1h-2v1h-1v1h-2v1h-1v1h-2v1h-1v1h-2v1h-2v1h-1v1h-2v1h-1v1h-2v1h-1v1h-2v1h-1v1h-2v1h-2v1h-1v1h-2v1h-1v1h-2v1h-1v1h-2v1h-2v1h-1v1h-2v1h-1v1h-2v1h-1v1h-2v1h-1v1h-2v1h-2v1h-1v1h-2v1h-1v1h-2v1h-1v1h-2v1h-2v1h-1v1h-2v1h-1v1h-2v1h-1v1h-2v1h-2v1h-1v1h-2v1h-1v1h-2v1h-1v1h-2v1h-1v1h-2v1h-2v1h-1v2h-1v3h1v2h2v1h2v1h4v1h4v-1h4v-1h2v-1h1v-1h2v-1h1v-1h2v-1h1v-1h2v-1h1v-1h2v-1h2v-1h1v-1h2v-1h1v-1h2v-1h1v-1h2v-1h2v-1h1v-1h2v-1h1v-1h2v-1h1v-1h2v-1h1v-1h2v-1h2v-1h1v-1h2v-1h1v-1h2v-1h1v-1h2v-1h2v-1h1v-1h2v-1h1v-1h2v-1h1v-1h2v-1h1v-1h2v-1h2v-1h1v-1h2v-1h1v-1h2v-1h1v-1h2v-1h2v-1h1v-1h2v-1h1v-1h2v-1h1v-1h2v-1h1v-1h2v-1h2v-1h1v-1h2v-1h1v-1h2v-1h1v-1h2v-1h2v-1h1v-1h2v-1h1v-1h2v-1h1v-1h2v-1h2v-1h1v-1h2v-1h1v-1h2v-1h1v-1h2v-1h1v-1h2v-1h2v-1h1v-1h2v-1h1v-1h2v-1h1v-1h2v-1h2v-1h1v-1h2v-1h1v-1h2v-1h1v-1h2v-1h1v-1h2v-1h2v-1h1v-1h2v-1h1v-1h2v-1h1v-1h2v-1h2v-1h1v-1h2v-1h1v-1h2v-1h1v-1h2v-1h1v-1h2v-1h2v-1h1v-1h2v-1h1v-1h2v-1h1v-1h2v-1h2v-1h1v-1h2v-1h1v-1h2v-1h1v-1h2v-1h2v-1h1v-1h2v-1h1v-1h2v-1h1v-1h2v-1h1v-1h2v-1h2v-1h1v-1h2v-1h1v-1h2v-1h1v-1h2v-1h2v-1h1v-1h2v-1h1v-1h2v-1h1v-1h2v-1h1v-1h2v-1h2v-1h1v-1h2v-1h1v-1h2v-1h1v-1h2v-1h2v-1h1v-1h2v-1h1v-1h2v-1h1v-1h2v-1h1v-5h-1v-1h-1v-1h-1v-1h-3v-1" fill="url(#q)"/></g></g><g clip-path="url(#r)" transform="matrix(.13333 0 0 -.13333 -778.192 1128.475)"><path d="M10745.4 3981.22c-2.4 0-4.7.52-6.4 1.58l-256.3 163.94c-3.2 2.09-2.7 5.45 1.3 7.5 2 1.02 4.4 1.53 6.7 1.53 2.4 0 4.7-.53 6.4-1.58l256.3-163.94c3.3-2.09 2.7-5.45-1.3-7.51-2-1.01-4.4-1.52-6.7-1.52" fill="url(#s)"/></g><g clip-path="url(#t)" transform="matrix(.13333 0 0 -.13333 -778.192 1128.475)"><path d="M10661.3 3926.89c-2.4 0-4.7.52-6.4 1.58l-256.3 163.94c-3.2 2.09-2.7 5.44 1.3 7.5 2 1.02 4.4 1.53 6.8 1.53 2.4 0 4.7-.53 6.3-1.58l256.3-163.94c3.3-2.09 2.7-5.45-1.3-7.51-1.9-1.02-4.4-1.52-6.7-1.52" fill="url(#u)"/></g><g clip-path="url(#v)" transform="matrix(.13333 0 0 -.13333 -778.192 1128.475)"><path d="M10577.2 3872.56c-2.4 0-4.7.52-6.3 1.58l-256.3 163.94c-3.3 2.09-2.7 5.44 1.2 7.5 2 1.02 4.4 1.53 6.8 1.53 2.4 0 4.7-.53 6.3-1.58l256.3-163.94c3.3-2.09 2.7-5.45-1.3-7.51-1.9-1.02-4.3-1.52-6.7-1.52" fill="url(#w)"/></g><g clip-path="url(#x)" transform="matrix(.13333 0 0 -.13333 -778.192 1128.475)"><path d="M10493.1 3818.23c-2.4 0-4.7.52-6.3 1.57l-256.3 163.95c-3.3 2.09-2.7 5.44 1.3 7.5 1.9 1.02 4.4 1.53 6.7 1.53 2.4 0 4.7-.53 6.4-1.58l256.2-163.94c3.3-2.09 2.7-5.45-1.2-7.51-2-1.02-4.4-1.52-6.8-1.52" fill="url(#y)"/></g><g clip-path="url(#z)" transform="matrix(.13333 0 0 -.13333 -778.192 1128.475)"><path d="M10407.1 3743.15c-2.4 0-4.7.53-6.4 1.58l-256.3 163.94c-3.2 2.09-2.7 5.45 1.3 7.51 2 1.02 4.4 1.53 6.8 1.53 2.3 0 4.7-.53 6.3-1.58l256.3-163.95c3.3-2.08 2.7-5.44-1.3-7.5-2-1.02-4.4-1.53-6.7-1.53" fill="url(#A)"/></g><g clip-path="url(#B)" transform="matrix(.13333 0 0 -.13333 -778.192 1128.475)"><path d="M10323 3688.82c-2.4 0-4.7.53-6.4 1.58l-256.3 163.94c-3.2 2.09-2.6 5.45 1.3 7.51 2 1.02 4.4 1.53 6.8 1.53 2.4 0 4.7-.53 6.3-1.58l256.3-163.95c3.3-2.08 2.7-5.44-1.3-7.5-1.9-1.02-4.4-1.53-6.7-1.53" fill="url(#C)"/></g><g clip-path="url(#D)" transform="matrix(.13333 0 0 -.13333 -778.192 1128.475)"><path d="M10238.9 3634.49c-2.4 0-4.7.53-6.3 1.58l-256.34 163.94c-3.26 2.09-2.68 5.45 1.29 7.51 1.96 1.02 4.39 1.52 6.74 1.52 2.4 0 4.7-.52 6.35-1.58l256.26-163.94c3.3-2.08 2.7-5.44-1.2-7.5-2-1.02-4.4-1.53-6.8-1.53" fill="url(#E)"/></g><path d="M586.968 670.262l42 20.436s-29.587-34.436-42-20.436" fill="#de2478"/><path d="M587.408 669.362s9.747-3.631 17.613 2.878c7.867 6.51 58.04 44.207 58.04 44.207l101.974-58.31s-54.494-52.86-76.467-47.178l-101.16 58.403" fill="#fff"/><path d="M734.661 644.312c-.333 0-.666-.077-.893-.229l-33.667-22.624c-.426-.288-.346-.735.187-.997a2.02 2.02 0 01.867-.184c.333 0 .653.078.88.23l33.68 22.624c.426.288.333.735-.2.998-.254.122-.56.182-.854.182M723.288 651.302c-.333 0-.667-.078-.893-.23l-33.667-22.624c-.427-.289-.347-.734.2-.997a1.92 1.92 0 01.853-.184c.334 0 .654.079.88.23l33.68 22.625c.427.288.334.734-.2.997-.253.123-.56.183-.853.183M711.915 658.292c-.334 0-.654-.078-.88-.23l-33.68-22.626c-.427-.288-.334-.733.2-.996a1.96 1.96 0 01.853-.184c.333 0 .667.079.893.231l33.667 22.624c.427.288.347.735-.2.997a1.92 1.92 0 01-.853.184M700.555 665.282c-.347 0-.667-.079-.894-.231l-33.68-22.625c-.426-.288-.333-.734.2-.996.254-.123.56-.184.854-.184.333 0 .666.078.893.23l33.667 22.624c.426.288.346.735-.187.998-.253.122-.56.184-.853.184M689.181 672.27c-.346 0-.666-.078-.893-.23l-33.667-22.625c-.44-.287-.346-.733.187-.996.253-.123.56-.184.853-.184.334 0 .667.079.894.23l33.666 22.626c.427.287.347.733-.186.996-.254.123-.56.183-.854.183M677.475 682.019c-.334 0-.654-.079-.88-.23l-33.68-22.625c-.427-.288-.334-.734.2-.997.253-.123.56-.183.853-.183.333 0 .667.078.893.23l33.667 22.624c.427.289.347.734-.2.997a1.92 1.92 0 01-.853.184M666.115 689.008c-.347 0-.667-.077-.894-.23l-33.68-22.624c-.426-.288-.333-.735.2-.996.254-.124.56-.184.854-.184.333 0 .666.077.893.229l33.667 22.625c.426.287.346.734-.187.996-.253.123-.56.184-.853.184M654.741 695.998c-.346 0-.666-.078-.893-.231l-33.667-22.624c-.44-.288-.346-.735.187-.996.253-.124.56-.184.853-.184.334 0 .667.077.894.23l33.666 22.625c.427.286.347.733-.186.996-.254.122-.56.184-.854.184" fill="#d5d2e5"/><path d="M725.088 625.494c-11.707 10.444-43.427 35.373-60.267 48.378-.8.618-.306 1.892.707 1.815l12.56-.97a1.012 1.012 0 011.04 1.326l-2.8 8.73c-.293.927.76 1.717 1.547 1.151 7.013-5.004 26.226-25.913 54-53.16 2.28-2.234 1.893-6.012-.787-7.74a4.964 4.964 0 00-6 .47M856.848 276.707l-76.4-44.287c-3.147-1.816-5.907-1.822-7.987-.394l.014-.011-12.867 7.287s4.867 7.637 8.867 16.626v69.086c0 8.764 5.36 18.946 11.933 22.742l62.28 35.968c5.813 9.784 9.747 16.184 9.747 16.184l12.04-6.948v-.02c2.666-1.256 4-4.752 4-9.897V299.45c0-8.766-5.054-18.948-11.627-22.743" fill="#706bbc"/><path d="M843.928 399.742l-76.707-44.286c-6.573-3.796-11.893-13.978-11.893-22.742v-83.595c0-8.765 5.32-12.793 11.893-8.997l76.707 44.284c6.573 3.796 11.907 13.978 11.907 22.742v83.595c0 8.765-5.334 12.793-11.907 8.999" fill="#7d78c3"/><path d="M838.568 405.546c-1.453 0-3.053-.459-4.72-1.43l-76.707-44.284c-6.573-3.796-11.906-13.978-11.906-22.742v-83.595c0-6.527 2.96-10.427 7.173-10.427 1.147 0 2.387.287 3.68.884-.493 1.459-.76 3.192-.76 5.167v83.595c0 8.764 5.32 18.946 11.893 22.742l76.707 44.286c.36.204.707.385 1.053.544-1.146 3.362-3.466 5.26-6.413 5.26" fill="#cbc1e6"/><path d="M844.981 400.286c-.346-.159-.693-.34-1.053-.544l-76.707-44.286c-6.573-3.796-11.893-13.978-11.893-22.742v-83.595c0-1.975.267-3.708.76-5.167.347.159.693.34 1.053.544l76.707 44.286c6.573 3.796 11.893 13.978 11.893 22.742v83.595c0 1.975-.266 3.708-.76 5.167" fill="#7d78c3"/><path d="M784.488 335.539l-20.333-35.081L786.3 287.83l4.267 7.5-14.587 8.32 15.974 27.558-7.467 4.331M824.741 356.975l-4.266-7.499 14.373-8.2-16.187-27.925 7.467-4.33 20.547 35.449-21.934 12.505M802.955 352.646l-8.334-2.256 15.2-56.119 8.334 2.256-15.2 56.119" fill="#fff"/><path d="M715.235 45.704L638.688 1.42c-3.147-1.816-5.973-1.824-8.053-.395l-.027-.012-12.6 7.288s3.8 7.638 9.133 16.627v69.084c0 8.765 5.067 18.948 11.64 22.743l62.147 35.969c5.813 9.783 9.96 16.184 9.96 16.184l12.253-6.948v-.021c1.334-1.255 4-4.751 4-9.896V68.447c0-8.765-5.333-18.947-11.906-22.743" fill="#4fc29b"/><path d="M702.035 168.739l-76.707-44.285c-6.573-3.795-11.907-13.978-11.907-22.743V18.118c0-8.766 5.334-12.795 11.907-8.999l76.707 44.285c6.573 3.796 11.893 13.978 11.893 22.743v83.593c0 8.766-5.32 12.795-11.893 8.999" fill="#64caac"/><path d="M694.155 173.818c-1.44 0-3.04-.459-4.72-1.428l-76.707-44.286c-6.573-3.796-11.907-13.977-11.907-22.742V21.767c0-6.525 2.96-10.427 7.174-10.427 1.453 0 3.053.459 4.733 1.43l1.28.741c-.373 1.336-.587 2.88-.587 4.607v83.593c0 8.765 5.334 18.948 11.907 22.743l75.413 43.542c-1.053 3.712-3.48 5.822-6.586 5.822" fill="#bae7da"/><path d="M700.741 167.996l-75.413-43.542c-6.573-3.795-11.907-13.978-11.907-22.743V18.118c0-1.727.214-3.271.587-4.607l75.427 43.544c6.573 3.795 11.893 13.977 11.893 22.743v83.593c0 1.727-.2 3.27-.587 4.605" fill="#64caac"/><path d="M662.075 110.855c-10.547-6.092-19.107-20.848-19.107-32.957 0-12.111 8.56-16.988 19.107-10.895 10.56 6.092 19.106 20.848 19.106 32.959 0 12.109-8.546 16.986-19.106 10.893zm31.413-13.883c-3.76-2.168-5.64-8.466-2.987-9.98 3.014-1.714 3.014-7.309 0-12.494l-1.546-2.67c-3-5.186-7.88-8.001-10.894-6.286-2.653 1.514-7.186-3.267-7.186-7.578 0-4.88-3.454-10.825-7.707-13.28l-2.187-1.264c-4.253-2.454-7.693-.489-7.693 4.391 0 4.31-4.547 3.847-7.2-.735-3.013-5.186-7.88-8.001-10.893-6.286l-1.547.881c-3.013 1.715-3.013 7.31 0 12.495 2.653 4.581.773 8.706-2.987 6.538-4.253-2.454-7.693-.489-7.693 4.39v2.512c0 4.878 3.44 10.825 7.693 13.28 3.76 2.169 5.64 8.466 2.987 9.981-3.013 1.713-3.013 7.308 0 12.495l1.547 2.668c3.013 5.186 7.88 8.001 10.893 6.286 2.653-1.513 7.2 3.267 7.2 7.578 0 4.88 3.44 10.825 7.693 13.281l2.187 1.263c4.253 2.456 7.707.49 7.707-4.39 0-4.31 4.533-3.846 7.186.735 3.014 5.187 7.894 8 10.894 6.287l1.546-.883c3.014-1.715 3.014-7.308 0-12.495-2.653-4.581-.773-8.708 2.987-6.538 4.253 2.456 7.693.489 7.693-4.39v-2.51c0-4.88-3.44-10.826-7.693-13.282" fill="#fff"/><path d="M856.301 119.406l-76.68-44.287c-3.146-1.816-6.04-1.823-8.12-.395l-.053-.01L758.421 82s4.72 7.638 8.72 16.627v69.085c0 8.764 5.467 18.947 12.04 22.743l62.347 35.968c5.813 9.784 9.653 16.184 9.653 16.184l11.96-6.948v-.02c2.667-1.256 5.334-4.75 5.334-9.897v-83.594c0-8.765-5.6-18.948-12.174-22.742" fill="#f09a1e"/><path d="M842.835 242.44l-76.707-44.285c-6.573-3.796-11.907-13.979-11.907-22.743V91.818c0-8.766 5.334-12.794 11.907-8.998l76.707 44.284c6.573 3.796 11.893 13.979 11.893 22.743v83.595c0 8.765-5.32 12.793-11.893 8.998" fill="#fbd01b"/><path d="M836.781 250.859c-1.453 0-3.04-.459-4.72-1.428l-76.706-44.285c-6.574-3.796-11.907-13.979-11.907-22.743V98.808c0-6.525 2.96-10.426 7.173-10.426 1.174 0 2.44.298 3.76.921-.106.788-.16 1.627-.16 2.515v83.594c0 8.764 5.334 18.947 11.907 22.743l76.707 44.285c.32.188.64.358.96.507-.667 5.001-3.36 7.912-7.014 7.912" fill="#fdf1a3"/><path d="M843.795 242.947c-.32-.15-.64-.319-.96-.507l-76.707-44.285c-6.573-3.796-11.907-13.979-11.907-22.743V91.818c0-.888.054-1.727.16-2.515.32.15.64.319.974.508l76.706 44.285c6.574 3.795 11.894 13.978 11.894 22.742v83.594c0 .888-.054 1.728-.16 2.515" fill="#fbd01b"/><path d="M812.528 196.002l1.347.777c2.973 1.719 3.746.948 3.746-3.524 0-4.392-.28-8.46-.28-13.421 0-6.182 1.707-7.559 5.24-6.488v-.324c-3.533-3.023-5.24-6.363-5.24-12.546 0-4.961.28-8.701.28-13.092 0-4.474-.773-6.144-3.746-7.862l-1.347-.778V132.4l4.467 2.578c6.226 3.601 9.066 8.004 9.066 16.788 0 5.773-.706 8.374-.706 13.498 0 2.847 1.48 6.715 6.093 9.538v6.994c-4.613-2.498-6.093-.348-6.093 2.499 0 5.124.706 8.543.706 14.317 0 8.783-2.84 9.912-9.066 6.311l-4.467-2.579v-6.342M790.381 189.559l-4.466-2.577c-6.24-3.602-9.067-8.003-9.067-16.787 0-5.773.707-8.375.707-13.499 0-2.846-1.494-6.716-6.107-9.537v-6.995c4.613 2.498 6.107.347 6.107-2.498 0-5.126-.707-8.543-.707-14.318 0-8.784 2.827-9.913 9.067-6.312l4.466 2.579v6.344l-1.346-.777c-2.974-1.719-3.76-.95-3.76 3.524 0 4.392.28 8.46.28 13.421 0 6.181-1.694 7.556-5.24 6.488v.324c3.546 3.021 5.24 6.363 5.24 12.544 0 4.961-.28 8.703-.28 13.093 0 4.474.786 6.144 3.76 7.863l1.346.777v6.343" fill="#fff"/></svg>